<svg width="17" height="17" viewBox="0 0 17 17" fill="none" xmlns="http://www.w3.org/2000/svg">
<path d="M8.6857 1.6128C8.56649 1.56511 8.43351 1.56511 8.3143 1.6128L2.34629 4L8.5 6.46148L14.6537 4L8.6857 1.6128ZM15.5 4.73852L9 7.33852V15.2615L15.5 12.6615V4.73852ZM8 15.2615V7.33852L1.5 4.73852V12.6615L8 15.2615ZM7.94291 0.684319C8.30053 0.541272 8.69947 0.541272 9.05709 0.684319L16.1857 3.53576C16.3755 3.61169 16.5 3.79555 16.5 4V12.6615C16.5 13.0704 16.251 13.4381 15.8714 13.59L8.6857 16.4642C8.56649 16.5119 8.43351 16.5119 8.3143 16.4642L1.12861 13.59C0.748951 13.4381 0.5 13.0704 0.5 12.6615V4C0.5 3.79555 0.624475 3.61169 0.814305 3.53576L7.94291 0.684319Z" fill="white"/>
</svg>
