<svg width="36" height="36" viewBox="0 0 36 36" fill="none" xmlns="http://www.w3.org/2000/svg">
<path d="M32.7358 0H13.9948C13.9948 0 11.7999 0 10.4773 0C10.2147 0 9.95206 0.00981194 9.68004 0.0294358C5.77801 0.35323 3.82699 2.20769 2.87962 3.6991C1.6321 5.6713 1.36946 8.21259 2.15737 10.695C3.18916 13.933 6.07817 23.0286 6.07817 23.0286L0 27.4734L0.356436 28.435C0.384575 28.5135 1.08807 30.3581 2.65451 32.193C4.77436 34.6852 7.48515 36 10.4867 36H29.4059L36 7.70237L32.7358 0Z" fill="#FC0001"/>
<path d="M8.24493 8.61494C7.77593 6.58386 10.8994 4.79809 12.4284 8.31077L16.9026 6.74086C16.9026 6.74086 15.7207 0.853693 9.77385 1.34429C3.827 1.83489 2.11048 6.368 3.35801 10.2732C5.29964 16.3762 12.7191 23.0875 13.4883 27.6501C13.8729 29.9559 9.30486 31.9673 5.65608 24.942L1.52893 27.9641C1.52893 27.9641 4.56801 36.0786 12.4846 34.4988C19.2569 33.1448 20.3544 27.1987 17.259 22.4203C13.6946 16.9355 8.71392 10.6558 8.24493 8.61494Z" fill="white"/>
<path d="M31.8636 1.31482H13.9949C15.0829 1.92316 15.8521 2.75717 16.368 3.51269C17.2216 4.73919 17.578 5.96568 17.6812 6.3974H21.8458V33.7335H27.7645V6.3974H33.6833L31.8542 1.31482H31.8636Z" fill="white"/>
</svg>
