<svg width="213" height="64" viewBox="0 0 213 64" fill="none" xmlns="http://www.w3.org/2000/svg">
<path d="M1.72973 0H0V1.72973H1.72973V0Z" fill="#292929"/>
<path d="M3.45946 0H1.72973V1.72973H3.45946V0Z" fill="#292929"/>
<path d="M5.18919 0H3.45946V1.72973H5.18919V0Z" fill="#292929"/>
<path d="M6.91892 0H5.18919V1.72973H6.91892V0Z" fill="#292929"/>
<path d="M8.64865 0H6.91892V1.72973H8.64865V0Z" fill="#292929"/>
<path d="M10.3784 0H8.64865V1.72973H10.3784V0Z" fill="#292929"/>
<path d="M12.1081 0H10.3784V1.72973H12.1081V0Z" fill="#292929"/>
<path d="M15.5676 0H13.8378V1.72973H15.5676V0Z" fill="#292929"/>
<path d="M24.2162 0H22.4865V1.72973H24.2162V0Z" fill="#292929"/>
<path d="M25.9459 0H24.2162V1.72973H25.9459V0Z" fill="#292929"/>
<path d="M27.6757 0H25.9459V1.72973H27.6757V0Z" fill="#292929"/>
<path d="M29.4054 0H27.6757V1.72973H29.4054V0Z" fill="#292929"/>
<path d="M44.973 0H43.2432V1.72973H44.973V0Z" fill="#292929"/>
<path d="M46.7027 0H44.973V1.72973H46.7027V0Z" fill="#292929"/>
<path d="M48.4324 0H46.7027V1.72973H48.4324V0Z" fill="#292929"/>
<path d="M50.1622 0H48.4324V1.72973H50.1622V0Z" fill="#292929"/>
<path d="M53.6216 0H51.8919V1.72973H53.6216V0Z" fill="#292929"/>
<path d="M55.3514 0H53.6216V1.72973H55.3514V0Z" fill="#292929"/>
<path d="M57.0811 0H55.3514V1.72973H57.0811V0Z" fill="#292929"/>
<path d="M58.8108 0H57.0811V1.72973H58.8108V0Z" fill="#292929"/>
<path d="M60.5405 0H58.8108V1.72973H60.5405V0Z" fill="#292929"/>
<path d="M62.2703 0H60.5405V1.72973H62.2703V0Z" fill="#292929"/>
<path d="M64 0H62.2703V1.72973H64V0Z" fill="#292929"/>
<path d="M1.72973 1.72973H0V3.45946H1.72973V1.72973Z" fill="#292929"/>
<path d="M12.1081 1.72973H10.3784V3.45946H12.1081V1.72973Z" fill="#292929"/>
<path d="M17.2973 1.72973H15.5676V3.45946H17.2973V1.72973Z" fill="#292929"/>
<path d="M19.027 1.72973H17.2973V3.45946H19.027V1.72973Z" fill="#292929"/>
<path d="M20.7568 1.72973H19.027V3.45946H20.7568V1.72973Z" fill="#292929"/>
<path d="M22.4865 1.72973H20.7568V3.45946H22.4865L22.4865 1.72973Z" fill="#292929"/>
<path d="M25.9459 1.72973H24.2162V3.45946H25.9459V1.72973Z" fill="#292929"/>
<path d="M27.6757 1.72973H25.9459V3.45946H27.6757V1.72973Z" fill="#292929"/>
<path d="M32.8649 1.72973H31.1351V3.45946H32.8649V1.72973Z" fill="#292929"/>
<path d="M34.5946 1.72973H32.8649V3.45946H34.5946V1.72973Z" fill="#292929"/>
<path d="M36.3243 1.72973H34.5946V3.45946H36.3243V1.72973Z" fill="#292929"/>
<path d="M39.7838 1.72973H38.0541V3.45946H39.7838V1.72973Z" fill="#292929"/>
<path d="M44.973 1.72973H43.2432V3.45946H44.973V1.72973Z" fill="#292929"/>
<path d="M53.6216 1.72973H51.8919V3.45946H53.6216V1.72973Z" fill="#292929"/>
<path d="M64 1.72973H62.2703V3.45946H64V1.72973Z" fill="#292929"/>
<path d="M1.72973 3.45946H0V5.18919H1.72973V3.45946Z" fill="#292929"/>
<path d="M5.18919 3.45946H3.45946V5.18919H5.18919V3.45946Z" fill="#292929"/>
<path d="M6.91892 3.45946H5.18919V5.18919H6.91892V3.45946Z" fill="#292929"/>
<path d="M8.64865 3.45946H6.91892V5.18919H8.64865V3.45946Z" fill="#292929"/>
<path d="M12.1081 3.45946H10.3784V5.18919H12.1081V3.45946Z" fill="#292929"/>
<path d="M15.5676 3.45946H13.8378V5.18919H15.5676V3.45946Z" fill="#292929"/>
<path d="M22.4865 3.45946H20.7568L20.7568 5.18919H22.4865V3.45946Z" fill="#292929"/>
<path d="M29.4054 3.45946H27.6757L27.6757 5.18919H29.4054V3.45946Z" fill="#292929"/>
<path d="M31.1351 3.45946H29.4054V5.18919H31.1351L31.1351 3.45946Z" fill="#292929"/>
<path d="M32.8649 3.45946H31.1351L31.1351 5.18919H32.8649V3.45946Z" fill="#292929"/>
<path d="M34.5946 3.45946H32.8649V5.18919H34.5946V3.45946Z" fill="#292929"/>
<path d="M36.3243 3.45946H34.5946V5.18919H36.3243V3.45946Z" fill="#292929"/>
<path d="M39.7838 3.45946H38.0541V5.18919H39.7838V3.45946Z" fill="#292929"/>
<path d="M53.6216 3.45946H51.8919V5.18919H53.6216V3.45946Z" fill="#292929"/>
<path d="M57.0811 3.45946H55.3514V5.18919H57.0811V3.45946Z" fill="#292929"/>
<path d="M58.8108 3.45946H57.0811V5.18919H58.8108V3.45946Z" fill="#292929"/>
<path d="M60.5405 3.45946H58.8108V5.18919H60.5405V3.45946Z" fill="#292929"/>
<path d="M64 3.45946H62.2703V5.18919H64V3.45946Z" fill="#292929"/>
<path d="M1.72973 5.18919H0V6.91892H1.72973V5.18919Z" fill="#292929"/>
<path d="M5.18919 5.18919H3.45946V6.91892H5.18919V5.18919Z" fill="#292929"/>
<path d="M6.91892 5.18919H5.18919V6.91892H6.91892V5.18919Z" fill="#292929"/>
<path d="M8.64865 5.18919H6.91892V6.91892H8.64865V5.18919Z" fill="#292929"/>
<path d="M12.1081 5.18919H10.3784V6.91892H12.1081V5.18919Z" fill="#292929"/>
<path d="M15.5676 5.18919H13.8378V6.91892H15.5676V5.18919Z" fill="#292929"/>
<path d="M17.2973 5.18919H15.5676V6.91892H17.2973V5.18919Z" fill="#292929"/>
<path d="M22.4865 5.18919H20.7568V6.91892H22.4865V5.18919Z" fill="#292929"/>
<path d="M25.9459 5.18919H24.2162V6.91892H25.9459V5.18919Z" fill="#292929"/>
<path d="M27.6757 5.18919H25.9459V6.91892H27.6757L27.6757 5.18919Z" fill="#292929"/>
<path d="M29.4054 5.18919H27.6757L27.6757 6.91892H29.4054V5.18919Z" fill="#292929"/>
<path d="M32.8649 5.18919H31.1351L31.1351 6.91892H32.8649V5.18919Z" fill="#292929"/>
<path d="M36.3243 5.18919H34.5946V6.91892H36.3243V5.18919Z" fill="#292929"/>
<path d="M39.7838 5.18919H38.0541V6.91892H39.7838V5.18919Z" fill="#292929"/>
<path d="M43.2432 5.18919H41.5135V6.91892H43.2432V5.18919Z" fill="#292929"/>
<path d="M44.973 5.18919H43.2432V6.91892H44.973V5.18919Z" fill="#292929"/>
<path d="M48.4324 5.18919H46.7027V6.91892H48.4324V5.18919Z" fill="#292929"/>
<path d="M53.6216 5.18919H51.8919V6.91892H53.6216V5.18919Z" fill="#292929"/>
<path d="M57.0811 5.18919H55.3514V6.91892H57.0811V5.18919Z" fill="#292929"/>
<path d="M58.8108 5.18919H57.0811V6.91892H58.8108V5.18919Z" fill="#292929"/>
<path d="M60.5405 5.18919H58.8108V6.91892H60.5405V5.18919Z" fill="#292929"/>
<path d="M64 5.18919H62.2703V6.91892H64V5.18919Z" fill="#292929"/>
<path d="M1.72973 6.91892H0V8.64865H1.72973V6.91892Z" fill="#292929"/>
<path d="M5.18919 6.91892H3.45946V8.64865H5.18919V6.91892Z" fill="#292929"/>
<path d="M6.91892 6.91892H5.18919V8.64865H6.91892V6.91892Z" fill="#292929"/>
<path d="M8.64865 6.91892H6.91892V8.64865H8.64865V6.91892Z" fill="#292929"/>
<path d="M12.1081 6.91892H10.3784V8.64865H12.1081V6.91892Z" fill="#292929"/>
<path d="M15.5676 6.91892H13.8378V8.64865H15.5676V6.91892Z" fill="#292929"/>
<path d="M17.2973 6.91892H15.5676V8.64865H17.2973V6.91892Z" fill="#292929"/>
<path d="M20.7568 6.91892H19.027V8.64865H20.7568L20.7568 6.91892Z" fill="#292929"/>
<path d="M24.2162 6.91892H22.4865L22.4865 8.64865H24.2162V6.91892Z" fill="#292929"/>
<path d="M32.8649 6.91892H31.1351V8.64865H32.8649V6.91892Z" fill="#292929"/>
<path d="M41.5135 6.91892H39.7838V8.64865H41.5135V6.91892Z" fill="#292929"/>
<path d="M43.2432 6.91892H41.5135V8.64865H43.2432V6.91892Z" fill="#292929"/>
<path d="M53.6216 6.91892H51.8919V8.64865H53.6216V6.91892Z" fill="#292929"/>
<path d="M57.0811 6.91892H55.3514V8.64865H57.0811V6.91892Z" fill="#292929"/>
<path d="M58.8108 6.91892H57.0811V8.64865H58.8108V6.91892Z" fill="#292929"/>
<path d="M60.5405 6.91892H58.8108V8.64865H60.5405V6.91892Z" fill="#292929"/>
<path d="M64 6.91892H62.2703V8.64865H64V6.91892Z" fill="#292929"/>
<path d="M1.72973 8.64865H0V10.3784H1.72973V8.64865Z" fill="#292929"/>
<path d="M12.1081 8.64865H10.3784V10.3784H12.1081V8.64865Z" fill="#292929"/>
<path d="M15.5676 8.64865H13.8378V10.3784H15.5676V8.64865Z" fill="#292929"/>
<path d="M17.2973 8.64865H15.5676V10.3784H17.2973V8.64865Z" fill="#292929"/>
<path d="M19.027 8.64865H17.2973V10.3784H19.027V8.64865Z" fill="#292929"/>
<path d="M20.7568 8.64865H19.027V10.3784H20.7568V8.64865Z" fill="#292929"/>
<path d="M22.4865 8.64865H20.7568V10.3784H22.4865L22.4865 8.64865Z" fill="#292929"/>
<path d="M24.2162 8.64865H22.4865L22.4865 10.3784H24.2162V8.64865Z" fill="#292929"/>
<path d="M27.6757 8.64865H25.9459V10.3784H27.6757V8.64865Z" fill="#292929"/>
<path d="M34.5946 8.64865H32.8649V10.3784H34.5946V8.64865Z" fill="#292929"/>
<path d="M36.3243 8.64865H34.5946V10.3784H36.3243V8.64865Z" fill="#292929"/>
<path d="M39.7838 8.64865H38.0541V10.3784H39.7838V8.64865Z" fill="#292929"/>
<path d="M41.5135 8.64865H39.7838V10.3784H41.5135V8.64865Z" fill="#292929"/>
<path d="M43.2432 8.64865H41.5135V10.3784H43.2432V8.64865Z" fill="#292929"/>
<path d="M48.4324 8.64865H46.7027V10.3784H48.4324V8.64865Z" fill="#292929"/>
<path d="M50.1622 8.64865H48.4324V10.3784H50.1622V8.64865Z" fill="#292929"/>
<path d="M53.6216 8.64865H51.8919V10.3784H53.6216V8.64865Z" fill="#292929"/>
<path d="M64 8.64865H62.2703V10.3784H64V8.64865Z" fill="#292929"/>
<path d="M1.72973 10.3784H0V12.1081H1.72973V10.3784Z" fill="#292929"/>
<path d="M3.45946 10.3784H1.72973V12.1081H3.45946V10.3784Z" fill="#292929"/>
<path d="M5.18919 10.3784H3.45946V12.1081H5.18919V10.3784Z" fill="#292929"/>
<path d="M6.91892 10.3784H5.18919V12.1081H6.91892V10.3784Z" fill="#292929"/>
<path d="M8.64865 10.3784H6.91892V12.1081H8.64865V10.3784Z" fill="#292929"/>
<path d="M10.3784 10.3784H8.64865V12.1081H10.3784V10.3784Z" fill="#292929"/>
<path d="M12.1081 10.3784H10.3784V12.1081H12.1081V10.3784Z" fill="#292929"/>
<path d="M15.5676 10.3784H13.8378V12.1081H15.5676V10.3784Z" fill="#292929"/>
<path d="M19.027 10.3784H17.2973V12.1081H19.027V10.3784Z" fill="#292929"/>
<path d="M22.4865 10.3784H20.7568L20.7568 12.1081H22.4865V10.3784Z" fill="#292929"/>
<path d="M25.9459 10.3784H24.2162V12.1081H25.9459L25.9459 10.3784Z" fill="#292929"/>
<path d="M29.4054 10.3784H27.6757L27.6757 12.1081H29.4054V10.3784Z" fill="#292929"/>
<path d="M32.8649 10.3784H31.1351V12.1081H32.8649V10.3784Z" fill="#292929"/>
<path d="M36.3243 10.3784H34.5946V12.1081H36.3243V10.3784Z" fill="#292929"/>
<path d="M39.7838 10.3784H38.0541V12.1081H39.7838V10.3784Z" fill="#292929"/>
<path d="M43.2432 10.3784H41.5135V12.1081H43.2432V10.3784Z" fill="#292929"/>
<path d="M46.7027 10.3784H44.973V12.1081H46.7027V10.3784Z" fill="#292929"/>
<path d="M50.1622 10.3784H48.4324V12.1081H50.1622V10.3784Z" fill="#292929"/>
<path d="M53.6216 10.3784H51.8919V12.1081H53.6216V10.3784Z" fill="#292929"/>
<path d="M55.3514 10.3784H53.6216V12.1081H55.3514V10.3784Z" fill="#292929"/>
<path d="M57.0811 10.3784H55.3514V12.1081H57.0811V10.3784Z" fill="#292929"/>
<path d="M58.8108 10.3784H57.0811V12.1081H58.8108V10.3784Z" fill="#292929"/>
<path d="M60.5405 10.3784H58.8108V12.1081H60.5405V10.3784Z" fill="#292929"/>
<path d="M62.2703 10.3784H60.5405V12.1081H62.2703V10.3784Z" fill="#292929"/>
<path d="M64 10.3784H62.2703V12.1081H64V10.3784Z" fill="#292929"/>
<path d="M17.2973 12.1081H15.5676V13.8378H17.2973V12.1081Z" fill="#292929"/>
<path d="M19.027 12.1081H17.2973V13.8378H19.027V12.1081Z" fill="#292929"/>
<path d="M20.7568 12.1081H19.027V13.8378H20.7568L20.7568 12.1081Z" fill="#292929"/>
<path d="M24.2162 12.1081H22.4865L22.4865 13.8378H24.2162V12.1081Z" fill="#292929"/>
<path d="M27.6757 12.1081H25.9459L25.9459 13.8378H27.6757L27.6757 12.1081Z" fill="#292929"/>
<path d="M29.4054 12.1081H27.6757L27.6757 13.8378H29.4054V12.1081Z" fill="#292929"/>
<path d="M36.3243 12.1081H34.5946V13.8378H36.3243V12.1081Z" fill="#292929"/>
<path d="M39.7838 12.1081H38.0541V13.8378H39.7838V12.1081Z" fill="#292929"/>
<path d="M43.2432 12.1081H41.5135V13.8378H43.2432V12.1081Z" fill="#292929"/>
<path d="M44.973 12.1081H43.2432V13.8378H44.973V12.1081Z" fill="#292929"/>
<path d="M50.1622 12.1081H48.4324V13.8378H50.1622V12.1081Z" fill="#292929"/>
<path d="M5.18919 13.8378H3.45946V15.5676H5.18919V13.8378Z" fill="#292929"/>
<path d="M6.91892 13.8378H5.18919V15.5676H6.91892V13.8378Z" fill="#292929"/>
<path d="M8.64865 13.8378H6.91892V15.5676H8.64865V13.8378Z" fill="#292929"/>
<path d="M10.3784 13.8378H8.64865V15.5676H10.3784V13.8378Z" fill="#292929"/>
<path d="M12.1081 13.8378H10.3784V15.5676H12.1081V13.8378Z" fill="#292929"/>
<path d="M13.8378 13.8378H12.1081V15.5676H13.8378V13.8378Z" fill="#292929"/>
<path d="M17.2973 13.8378H15.5676V15.5676H17.2973V13.8378Z" fill="#292929"/>
<path d="M19.027 13.8378H17.2973V15.5676H19.027V13.8378Z" fill="#292929"/>
<path d="M25.9459 13.8378H24.2162V15.5676H25.9459L25.9459 13.8378Z" fill="#292929"/>
<path d="M31.1351 13.8378H29.4054L29.4054 15.5676H31.1351V13.8378Z" fill="#292929"/>
<path d="M34.5946 13.8378H32.8649V15.5676H34.5946V13.8378Z" fill="#292929"/>
<path d="M36.3243 13.8378H34.5946V15.5676H36.3243V13.8378Z" fill="#292929"/>
<path d="M38.0541 13.8378H36.3243V15.5676H38.0541V13.8378Z" fill="#292929"/>
<path d="M39.7838 13.8378H38.0541V15.5676H39.7838V13.8378Z" fill="#292929"/>
<path d="M44.973 13.8378H43.2432V15.5676H44.973V13.8378Z" fill="#292929"/>
<path d="M48.4324 13.8378H46.7027V15.5676H48.4324V13.8378Z" fill="#292929"/>
<path d="M50.1622 13.8378H48.4324V15.5676H50.1622V13.8378Z" fill="#292929"/>
<path d="M51.8919 13.8378H50.1622V15.5676H51.8919V13.8378Z" fill="#292929"/>
<path d="M55.3514 13.8378H53.6216V15.5676H55.3514V13.8378Z" fill="#292929"/>
<path d="M57.0811 13.8378H55.3514V15.5676H57.0811V13.8378Z" fill="#292929"/>
<path d="M58.8108 13.8378H57.0811V15.5676H58.8108V13.8378Z" fill="#292929"/>
<path d="M60.5405 13.8378H58.8108V15.5676H60.5405V13.8378Z" fill="#292929"/>
<path d="M64 13.8378H62.2703V15.5676H64V13.8378Z" fill="#292929"/>
<path d="M1.72973 15.5676H0V17.2973H1.72973V15.5676Z" fill="#292929"/>
<path d="M6.91892 15.5676H5.18919V17.2973H6.91892V15.5676Z" fill="#292929"/>
<path d="M10.3784 15.5676H8.64865V17.2973H10.3784V15.5676Z" fill="#292929"/>
<path d="M13.8378 15.5676H12.1081V17.2973H13.8378V15.5676Z" fill="#292929"/>
<path d="M20.7568 15.5676H19.027V17.2973H20.7568V15.5676Z" fill="#292929"/>
<path d="M22.4865 15.5676H20.7568V17.2973H22.4865V15.5676Z" fill="#292929"/>
<path d="M24.2162 15.5676H22.4865V17.2973H24.2162V15.5676Z" fill="#292929"/>
<path d="M25.9459 15.5676H24.2162V17.2973H25.9459V15.5676Z" fill="#292929"/>
<path d="M31.1351 15.5676H29.4054V17.2973H31.1351V15.5676Z" fill="#292929"/>
<path d="M32.8649 15.5676H31.1351V17.2973H32.8649V15.5676Z" fill="#292929"/>
<path d="M34.5946 15.5676H32.8649V17.2973H34.5946V15.5676Z" fill="#292929"/>
<path d="M38.0541 15.5676H36.3243V17.2973H38.0541V15.5676Z" fill="#292929"/>
<path d="M41.5135 15.5676H39.7838V17.2973H41.5135V15.5676Z" fill="#292929"/>
<path d="M44.973 15.5676H43.2432V17.2973H44.973V15.5676Z" fill="#292929"/>
<path d="M48.4324 15.5676H46.7027V17.2973H48.4324V15.5676Z" fill="#292929"/>
<path d="M50.1622 15.5676H48.4324V17.2973H50.1622V15.5676Z" fill="#292929"/>
<path d="M51.8919 15.5676H50.1622V17.2973H51.8919V15.5676Z" fill="#292929"/>
<path d="M57.0811 15.5676H55.3514V17.2973H57.0811V15.5676Z" fill="#292929"/>
<path d="M58.8108 15.5676H57.0811V17.2973H58.8108V15.5676Z" fill="#292929"/>
<path d="M60.5405 15.5676H58.8108V17.2973H60.5405V15.5676Z" fill="#292929"/>
<path d="M62.2703 15.5676H60.5405V17.2973H62.2703V15.5676Z" fill="#292929"/>
<path d="M64 15.5676H62.2703V17.2973H64V15.5676Z" fill="#292929"/>
<path d="M12.1081 17.2973H10.3784V19.027H12.1081V17.2973Z" fill="#292929"/>
<path d="M17.2973 17.2973H15.5676V19.027H17.2973V17.2973Z" fill="#292929"/>
<path d="M20.7568 17.2973H19.027V19.027H20.7568V17.2973Z" fill="#292929"/>
<path d="M22.4865 17.2973H20.7568V19.027H22.4865V17.2973Z" fill="#292929"/>
<path d="M24.2162 17.2973H22.4865V19.027H24.2162V17.2973Z" fill="#292929"/>
<path d="M29.4054 17.2973H27.6757V19.027H29.4054L29.4054 17.2973Z" fill="#292929"/>
<path d="M36.3243 17.2973H34.5946V19.027H36.3243V17.2973Z" fill="#292929"/>
<path d="M43.2432 17.2973H41.5135V19.027H43.2432V17.2973Z" fill="#292929"/>
<path d="M44.973 17.2973H43.2432V19.027H44.973V17.2973Z" fill="#292929"/>
<path d="M50.1622 17.2973H48.4324V19.027H50.1622V17.2973Z" fill="#292929"/>
<path d="M53.6216 17.2973H51.8919V19.027H53.6216V17.2973Z" fill="#292929"/>
<path d="M55.3514 17.2973H53.6216V19.027H55.3514V17.2973Z" fill="#292929"/>
<path d="M62.2703 17.2973H60.5405V19.027H62.2703V17.2973Z" fill="#292929"/>
<path d="M1.72973 19.027H0V20.7568H1.72973V19.027Z" fill="#292929"/>
<path d="M6.91892 19.027H5.18919V20.7568H6.91892V19.027Z" fill="#292929"/>
<path d="M10.3784 19.027H8.64865V20.7568H10.3784V19.027Z" fill="#292929"/>
<path d="M13.8378 19.027H12.1081V20.7568H13.8378V19.027Z" fill="#292929"/>
<path d="M15.5676 19.027H13.8378V20.7568H15.5676V19.027Z" fill="#292929"/>
<path d="M17.2973 19.027H15.5676V20.7568H17.2973V19.027Z" fill="#292929"/>
<path d="M22.4865 19.027H20.7568L20.7568 20.7568H22.4865V19.027Z" fill="#292929"/>
<path d="M24.2162 19.027H22.4865V20.7568H24.2162V19.027Z" fill="#292929"/>
<path d="M25.9459 19.027H24.2162V20.7568H25.9459V19.027Z" fill="#292929"/>
<path d="M29.4054 19.027H27.6757V20.7568H29.4054V19.027Z" fill="#292929"/>
<path d="M32.8649 19.027H31.1351V20.7568H32.8649V19.027Z" fill="#292929"/>
<path d="M36.3243 19.027H34.5946V20.7568H36.3243V19.027Z" fill="#292929"/>
<path d="M44.973 19.027H43.2432V20.7568H44.973V19.027Z" fill="#292929"/>
<path d="M50.1622 19.027H48.4324V20.7568H50.1622V19.027Z" fill="#292929"/>
<path d="M57.0811 19.027H55.3514V20.7568H57.0811V19.027Z" fill="#292929"/>
<path d="M60.5405 19.027H58.8108V20.7568H60.5405V19.027Z" fill="#292929"/>
<path d="M62.2703 19.027H60.5405V20.7568H62.2703V19.027Z" fill="#292929"/>
<path d="M64 19.027H62.2703V20.7568H64V19.027Z" fill="#292929"/>
<path d="M1.72973 20.7568H0V22.4865H1.72973V20.7568Z" fill="#292929"/>
<path d="M3.45946 20.7568L1.72973 20.7568V22.4865H3.45946V20.7568Z" fill="#292929"/>
<path d="M6.91892 20.7568H5.18919V22.4865H6.91892V20.7568Z" fill="#292929"/>
<path d="M8.64865 20.7568H6.91892V22.4865H8.64865V20.7568Z" fill="#292929"/>
<path d="M12.1081 20.7568H10.3784V22.4865H12.1081V20.7568Z" fill="#292929"/>
<path d="M13.8378 20.7568H12.1081V22.4865H13.8378V20.7568Z" fill="#292929"/>
<path d="M17.2973 20.7568H15.5676V22.4865H17.2973V20.7568Z" fill="#292929"/>
<path d="M19.027 20.7568L17.2973 20.7568V22.4865H19.027V20.7568Z" fill="#292929"/>
<path d="M22.4865 20.7568H20.7568V22.4865H22.4865V20.7568Z" fill="#292929"/>
<path d="M25.9459 20.7568H24.2162V22.4865H25.9459V20.7568Z" fill="#292929"/>
<path d="M27.6757 20.7568H25.9459V22.4865H27.6757L27.6757 20.7568Z" fill="#292929"/>
<path d="M36.3243 20.7568H34.5946V22.4865H36.3243V20.7568Z" fill="#292929"/>
<path d="M39.7838 20.7568H38.0541V22.4865H39.7838V20.7568Z" fill="#292929"/>
<path d="M43.2432 20.7568L41.5135 20.7568V22.4865H43.2432V20.7568Z" fill="#292929"/>
<path d="M46.7027 20.7568L44.973 20.7568V22.4865H46.7027V20.7568Z" fill="#292929"/>
<path d="M53.6216 20.7568H51.8919V22.4865H53.6216V20.7568Z" fill="#292929"/>
<path d="M57.0811 20.7568H55.3514V22.4865H57.0811V20.7568Z" fill="#292929"/>
<path d="M60.5405 20.7568H58.8108V22.4865H60.5405V20.7568Z" fill="#292929"/>
<path d="M64 20.7568H62.2703V22.4865H64V20.7568Z" fill="#292929"/>
<path d="M3.45946 22.4865H1.72973V24.2162H3.45946V22.4865Z" fill="#292929"/>
<path d="M8.64865 22.4865H6.91892V24.2162H8.64865V22.4865Z" fill="#292929"/>
<path d="M10.3784 22.4865H8.64865V24.2162H10.3784V22.4865Z" fill="#292929"/>
<path d="M15.5676 22.4865H13.8378V24.2162H15.5676V22.4865Z" fill="#292929"/>
<path d="M17.2973 22.4865H15.5676V24.2162H17.2973V22.4865Z" fill="#292929"/>
<path d="M19.027 22.4865H17.2973V24.2162H19.027V22.4865Z" fill="#292929"/>
<path d="M20.7568 22.4865H19.027V24.2162H20.7568L20.7568 22.4865Z" fill="#292929"/>
<path d="M24.2162 22.4865H22.4865L22.4865 24.2162H24.2162V22.4865Z" fill="#292929"/>
<path d="M25.9459 22.4865H24.2162V24.2162H25.9459V22.4865Z" fill="#292929"/>
<path d="M29.4054 22.4865L27.6757 22.4865L27.6757 24.2162H29.4054V22.4865Z" fill="#292929"/>
<path d="M32.8649 22.4865H31.1351V24.2162H32.8649V22.4865Z" fill="#292929"/>
<path d="M39.7838 22.4865H38.0541V24.2162H39.7838V22.4865Z" fill="#292929"/>
<path d="M41.5135 22.4865H39.7838V24.2162H41.5135V22.4865Z" fill="#292929"/>
<path d="M46.7027 22.4865H44.973V24.2162H46.7027V22.4865Z" fill="#292929"/>
<path d="M48.4324 22.4865L46.7027 22.4865V24.2162H48.4324V22.4865Z" fill="#292929"/>
<path d="M50.1622 22.4865H48.4324V24.2162H50.1622V22.4865Z" fill="#292929"/>
<path d="M51.8919 22.4865L50.1622 22.4865V24.2162H51.8919V22.4865Z" fill="#292929"/>
<path d="M53.6216 22.4865H51.8919V24.2162H53.6216V22.4865Z" fill="#292929"/>
<path d="M55.3514 22.4865H53.6216V24.2162H55.3514V22.4865Z" fill="#292929"/>
<path d="M57.0811 22.4865H55.3514V24.2162H57.0811V22.4865Z" fill="#292929"/>
<path d="M58.8108 22.4865H57.0811V24.2162H58.8108V22.4865Z" fill="#292929"/>
<path d="M64 22.4865H62.2703V24.2162H64V22.4865Z" fill="#292929"/>
<path d="M1.72973 24.2162H0V25.9459H1.72973V24.2162Z" fill="#292929"/>
<path d="M5.18919 24.2162H3.45946V25.9459H5.18919V24.2162Z" fill="#292929"/>
<path d="M12.1081 24.2162H10.3784V25.9459H12.1081V24.2162Z" fill="#292929"/>
<path d="M15.5676 24.2162H13.8378V25.9459H15.5676V24.2162Z" fill="#292929"/>
<path d="M20.7568 24.2162H19.027V25.9459H20.7568V24.2162Z" fill="#292929"/>
<path d="M22.4865 24.2162H20.7568V25.9459H22.4865L22.4865 24.2162Z" fill="#292929"/>
<path d="M24.2162 24.2162H22.4865L22.4865 25.9459H24.2162V24.2162Z" fill="#292929"/>
<path d="M25.9459 24.2162H24.2162V25.9459H25.9459V24.2162Z" fill="#292929"/>
<path d="M36.3243 24.2162H34.5946V25.9459H36.3243V24.2162Z" fill="#292929"/>
<path d="M38.0541 24.2162H36.3243V25.9459H38.0541V24.2162Z" fill="#292929"/>
<path d="M41.5135 24.2162H39.7838V25.9459H41.5135V24.2162Z" fill="#292929"/>
<path d="M53.6216 24.2162H51.8919V25.9459H53.6216V24.2162Z" fill="#292929"/>
<path d="M55.3514 24.2162H53.6216V25.9459H55.3514V24.2162Z" fill="#292929"/>
<path d="M57.0811 24.2162H55.3514V25.9459H57.0811V24.2162Z" fill="#292929"/>
<path d="M58.8108 24.2162H57.0811V25.9459H58.8108V24.2162Z" fill="#292929"/>
<path d="M62.2703 24.2162H60.5405V25.9459H62.2703V24.2162Z" fill="#292929"/>
<path d="M64 24.2162H62.2703V25.9459H64V24.2162Z" fill="#292929"/>
<path d="M1.72973 25.9459H0V27.6757H1.72973V25.9459Z" fill="#292929"/>
<path d="M6.91892 25.9459L5.18919 25.9459V27.6757H6.91892V25.9459Z" fill="#292929"/>
<path d="M10.3784 25.9459L8.64865 25.9459V27.6757H10.3784V25.9459Z" fill="#292929"/>
<path d="M13.8378 25.9459H12.1081V27.6757H13.8378V25.9459Z" fill="#292929"/>
<path d="M17.2973 25.9459L15.5676 25.9459V27.6757H17.2973V25.9459Z" fill="#292929"/>
<path d="M19.027 25.9459L17.2973 25.9459V27.6757H19.027V25.9459Z" fill="#292929"/>
<path d="M20.7568 25.9459H19.027V27.6757H20.7568V25.9459Z" fill="#292929"/>
<path d="M22.4865 25.9459H20.7568V27.6757H22.4865V25.9459Z" fill="#292929"/>
<path d="M25.9459 25.9459H24.2162V27.6757H25.9459V25.9459Z" fill="#292929"/>
<path d="M27.6757 25.9459L25.9459 25.9459V27.6757H27.6757V25.9459Z" fill="#292929"/>
<path d="M31.1351 25.9459H29.4054V27.6757H31.1351V25.9459Z" fill="#292929"/>
<path d="M39.7838 25.9459H38.0541V27.6757H39.7838V25.9459Z" fill="#292929"/>
<path d="M41.5135 25.9459H39.7838V27.6757H41.5135V25.9459Z" fill="#292929"/>
<path d="M44.973 25.9459H43.2432V27.6757H44.973V25.9459Z" fill="#292929"/>
<path d="M46.7027 25.9459H44.973V27.6757H46.7027V25.9459Z" fill="#292929"/>
<path d="M48.4324 25.9459H46.7027V27.6757H48.4324V25.9459Z" fill="#292929"/>
<path d="M50.1622 25.9459H48.4324V27.6757H50.1622V25.9459Z" fill="#292929"/>
<path d="M53.6216 25.9459H51.8919V27.6757H53.6216V25.9459Z" fill="#292929"/>
<path d="M55.3514 25.9459H53.6216V27.6757H55.3514V25.9459Z" fill="#292929"/>
<path d="M57.0811 25.9459H55.3514V27.6757H57.0811V25.9459Z" fill="#292929"/>
<path d="M58.8108 25.9459H57.0811V27.6757H58.8108V25.9459Z" fill="#292929"/>
<path d="M1.72973 27.6757H0V29.4054H1.72973V27.6757Z" fill="#292929"/>
<path d="M6.91892 27.6757H5.18919V29.4054H6.91892V27.6757Z" fill="#292929"/>
<path d="M10.3784 27.6757H8.64865V29.4054H10.3784V27.6757Z" fill="#292929"/>
<path d="M12.1081 27.6757H10.3784V29.4054H12.1081V27.6757Z" fill="#292929"/>
<path d="M13.8378 27.6757H12.1081V29.4054H13.8378V27.6757Z" fill="#292929"/>
<path d="M15.5676 27.6757H13.8378V29.4054H15.5676V27.6757Z" fill="#292929"/>
<path d="M19.027 27.6757H17.2973V29.4054H19.027V27.6757Z" fill="#292929"/>
<path d="M22.4865 27.6757H20.7568L20.7568 29.4054H22.4865V27.6757Z" fill="#292929"/>
<path d="M24.2162 27.6757H22.4865V29.4054H24.2162V27.6757Z" fill="#292929"/>
<path d="M27.6757 27.6757H25.9459L25.9459 29.4054H27.6757V27.6757Z" fill="#292929"/>
<path d="M31.1351 27.6757H29.4054V29.4054H31.1351V27.6757Z" fill="#292929"/>
<path d="M34.5946 27.6757H32.8649V29.4054H34.5946V27.6757Z" fill="#292929"/>
<path d="M38.0541 27.6757L36.3243 27.6757V29.4054H38.0541V27.6757Z" fill="#292929"/>
<path d="M39.7838 27.6757H38.0541V29.4054H39.7838V27.6757Z" fill="#292929"/>
<path d="M43.2432 27.6757H41.5135V29.4054H43.2432V27.6757Z" fill="#292929"/>
<path d="M46.7027 27.6757H44.973V29.4054H46.7027V27.6757Z" fill="#292929"/>
<path d="M51.8919 27.6757H50.1622V29.4054H51.8919V27.6757Z" fill="#292929"/>
<path d="M53.6216 27.6757H51.8919V29.4054H53.6216V27.6757Z" fill="#292929"/>
<path d="M58.8108 27.6757H57.0811V29.4054H58.8108V27.6757Z" fill="#292929"/>
<path d="M62.2703 27.6757H60.5405V29.4054H62.2703V27.6757Z" fill="#292929"/>
<path d="M3.45946 29.4054L1.72973 29.4054V31.1351H3.45946V29.4054Z" fill="#292929"/>
<path d="M6.91892 29.4054H5.18919V31.1351H6.91892V29.4054Z" fill="#292929"/>
<path d="M8.64865 29.4054H6.91892V31.1351H8.64865V29.4054Z" fill="#292929"/>
<path d="M10.3784 29.4054H8.64865V31.1351H10.3784V29.4054Z" fill="#292929"/>
<path d="M13.8378 29.4054H12.1081V31.1351H13.8378V29.4054Z" fill="#292929"/>
<path d="M17.2973 29.4054H15.5676V31.1351H17.2973V29.4054Z" fill="#292929"/>
<path d="M19.027 29.4054H17.2973V31.1351H19.027V29.4054Z" fill="#292929"/>
<path d="M22.4865 29.4054H20.7568V31.1351H22.4865V29.4054Z" fill="#292929"/>
<path d="M36.3243 29.4054H34.5946V31.1351H36.3243V29.4054Z" fill="#292929"/>
<path d="M38.0541 29.4054H36.3243V31.1351H38.0541V29.4054Z" fill="#292929"/>
<path d="M39.7838 29.4054H38.0541V31.1351H39.7838V29.4054Z" fill="#292929"/>
<path d="M41.5135 29.4054H39.7838V31.1351H41.5135V29.4054Z" fill="#292929"/>
<path d="M50.1622 29.4054L48.4324 29.4054V31.1351H50.1622V29.4054Z" fill="#292929"/>
<path d="M64 29.4054L62.2703 29.4054V31.1351H64V29.4054Z" fill="#292929"/>
<path d="M3.45946 31.1351H1.72973V32.8649H3.45946V31.1351Z" fill="#292929"/>
<path d="M6.91892 31.1351H5.18919V32.8649H6.91892V31.1351Z" fill="#292929"/>
<path d="M8.64865 31.1351H6.91892V32.8649H8.64865V31.1351Z" fill="#292929"/>
<path d="M12.1081 31.1351H10.3784V32.8649H12.1081V31.1351Z" fill="#292929"/>
<path d="M13.8378 31.1351H12.1081V32.8649H13.8378V31.1351Z" fill="#292929"/>
<path d="M17.2973 31.1351H15.5676V32.8649H17.2973V31.1351Z" fill="#292929"/>
<path d="M24.2162 31.1351L22.4865 31.1351L22.4865 32.8649H24.2162V31.1351Z" fill="#292929"/>
<path d="M25.9459 31.1351H24.2162V32.8649H25.9459V31.1351Z" fill="#292929"/>
<path d="M29.4054 31.1351H27.6757V32.8649H29.4054V31.1351Z" fill="#292929"/>
<path d="M34.5946 31.1351L32.8649 31.1351V32.8649H34.5946V31.1351Z" fill="#292929"/>
<path d="M38.0541 31.1351H36.3243V32.8649H38.0541V31.1351Z" fill="#292929"/>
<path d="M41.5135 31.1351H39.7838V32.8649H41.5135V31.1351Z" fill="#292929"/>
<path d="M44.973 31.1351H43.2432V32.8649H44.973V31.1351Z" fill="#292929"/>
<path d="M53.6216 31.1351H51.8919V32.8649H53.6216V31.1351Z" fill="#292929"/>
<path d="M57.0811 31.1351H55.3514V32.8649H57.0811V31.1351Z" fill="#292929"/>
<path d="M62.2703 31.1351L60.5405 31.1351V32.8649H62.2703V31.1351Z" fill="#292929"/>
<path d="M8.64865 32.8649H6.91892V34.5946H8.64865V32.8649Z" fill="#292929"/>
<path d="M19.027 32.8649H17.2973V34.5946H19.027V32.8649Z" fill="#292929"/>
<path d="M20.7568 32.8649H19.027V34.5946H20.7568V32.8649Z" fill="#292929"/>
<path d="M22.4865 32.8649H20.7568V34.5946H22.4865L22.4865 32.8649Z" fill="#292929"/>
<path d="M24.2162 32.8649H22.4865L22.4865 34.5946H24.2162V32.8649Z" fill="#292929"/>
<path d="M38.0541 32.8649H36.3243V34.5946H38.0541V32.8649Z" fill="#292929"/>
<path d="M46.7027 32.8649H44.973V34.5946H46.7027V32.8649Z" fill="#292929"/>
<path d="M48.4324 32.8649H46.7027V34.5946H48.4324V32.8649Z" fill="#292929"/>
<path d="M50.1622 32.8649H48.4324V34.5946H50.1622V32.8649Z" fill="#292929"/>
<path d="M51.8919 32.8649H50.1622V34.5946H51.8919V32.8649Z" fill="#292929"/>
<path d="M55.3514 32.8649H53.6216V34.5946H55.3514V32.8649Z" fill="#292929"/>
<path d="M57.0811 32.8649H55.3514V34.5946H57.0811V32.8649Z" fill="#292929"/>
<path d="M3.45946 34.5946H1.72973V36.3243H3.45946V34.5946Z" fill="#292929"/>
<path d="M6.91892 34.5946H5.18919V36.3243H6.91892V34.5946Z" fill="#292929"/>
<path d="M8.64865 34.5946H6.91892V36.3243H8.64865V34.5946Z" fill="#292929"/>
<path d="M12.1081 34.5946H10.3784V36.3243H12.1081V34.5946Z" fill="#292929"/>
<path d="M17.2973 34.5946H15.5676V36.3243H17.2973V34.5946Z" fill="#292929"/>
<path d="M20.7568 34.5946H19.027V36.3243H20.7568V34.5946Z" fill="#292929"/>
<path d="M22.4865 34.5946H20.7568V36.3243H22.4865V34.5946Z" fill="#292929"/>
<path d="M24.2162 34.5946H22.4865V36.3243H24.2162V34.5946Z" fill="#292929"/>
<path d="M29.4054 34.5946H27.6757V36.3243H29.4054V34.5946Z" fill="#292929"/>
<path d="M32.8649 34.5946H31.1351V36.3243H32.8649V34.5946Z" fill="#292929"/>
<path d="M36.3243 34.5946H34.5946V36.3243H36.3243V34.5946Z" fill="#292929"/>
<path d="M38.0541 34.5946H36.3243V36.3243H38.0541V34.5946Z" fill="#292929"/>
<path d="M39.7838 34.5946H38.0541V36.3243H39.7838V34.5946Z" fill="#292929"/>
<path d="M44.973 34.5946H43.2432V36.3243H44.973V34.5946Z" fill="#292929"/>
<path d="M48.4324 34.5946H46.7027V36.3243H48.4324V34.5946Z" fill="#292929"/>
<path d="M51.8919 34.5946H50.1622V36.3243H51.8919V34.5946Z" fill="#292929"/>
<path d="M53.6216 34.5946H51.8919V36.3243H53.6216V34.5946Z" fill="#292929"/>
<path d="M55.3514 34.5946H53.6216V36.3243H55.3514V34.5946Z" fill="#292929"/>
<path d="M57.0811 34.5946H55.3514V36.3243H57.0811V34.5946Z" fill="#292929"/>
<path d="M60.5405 34.5946H58.8108V36.3243H60.5405V34.5946Z" fill="#292929"/>
<path d="M1.72973 36.3243H0V38.0541H1.72973V36.3243Z" fill="#292929"/>
<path d="M5.18919 36.3243H3.45946V38.0541H5.18919V36.3243Z" fill="#292929"/>
<path d="M10.3784 36.3243H8.64865V38.0541H10.3784V36.3243Z" fill="#292929"/>
<path d="M13.8378 36.3243H12.1081V38.0541H13.8378V36.3243Z" fill="#292929"/>
<path d="M17.2973 36.3243H15.5676V38.0541H17.2973V36.3243Z" fill="#292929"/>
<path d="M19.027 36.3243H17.2973V38.0541H19.027V36.3243Z" fill="#292929"/>
<path d="M20.7568 36.3243H19.027V38.0541H20.7568V36.3243Z" fill="#292929"/>
<path d="M24.2162 36.3243H22.4865L22.4865 38.0541H24.2162V36.3243Z" fill="#292929"/>
<path d="M25.9459 36.3243H24.2162V38.0541H25.9459V36.3243Z" fill="#292929"/>
<path d="M27.6757 36.3243H25.9459V38.0541H27.6757L27.6757 36.3243Z" fill="#292929"/>
<path d="M34.5946 36.3243H32.8649V38.0541H34.5946V36.3243Z" fill="#292929"/>
<path d="M38.0541 36.3243H36.3243V38.0541H38.0541V36.3243Z" fill="#292929"/>
<path d="M39.7838 36.3243H38.0541V38.0541H39.7838V36.3243Z" fill="#292929"/>
<path d="M41.5135 36.3243H39.7838V38.0541H41.5135V36.3243Z" fill="#292929"/>
<path d="M43.2432 36.3243H41.5135V38.0541H43.2432V36.3243Z" fill="#292929"/>
<path d="M44.973 36.3243H43.2432V38.0541H44.973V36.3243Z" fill="#292929"/>
<path d="M48.4324 36.3243H46.7027V38.0541H48.4324V36.3243Z" fill="#292929"/>
<path d="M57.0811 36.3243H55.3514V38.0541H57.0811V36.3243Z" fill="#292929"/>
<path d="M58.8108 36.3243H57.0811V38.0541H58.8108V36.3243Z" fill="#292929"/>
<path d="M60.5405 36.3243H58.8108V38.0541H60.5405V36.3243Z" fill="#292929"/>
<path d="M62.2703 36.3243H60.5405V38.0541H62.2703V36.3243Z" fill="#292929"/>
<path d="M5.18919 38.0541H3.45946V39.7838H5.18919V38.0541Z" fill="#292929"/>
<path d="M6.91892 38.0541H5.18919V39.7838H6.91892V38.0541Z" fill="#292929"/>
<path d="M8.64865 38.0541H6.91892V39.7838H8.64865V38.0541Z" fill="#292929"/>
<path d="M12.1081 38.0541H10.3784V39.7838H12.1081V38.0541Z" fill="#292929"/>
<path d="M15.5676 38.0541H13.8378V39.7838H15.5676V38.0541Z" fill="#292929"/>
<path d="M19.027 38.0541H17.2973V39.7838H19.027V38.0541Z" fill="#292929"/>
<path d="M22.4865 38.0541H20.7568L20.7568 39.7838H22.4865L22.4865 38.0541Z" fill="#292929"/>
<path d="M27.6757 38.0541H25.9459L25.9459 39.7838H27.6757V38.0541Z" fill="#292929"/>
<path d="M29.4054 38.0541H27.6757V39.7838H29.4054V38.0541Z" fill="#292929"/>
<path d="M31.1351 38.0541H29.4054V39.7838H31.1351V38.0541Z" fill="#292929"/>
<path d="M32.8649 38.0541H31.1351V39.7838H32.8649V38.0541Z" fill="#292929"/>
<path d="M34.5946 38.0541H32.8649V39.7838H34.5946V38.0541Z" fill="#292929"/>
<path d="M36.3243 38.0541H34.5946V39.7838H36.3243V38.0541Z" fill="#292929"/>
<path d="M38.0541 38.0541H36.3243V39.7838H38.0541V38.0541Z" fill="#292929"/>
<path d="M39.7838 38.0541H38.0541V39.7838H39.7838V38.0541Z" fill="#292929"/>
<path d="M50.1622 38.0541H48.4324V39.7838H50.1622V38.0541Z" fill="#292929"/>
<path d="M53.6216 38.0541H51.8919V39.7838H53.6216V38.0541Z" fill="#292929"/>
<path d="M57.0811 38.0541H55.3514V39.7838H57.0811V38.0541Z" fill="#292929"/>
<path d="M60.5405 38.0541H58.8108V39.7838H60.5405V38.0541Z" fill="#292929"/>
<path d="M62.2703 38.0541H60.5405V39.7838H62.2703V38.0541Z" fill="#292929"/>
<path d="M1.72973 39.7838H0V41.5135H1.72973V39.7838Z" fill="#292929"/>
<path d="M8.64865 39.7838H6.91892V41.5135H8.64865V39.7838Z" fill="#292929"/>
<path d="M13.8378 39.7838H12.1081V41.5135H13.8378V39.7838Z" fill="#292929"/>
<path d="M15.5676 39.7838H13.8378V41.5135H15.5676V39.7838Z" fill="#292929"/>
<path d="M17.2973 39.7838H15.5676V41.5135H17.2973V39.7838Z" fill="#292929"/>
<path d="M24.2162 39.7838H22.4865L22.4865 41.5135H24.2162V39.7838Z" fill="#292929"/>
<path d="M29.4054 39.7838H27.6757L27.6757 41.5135H29.4054V39.7838Z" fill="#292929"/>
<path d="M31.1351 39.7838H29.4054V41.5135H31.1351V39.7838Z" fill="#292929"/>
<path d="M34.5946 39.7838H32.8649V41.5135H34.5946V39.7838Z" fill="#292929"/>
<path d="M38.0541 39.7838H36.3243V41.5135H38.0541V39.7838Z" fill="#292929"/>
<path d="M41.5135 39.7838H39.7838V41.5135H41.5135V39.7838Z" fill="#292929"/>
<path d="M43.2432 39.7838H41.5135V41.5135H43.2432V39.7838Z" fill="#292929"/>
<path d="M44.973 39.7838H43.2432V41.5135H44.973V39.7838Z" fill="#292929"/>
<path d="M48.4324 39.7838H46.7027V41.5135H48.4324V39.7838Z" fill="#292929"/>
<path d="M51.8919 39.7838H50.1622V41.5135H51.8919V39.7838Z" fill="#292929"/>
<path d="M55.3514 39.7838H53.6216V41.5135H55.3514V39.7838Z" fill="#292929"/>
<path d="M58.8108 39.7838H57.0811V41.5135H58.8108V39.7838Z" fill="#292929"/>
<path d="M3.45946 41.5135H1.72973V43.2432H3.45946V41.5135Z" fill="#292929"/>
<path d="M12.1081 41.5135H10.3784V43.2432H12.1081V41.5135Z" fill="#292929"/>
<path d="M22.4865 41.5135H20.7568V43.2432H22.4865L22.4865 41.5135Z" fill="#292929"/>
<path d="M24.2162 41.5135H22.4865L22.4865 43.2432H24.2162V41.5135Z" fill="#292929"/>
<path d="M34.5946 41.5135H32.8649V43.2432H34.5946V41.5135Z" fill="#292929"/>
<path d="M36.3243 41.5135H34.5946V43.2432H36.3243V41.5135Z" fill="#292929"/>
<path d="M50.1622 41.5135H48.4324V43.2432H50.1622V41.5135Z" fill="#292929"/>
<path d="M55.3514 41.5135H53.6216V43.2432H55.3514V41.5135Z" fill="#292929"/>
<path d="M57.0811 41.5135H55.3514V43.2432H57.0811V41.5135Z" fill="#292929"/>
<path d="M62.2703 41.5135H60.5405V43.2432H62.2703V41.5135Z" fill="#292929"/>
<path d="M64 41.5135H62.2703V43.2432H64V41.5135Z" fill="#292929"/>
<path d="M1.72973 43.2432H0V44.973H1.72973V43.2432Z" fill="#292929"/>
<path d="M3.45946 43.2432H1.72973V44.973H3.45946V43.2432Z" fill="#292929"/>
<path d="M6.91892 43.2432H5.18919V44.973H6.91892V43.2432Z" fill="#292929"/>
<path d="M8.64865 43.2432H6.91892V44.973H8.64865V43.2432Z" fill="#292929"/>
<path d="M15.5676 43.2432H13.8378V44.973H15.5676V43.2432Z" fill="#292929"/>
<path d="M19.027 43.2432H17.2973V44.973H19.027V43.2432Z" fill="#292929"/>
<path d="M22.4865 43.2432H20.7568V44.973H22.4865V43.2432Z" fill="#292929"/>
<path d="M29.4054 43.2432H27.6757V44.973H29.4054V43.2432Z" fill="#292929"/>
<path d="M31.1351 43.2432H29.4054V44.973H31.1351V43.2432Z" fill="#292929"/>
<path d="M36.3243 43.2432H34.5946V44.973H36.3243V43.2432Z" fill="#292929"/>
<path d="M39.7838 43.2432H38.0541V44.973H39.7838V43.2432Z" fill="#292929"/>
<path d="M43.2432 43.2432H41.5135V44.973H43.2432V43.2432Z" fill="#292929"/>
<path d="M50.1622 43.2432H48.4324V44.973H50.1622V43.2432Z" fill="#292929"/>
<path d="M51.8919 43.2432H50.1622V44.973H51.8919V43.2432Z" fill="#292929"/>
<path d="M57.0811 43.2432H55.3514V44.973H57.0811V43.2432Z" fill="#292929"/>
<path d="M58.8108 43.2432H57.0811V44.973H58.8108V43.2432Z" fill="#292929"/>
<path d="M60.5405 43.2432H58.8108V44.973H60.5405V43.2432Z" fill="#292929"/>
<path d="M64 43.2432H62.2703V44.973H64V43.2432Z" fill="#292929"/>
<path d="M3.45946 44.973H1.72973V46.7027H3.45946V44.973Z" fill="#292929"/>
<path d="M5.18919 44.973H3.45946V46.7027H5.18919V44.973Z" fill="#292929"/>
<path d="M6.91892 44.973H5.18919V46.7027H6.91892V44.973Z" fill="#292929"/>
<path d="M12.1081 44.973H10.3784V46.7027H12.1081V44.973Z" fill="#292929"/>
<path d="M15.5676 44.973H13.8378V46.7027H15.5676V44.973Z" fill="#292929"/>
<path d="M17.2973 44.973H15.5676V46.7027H17.2973V44.973Z" fill="#292929"/>
<path d="M19.027 44.973H17.2973V46.7027H19.027V44.973Z" fill="#292929"/>
<path d="M20.7568 44.973H19.027V46.7027H20.7568L20.7568 44.973Z" fill="#292929"/>
<path d="M22.4865 44.973H20.7568L20.7568 46.7027H22.4865V44.973Z" fill="#292929"/>
<path d="M25.9459 44.973H24.2162V46.7027H25.9459V44.973Z" fill="#292929"/>
<path d="M29.4054 44.973H27.6757V46.7027H29.4054V44.973Z" fill="#292929"/>
<path d="M31.1351 44.973H29.4054V46.7027H31.1351V44.973Z" fill="#292929"/>
<path d="M32.8649 44.973H31.1351V46.7027H32.8649V44.973Z" fill="#292929"/>
<path d="M36.3243 44.973H34.5946V46.7027H36.3243V44.973Z" fill="#292929"/>
<path d="M43.2432 44.973H41.5135V46.7027H43.2432V44.973Z" fill="#292929"/>
<path d="M46.7027 44.973H44.973V46.7027H46.7027V44.973Z" fill="#292929"/>
<path d="M48.4324 44.973H46.7027V46.7027H48.4324V44.973Z" fill="#292929"/>
<path d="M55.3514 44.973H53.6216V46.7027H55.3514V44.973Z" fill="#292929"/>
<path d="M57.0811 44.973H55.3514V46.7027H57.0811V44.973Z" fill="#292929"/>
<path d="M58.8108 44.973H57.0811V46.7027H58.8108V44.973Z" fill="#292929"/>
<path d="M60.5405 44.973H58.8108V46.7027H60.5405V44.973Z" fill="#292929"/>
<path d="M64 44.973H62.2703V46.7027H64V44.973Z" fill="#292929"/>
<path d="M3.45946 46.7027H1.72973V48.4324H3.45946V46.7027Z" fill="#292929"/>
<path d="M10.3784 46.7027H8.64865V48.4324H10.3784V46.7027Z" fill="#292929"/>
<path d="M19.027 46.7027H17.2973V48.4324H19.027V46.7027Z" fill="#292929"/>
<path d="M20.7568 46.7027H19.027V48.4324H20.7568V46.7027Z" fill="#292929"/>
<path d="M25.9459 46.7027H24.2162V48.4324H25.9459V46.7027Z" fill="#292929"/>
<path d="M29.4054 46.7027H27.6757V48.4324H29.4054V46.7027Z" fill="#292929"/>
<path d="M32.8649 46.7027H31.1351L31.1351 48.4324H32.8649V46.7027Z" fill="#292929"/>
<path d="M34.5946 46.7027H32.8649V48.4324H34.5946V46.7027Z" fill="#292929"/>
<path d="M39.7838 46.7027H38.0541V48.4324H39.7838V46.7027Z" fill="#292929"/>
<path d="M46.7027 46.7027H44.973V48.4324H46.7027V46.7027Z" fill="#292929"/>
<path d="M50.1622 46.7027H48.4324V48.4324H50.1622V46.7027Z" fill="#292929"/>
<path d="M51.8919 46.7027H50.1622V48.4324H51.8919V46.7027Z" fill="#292929"/>
<path d="M55.3514 46.7027H53.6216V48.4324H55.3514V46.7027Z" fill="#292929"/>
<path d="M57.0811 46.7027H55.3514V48.4324H57.0811V46.7027Z" fill="#292929"/>
<path d="M60.5405 46.7027H58.8108V48.4324H60.5405V46.7027Z" fill="#292929"/>
<path d="M62.2703 46.7027H60.5405V48.4324H62.2703V46.7027Z" fill="#292929"/>
<path d="M1.72973 48.4324H0V50.1622H1.72973V48.4324Z" fill="#292929"/>
<path d="M5.18919 48.4324H3.45946V50.1622H5.18919V48.4324Z" fill="#292929"/>
<path d="M8.64865 48.4324H6.91892V50.1622H8.64865V48.4324Z" fill="#292929"/>
<path d="M10.3784 48.4324H8.64865V50.1622H10.3784V48.4324Z" fill="#292929"/>
<path d="M12.1081 48.4324H10.3784V50.1622H12.1081V48.4324Z" fill="#292929"/>
<path d="M13.8378 48.4324H12.1081V50.1622H13.8378V48.4324Z" fill="#292929"/>
<path d="M17.2973 48.4324H15.5676V50.1622H17.2973V48.4324Z" fill="#292929"/>
<path d="M19.027 48.4324H17.2973V50.1622H19.027V48.4324Z" fill="#292929"/>
<path d="M24.2162 48.4324H22.4865V50.1622H24.2162V48.4324Z" fill="#292929"/>
<path d="M25.9459 48.4324H24.2162V50.1622H25.9459V48.4324Z" fill="#292929"/>
<path d="M27.6757 48.4324H25.9459V50.1622H27.6757L27.6757 48.4324Z" fill="#292929"/>
<path d="M31.1351 48.4324H29.4054L29.4054 50.1622H31.1351L31.1351 48.4324Z" fill="#292929"/>
<path d="M38.0541 48.4324H36.3243V50.1622H38.0541V48.4324Z" fill="#292929"/>
<path d="M41.5135 48.4324H39.7838V50.1622H41.5135V48.4324Z" fill="#292929"/>
<path d="M44.973 48.4324H43.2432V50.1622H44.973V48.4324Z" fill="#292929"/>
<path d="M46.7027 48.4324H44.973V50.1622H46.7027V48.4324Z" fill="#292929"/>
<path d="M50.1622 48.4324H48.4324V50.1622H50.1622V48.4324Z" fill="#292929"/>
<path d="M51.8919 48.4324H50.1622V50.1622H51.8919V48.4324Z" fill="#292929"/>
<path d="M53.6216 48.4324H51.8919V50.1622H53.6216V48.4324Z" fill="#292929"/>
<path d="M55.3514 48.4324H53.6216V50.1622H55.3514V48.4324Z" fill="#292929"/>
<path d="M57.0811 48.4324H55.3514V50.1622H57.0811V48.4324Z" fill="#292929"/>
<path d="M60.5405 48.4324H58.8108V50.1622H60.5405V48.4324Z" fill="#292929"/>
<path d="M62.2703 48.4324H60.5405V50.1622H62.2703V48.4324Z" fill="#292929"/>
<path d="M22.4865 50.1622H20.7568V51.8919H22.4865L22.4865 50.1622Z" fill="#292929"/>
<path d="M25.9459 50.1622H24.2162V51.8919H25.9459V50.1622Z" fill="#292929"/>
<path d="M27.6757 50.1622H25.9459V51.8919H27.6757V50.1622Z" fill="#292929"/>
<path d="M29.4054 50.1622H27.6757V51.8919H29.4054L29.4054 50.1622Z" fill="#292929"/>
<path d="M31.1351 50.1622H29.4054L29.4054 51.8919H31.1351V50.1622Z" fill="#292929"/>
<path d="M32.8649 50.1622H31.1351V51.8919H32.8649V50.1622Z" fill="#292929"/>
<path d="M36.3243 50.1622H34.5946V51.8919H36.3243V50.1622Z" fill="#292929"/>
<path d="M39.7838 50.1622H38.0541V51.8919H39.7838V50.1622Z" fill="#292929"/>
<path d="M48.4324 50.1622H46.7027V51.8919H48.4324V50.1622Z" fill="#292929"/>
<path d="M50.1622 50.1622H48.4324V51.8919H50.1622V50.1622Z" fill="#292929"/>
<path d="M57.0811 50.1622H55.3514V51.8919H57.0811V50.1622Z" fill="#292929"/>
<path d="M58.8108 50.1622H57.0811V51.8919H58.8108V50.1622Z" fill="#292929"/>
<path d="M60.5405 50.1622H58.8108V51.8919H60.5405V50.1622Z" fill="#292929"/>
<path d="M62.2703 50.1622H60.5405V51.8919H62.2703V50.1622Z" fill="#292929"/>
<path d="M1.72973 51.8919H0V53.6216H1.72973V51.8919Z" fill="#292929"/>
<path d="M3.45946 51.8919H1.72973V53.6216H3.45946V51.8919Z" fill="#292929"/>
<path d="M5.18919 51.8919H3.45946V53.6216H5.18919V51.8919Z" fill="#292929"/>
<path d="M6.91892 51.8919H5.18919V53.6216H6.91892V51.8919Z" fill="#292929"/>
<path d="M8.64865 51.8919H6.91892V53.6216H8.64865V51.8919Z" fill="#292929"/>
<path d="M10.3784 51.8919H8.64865V53.6216H10.3784V51.8919Z" fill="#292929"/>
<path d="M12.1081 51.8919H10.3784V53.6216H12.1081V51.8919Z" fill="#292929"/>
<path d="M15.5676 51.8919H13.8378V53.6216H15.5676V51.8919Z" fill="#292929"/>
<path d="M19.027 51.8919H17.2973V53.6216H19.027V51.8919Z" fill="#292929"/>
<path d="M20.7568 51.8919H19.027V53.6216H20.7568L20.7568 51.8919Z" fill="#292929"/>
<path d="M22.4865 51.8919H20.7568L20.7568 53.6216H22.4865V51.8919Z" fill="#292929"/>
<path d="M27.6757 51.8919H25.9459L25.9459 53.6216H27.6757V51.8919Z" fill="#292929"/>
<path d="M29.4054 51.8919H27.6757V53.6216H29.4054V51.8919Z" fill="#292929"/>
<path d="M34.5946 51.8919H32.8649V53.6216H34.5946V51.8919Z" fill="#292929"/>
<path d="M36.3243 51.8919H34.5946V53.6216H36.3243V51.8919Z" fill="#292929"/>
<path d="M39.7838 51.8919H38.0541V53.6216H39.7838V51.8919Z" fill="#292929"/>
<path d="M41.5135 51.8919H39.7838V53.6216H41.5135V51.8919Z" fill="#292929"/>
<path d="M43.2432 51.8919H41.5135V53.6216H43.2432V51.8919Z" fill="#292929"/>
<path d="M46.7027 51.8919H44.973V53.6216H46.7027V51.8919Z" fill="#292929"/>
<path d="M48.4324 51.8919H46.7027V53.6216H48.4324V51.8919Z" fill="#292929"/>
<path d="M50.1622 51.8919H48.4324V53.6216H50.1622V51.8919Z" fill="#292929"/>
<path d="M53.6216 51.8919H51.8919V53.6216H53.6216V51.8919Z" fill="#292929"/>
<path d="M57.0811 51.8919H55.3514V53.6216H57.0811V51.8919Z" fill="#292929"/>
<path d="M58.8108 51.8919H57.0811V53.6216H58.8108V51.8919Z" fill="#292929"/>
<path d="M1.72973 53.6216H0V55.3514H1.72973V53.6216Z" fill="#292929"/>
<path d="M12.1081 53.6216H10.3784V55.3514H12.1081V53.6216Z" fill="#292929"/>
<path d="M15.5676 53.6216H13.8378V55.3514H15.5676V53.6216Z" fill="#292929"/>
<path d="M17.2973 53.6216H15.5676V55.3514H17.2973V53.6216Z" fill="#292929"/>
<path d="M22.4865 53.6216H20.7568L20.7568 55.3514H22.4865V53.6216Z" fill="#292929"/>
<path d="M24.2162 53.6216H22.4865V55.3514H24.2162V53.6216Z" fill="#292929"/>
<path d="M25.9459 53.6216H24.2162V55.3514H25.9459L25.9459 53.6216Z" fill="#292929"/>
<path d="M27.6757 53.6216H25.9459L25.9459 55.3514H27.6757V53.6216Z" fill="#292929"/>
<path d="M31.1351 53.6216H29.4054L29.4054 55.3514H31.1351V53.6216Z" fill="#292929"/>
<path d="M34.5946 53.6216H32.8649V55.3514H34.5946V53.6216Z" fill="#292929"/>
<path d="M39.7838 53.6216H38.0541V55.3514H39.7838V53.6216Z" fill="#292929"/>
<path d="M41.5135 53.6216H39.7838V55.3514H41.5135V53.6216Z" fill="#292929"/>
<path d="M43.2432 53.6216H41.5135V55.3514H43.2432V53.6216Z" fill="#292929"/>
<path d="M44.973 53.6216H43.2432V55.3514H44.973V53.6216Z" fill="#292929"/>
<path d="M48.4324 53.6216H46.7027V55.3514H48.4324V53.6216Z" fill="#292929"/>
<path d="M50.1622 53.6216H48.4324V55.3514H50.1622V53.6216Z" fill="#292929"/>
<path d="M57.0811 53.6216H55.3514V55.3514H57.0811V53.6216Z" fill="#292929"/>
<path d="M1.72973 55.3514H0V57.0811H1.72973V55.3514Z" fill="#292929"/>
<path d="M5.18919 55.3514H3.45946V57.0811H5.18919V55.3514Z" fill="#292929"/>
<path d="M6.91892 55.3514H5.18919V57.0811H6.91892V55.3514Z" fill="#292929"/>
<path d="M8.64865 55.3514H6.91892V57.0811H8.64865V55.3514Z" fill="#292929"/>
<path d="M12.1081 55.3514H10.3784V57.0811H12.1081V55.3514Z" fill="#292929"/>
<path d="M15.5676 55.3514H13.8378V57.0811H15.5676V55.3514Z" fill="#292929"/>
<path d="M20.7568 55.3514H19.027V57.0811H20.7568L20.7568 55.3514Z" fill="#292929"/>
<path d="M22.4865 55.3514H20.7568L20.7568 57.0811H22.4865V55.3514Z" fill="#292929"/>
<path d="M25.9459 55.3514H24.2162V57.0811H25.9459V55.3514Z" fill="#292929"/>
<path d="M27.6757 55.3514H25.9459V57.0811H27.6757V55.3514Z" fill="#292929"/>
<path d="M29.4054 55.3514H27.6757V57.0811H29.4054L29.4054 55.3514Z" fill="#292929"/>
<path d="M32.8649 55.3514H31.1351L31.1351 57.0811H32.8649V55.3514Z" fill="#292929"/>
<path d="M36.3243 55.3514H34.5946V57.0811H36.3243V55.3514Z" fill="#292929"/>
<path d="M39.7838 55.3514H38.0541V57.0811H39.7838V55.3514Z" fill="#292929"/>
<path d="M41.5135 55.3514H39.7838V57.0811H41.5135V55.3514Z" fill="#292929"/>
<path d="M43.2432 55.3514H41.5135V57.0811H43.2432V55.3514Z" fill="#292929"/>
<path d="M46.7027 55.3514H44.973V57.0811H46.7027V55.3514Z" fill="#292929"/>
<path d="M48.4324 55.3514H46.7027V57.0811H48.4324V55.3514Z" fill="#292929"/>
<path d="M50.1622 55.3514H48.4324V57.0811H50.1622V55.3514Z" fill="#292929"/>
<path d="M51.8919 55.3514H50.1622V57.0811H51.8919V55.3514Z" fill="#292929"/>
<path d="M53.6216 55.3514H51.8919V57.0811H53.6216V55.3514Z" fill="#292929"/>
<path d="M55.3514 55.3514H53.6216V57.0811H55.3514V55.3514Z" fill="#292929"/>
<path d="M57.0811 55.3514H55.3514V57.0811H57.0811V55.3514Z" fill="#292929"/>
<path d="M58.8108 55.3514H57.0811V57.0811H58.8108V55.3514Z" fill="#292929"/>
<path d="M62.2703 55.3514H60.5405V57.0811H62.2703V55.3514Z" fill="#292929"/>
<path d="M64 55.3514H62.2703V57.0811H64V55.3514Z" fill="#292929"/>
<path d="M1.72973 57.0811H0V58.8108H1.72973V57.0811Z" fill="#292929"/>
<path d="M5.18919 57.0811H3.45946V58.8108H5.18919V57.0811Z" fill="#292929"/>
<path d="M6.91892 57.0811H5.18919V58.8108H6.91892V57.0811Z" fill="#292929"/>
<path d="M8.64865 57.0811H6.91892V58.8108H8.64865V57.0811Z" fill="#292929"/>
<path d="M12.1081 57.0811H10.3784V58.8108H12.1081V57.0811Z" fill="#292929"/>
<path d="M15.5676 57.0811H13.8378V58.8108H15.5676V57.0811Z" fill="#292929"/>
<path d="M19.027 57.0811H17.2973V58.8108H19.027V57.0811Z" fill="#292929"/>
<path d="M20.7568 57.0811H19.027V58.8108H20.7568V57.0811Z" fill="#292929"/>
<path d="M25.9459 57.0811H24.2162V58.8108H25.9459V57.0811Z" fill="#292929"/>
<path d="M38.0541 57.0811H36.3243V58.8108H38.0541V57.0811Z" fill="#292929"/>
<path d="M39.7838 57.0811H38.0541V58.8108H39.7838V57.0811Z" fill="#292929"/>
<path d="M46.7027 57.0811H44.973V58.8108H46.7027V57.0811Z" fill="#292929"/>
<path d="M50.1622 57.0811H48.4324V58.8108H50.1622V57.0811Z" fill="#292929"/>
<path d="M51.8919 57.0811H50.1622V58.8108H51.8919V57.0811Z" fill="#292929"/>
<path d="M55.3514 57.0811H53.6216V58.8108H55.3514V57.0811Z" fill="#292929"/>
<path d="M60.5405 57.0811H58.8108V58.8108H60.5405V57.0811Z" fill="#292929"/>
<path d="M62.2703 57.0811H60.5405V58.8108H62.2703V57.0811Z" fill="#292929"/>
<path d="M64 57.0811H62.2703V58.8108H64V57.0811Z" fill="#292929"/>
<path d="M1.72973 58.8108H0V60.5405H1.72973V58.8108Z" fill="#292929"/>
<path d="M5.18919 58.8108H3.45946V60.5405H5.18919V58.8108Z" fill="#292929"/>
<path d="M6.91892 58.8108H5.18919V60.5405H6.91892V58.8108Z" fill="#292929"/>
<path d="M8.64865 58.8108H6.91892V60.5405H8.64865V58.8108Z" fill="#292929"/>
<path d="M12.1081 58.8108H10.3784V60.5405H12.1081V58.8108Z" fill="#292929"/>
<path d="M15.5676 58.8108H13.8378V60.5405H15.5676V58.8108Z" fill="#292929"/>
<path d="M22.4865 58.8108H20.7568L20.7568 60.5405H22.4865V58.8108Z" fill="#292929"/>
<path d="M29.4054 58.8108H27.6757V60.5405H29.4054V58.8108Z" fill="#292929"/>
<path d="M31.1351 58.8108H29.4054V60.5405H31.1351V58.8108Z" fill="#292929"/>
<path d="M36.3243 58.8108H34.5946V60.5405H36.3243V58.8108Z" fill="#292929"/>
<path d="M43.2432 58.8108H41.5135V60.5405H43.2432V58.8108Z" fill="#292929"/>
<path d="M46.7027 58.8108H44.973V60.5405H46.7027V58.8108Z" fill="#292929"/>
<path d="M50.1622 58.8108H48.4324V60.5405H50.1622V58.8108Z" fill="#292929"/>
<path d="M53.6216 58.8108H51.8919V60.5405H53.6216V58.8108Z" fill="#292929"/>
<path d="M57.0811 58.8108H55.3514V60.5405H57.0811V58.8108Z" fill="#292929"/>
<path d="M58.8108 58.8108H57.0811V60.5405H58.8108V58.8108Z" fill="#292929"/>
<path d="M60.5405 58.8108H58.8108V60.5405H60.5405V58.8108Z" fill="#292929"/>
<path d="M64 58.8108H62.2703V60.5405H64V58.8108Z" fill="#292929"/>
<path d="M1.72973 60.5405H0V62.2703H1.72973V60.5405Z" fill="#292929"/>
<path d="M12.1081 60.5405H10.3784V62.2703H12.1081V60.5405Z" fill="#292929"/>
<path d="M17.2973 60.5405H15.5676V62.2703H17.2973V60.5405Z" fill="#292929"/>
<path d="M19.027 60.5405H17.2973V62.2703H19.027V60.5405Z" fill="#292929"/>
<path d="M22.4865 60.5405H20.7568V62.2703H22.4865V60.5405Z" fill="#292929"/>
<path d="M25.9459 60.5405H24.2162V62.2703H25.9459V60.5405Z" fill="#292929"/>
<path d="M27.6757 60.5405H25.9459V62.2703H27.6757L27.6757 60.5405Z" fill="#292929"/>
<path d="M31.1351 60.5405H29.4054L29.4054 62.2703H31.1351V60.5405Z" fill="#292929"/>
<path d="M32.8649 60.5405H31.1351V62.2703H32.8649V60.5405Z" fill="#292929"/>
<path d="M39.7838 60.5405H38.0541V62.2703H39.7838V60.5405Z" fill="#292929"/>
<path d="M41.5135 60.5405H39.7838V62.2703H41.5135V60.5405Z" fill="#292929"/>
<path d="M43.2432 60.5405H41.5135V62.2703H43.2432V60.5405Z" fill="#292929"/>
<path d="M46.7027 60.5405H44.973V62.2703H46.7027V60.5405Z" fill="#292929"/>
<path d="M50.1622 60.5405H48.4324V62.2703H50.1622V60.5405Z" fill="#292929"/>
<path d="M51.8919 60.5405H50.1622V62.2703H51.8919V60.5405Z" fill="#292929"/>
<path d="M55.3514 60.5405H53.6216V62.2703H55.3514V60.5405Z" fill="#292929"/>
<path d="M60.5405 60.5405H58.8108V62.2703H60.5405V60.5405Z" fill="#292929"/>
<path d="M64 60.5405H62.2703V62.2703H64V60.5405Z" fill="#292929"/>
<path d="M1.72973 62.2703H0V64H1.72973V62.2703Z" fill="#292929"/>
<path d="M3.45946 62.2703H1.72973V64H3.45946V62.2703Z" fill="#292929"/>
<path d="M5.18919 62.2703H3.45946V64H5.18919V62.2703Z" fill="#292929"/>
<path d="M6.91892 62.2703H5.18919V64H6.91892V62.2703Z" fill="#292929"/>
<path d="M8.64865 62.2703H6.91892V64H8.64865V62.2703Z" fill="#292929"/>
<path d="M10.3784 62.2703H8.64865V64H10.3784V62.2703Z" fill="#292929"/>
<path d="M12.1081 62.2703H10.3784V64H12.1081V62.2703Z" fill="#292929"/>
<path d="M19.027 62.2703H17.2973V64H19.027V62.2703Z" fill="#292929"/>
<path d="M20.7568 62.2703H19.027V64H20.7568L20.7568 62.2703Z" fill="#292929"/>
<path d="M22.4865 62.2703H20.7568L20.7568 64H22.4865V62.2703Z" fill="#292929"/>
<path d="M25.9459 62.2703H24.2162V64H25.9459V62.2703Z" fill="#292929"/>
<path d="M27.6757 62.2703H25.9459V64H27.6757V62.2703Z" fill="#292929"/>
<path d="M32.8649 62.2703H31.1351L31.1351 64H32.8649V62.2703Z" fill="#292929"/>
<path d="M34.5946 62.2703H32.8649V64H34.5946V62.2703Z" fill="#292929"/>
<path d="M39.7838 62.2703H38.0541V64H39.7838V62.2703Z" fill="#292929"/>
<path d="M46.7027 62.2703H44.973V64H46.7027V62.2703Z" fill="#292929"/>
<path d="M50.1622 62.2703H48.4324V64H50.1622V62.2703Z" fill="#292929"/>
<path d="M53.6216 62.2703H51.8919V64H53.6216V62.2703Z" fill="#292929"/>
<path d="M57.0811 62.2703H55.3514V64H57.0811V62.2703Z" fill="#292929"/>
<path d="M58.8108 62.2703H57.0811V64H58.8108V62.2703Z" fill="#292929"/>
<path d="M60.5405 62.2703H58.8108V64H60.5405V62.2703Z" fill="#292929"/>
<path d="M62.2703 62.2703H60.5405V64H62.2703V62.2703Z" fill="#292929"/>
<path d="M64 62.2703H62.2703V64H64V62.2703Z" fill="#292929"/>
<path d="M79.2822 3.04688V13H77.9834V3.04688H79.2822ZM82.4814 3.04688V4.12695H74.791V3.04688H82.4814ZM87.3486 11.7354V7.92773C87.3486 7.63607 87.2894 7.38314 87.1709 7.16895C87.057 6.9502 86.8838 6.78158 86.6514 6.66309C86.4189 6.5446 86.1318 6.48535 85.79 6.48535C85.471 6.48535 85.1908 6.54004 84.9492 6.64941C84.7122 6.75879 84.5254 6.90234 84.3887 7.08008C84.2565 7.25781 84.1904 7.44922 84.1904 7.6543H82.9258C82.9258 7.38997 82.9941 7.12793 83.1309 6.86816C83.2676 6.6084 83.4635 6.3737 83.7188 6.16406C83.9785 5.94987 84.2884 5.78125 84.6484 5.6582C85.013 5.5306 85.4186 5.4668 85.8652 5.4668C86.403 5.4668 86.877 5.55794 87.2871 5.74023C87.7018 5.92253 88.0254 6.19824 88.2578 6.56738C88.4948 6.93197 88.6133 7.38997 88.6133 7.94141V11.3867C88.6133 11.6328 88.6338 11.8949 88.6748 12.1729C88.7204 12.4508 88.7865 12.6901 88.873 12.8906V13H87.5537C87.4899 12.8542 87.4398 12.6605 87.4033 12.4189C87.3669 12.1729 87.3486 11.945 87.3486 11.7354ZM87.5674 8.51562L87.5811 9.4043H86.3027C85.9427 9.4043 85.6214 9.43392 85.3389 9.49316C85.0563 9.54785 84.8193 9.63216 84.6279 9.74609C84.4365 9.86003 84.2907 10.0036 84.1904 10.1768C84.0902 10.3454 84.04 10.5436 84.04 10.7715C84.04 11.0039 84.0924 11.2158 84.1973 11.4072C84.3021 11.5986 84.4593 11.7513 84.6689 11.8652C84.8831 11.9746 85.1452 12.0293 85.4551 12.0293C85.8424 12.0293 86.1842 11.9473 86.4805 11.7832C86.7767 11.6191 87.0114 11.4186 87.1846 11.1816C87.3623 10.9447 87.458 10.7145 87.4717 10.4912L88.0117 11.0996C87.9798 11.291 87.8932 11.5029 87.752 11.7354C87.6107 11.9678 87.4215 12.1911 87.1846 12.4053C86.9521 12.6149 86.6742 12.7904 86.3506 12.9316C86.0316 13.0684 85.6715 13.1367 85.2705 13.1367C84.7692 13.1367 84.3294 13.0387 83.9512 12.8428C83.5775 12.6468 83.2858 12.3848 83.0762 12.0566C82.8711 11.724 82.7686 11.3525 82.7686 10.9424C82.7686 10.5459 82.846 10.1973 83.001 9.89648C83.1559 9.59115 83.3792 9.33822 83.6709 9.1377C83.9626 8.93262 84.3135 8.77767 84.7236 8.67285C85.1338 8.56803 85.5918 8.51562 86.0977 8.51562H87.5674ZM86.4805 4.40039H85.5713L85.5645 3.36133C85.7969 3.34766 85.986 3.32487 86.1318 3.29297C86.2777 3.25651 86.3848 3.2041 86.4531 3.13574C86.5215 3.06283 86.5557 2.96712 86.5557 2.84863C86.5557 2.75293 86.526 2.67318 86.4668 2.60938C86.4076 2.54102 86.3255 2.48633 86.2207 2.44531C86.1159 2.39974 85.9951 2.36784 85.8584 2.34961C85.7217 2.33138 85.5758 2.32227 85.4209 2.32227L85.4688 1.59766C85.806 1.59766 86.1022 1.62728 86.3574 1.68652C86.6172 1.74577 86.8337 1.83236 87.0068 1.94629C87.1846 2.06022 87.3167 2.19694 87.4033 2.35645C87.4945 2.51139 87.54 2.68457 87.54 2.87598C87.54 3.22233 87.4307 3.47526 87.2119 3.63477C86.9932 3.78971 86.7516 3.88542 86.4873 3.92188L86.4805 4.40039ZM91.9766 5.60352V13H90.7051V5.60352H91.9766ZM90.6094 3.6416C90.6094 3.43652 90.6709 3.26335 90.7939 3.12207C90.9215 2.98079 91.1084 2.91016 91.3545 2.91016C91.596 2.91016 91.7806 2.98079 91.9082 3.12207C92.0404 3.26335 92.1064 3.43652 92.1064 3.6416C92.1064 3.83757 92.0404 4.00618 91.9082 4.14746C91.7806 4.28418 91.596 4.35254 91.3545 4.35254C91.1084 4.35254 90.9215 4.28418 90.7939 4.14746C90.6709 4.00618 90.6094 3.83757 90.6094 3.6416ZM104.404 5.00879H105.375C105.375 5.50553 105.309 5.92253 105.177 6.25977C105.049 6.59701 104.824 6.84993 104.5 7.01855C104.176 7.18717 103.721 7.27148 103.133 7.27148V6.49219C103.543 6.49219 103.837 6.44206 104.015 6.3418C104.192 6.23698 104.302 6.0752 104.343 5.85645C104.384 5.6377 104.404 5.35514 104.404 5.00879ZM102.005 11.291V5.60352H103.276V13H102.066L102.005 11.291ZM102.244 9.73242L102.771 9.71875C102.771 10.2109 102.718 10.6667 102.613 11.0859C102.513 11.5007 102.349 11.8607 102.121 12.166C101.893 12.4714 101.595 12.7106 101.226 12.8838C100.856 13.0524 100.408 13.1367 99.8789 13.1367C99.5189 13.1367 99.1885 13.0843 98.8877 12.9795C98.5915 12.8747 98.3363 12.7129 98.1221 12.4941C97.9079 12.2754 97.7415 11.9906 97.623 11.6396C97.5091 11.2887 97.4521 10.8672 97.4521 10.375V5.60352H98.7168V10.3887C98.7168 10.7214 98.7533 10.9971 98.8262 11.2158C98.9036 11.43 99.0062 11.6009 99.1338 11.7285C99.266 11.8516 99.4118 11.9382 99.5713 11.9883C99.7354 12.0384 99.904 12.0635 100.077 12.0635C100.615 12.0635 101.041 11.9609 101.355 11.7559C101.67 11.5462 101.896 11.266 102.032 10.915C102.174 10.5596 102.244 10.1654 102.244 9.73242ZM99.7832 4.65332L101.109 2.64355H102.634L100.802 4.65332H99.7832ZM107.412 7.18262V13H106.147V5.60352H107.344L107.412 7.18262ZM107.111 9.02148L106.585 9.00098C106.59 8.49512 106.665 8.02799 106.811 7.59961C106.956 7.16667 107.161 6.79069 107.426 6.47168C107.69 6.15267 108.005 5.90658 108.369 5.7334C108.738 5.55566 109.146 5.4668 109.593 5.4668C109.957 5.4668 110.285 5.51693 110.577 5.61719C110.869 5.71289 111.117 5.86784 111.322 6.08203C111.532 6.29622 111.691 6.57422 111.801 6.91602C111.91 7.25326 111.965 7.66569 111.965 8.15332V13H110.693V8.13965C110.693 7.75228 110.636 7.44238 110.522 7.20996C110.409 6.97298 110.242 6.80208 110.023 6.69727C109.805 6.58789 109.536 6.5332 109.217 6.5332C108.902 6.5332 108.615 6.59928 108.355 6.73145C108.1 6.86361 107.879 7.0459 107.692 7.27832C107.51 7.51074 107.367 7.77734 107.262 8.07812C107.161 8.37435 107.111 8.6888 107.111 9.02148ZM118.678 5.60352H119.826V12.8428C119.826 13.4945 119.694 14.0505 119.43 14.5107C119.165 14.971 118.796 15.3197 118.322 15.5566C117.853 15.7982 117.311 15.9189 116.695 15.9189C116.44 15.9189 116.139 15.8779 115.793 15.7959C115.451 15.7184 115.114 15.584 114.781 15.3926C114.453 15.2057 114.177 14.9528 113.954 14.6338L114.617 13.8818C114.927 14.2555 115.251 14.5153 115.588 14.6611C115.93 14.807 116.267 14.8799 116.6 14.8799C117.001 14.8799 117.347 14.8047 117.639 14.6543C117.93 14.5039 118.156 14.2806 118.315 13.9844C118.479 13.6927 118.562 13.3327 118.562 12.9043V7.23047L118.678 5.60352ZM113.585 9.38379V9.24023C113.585 8.67513 113.651 8.16243 113.783 7.70215C113.92 7.2373 114.114 6.83854 114.364 6.50586C114.619 6.17318 114.927 5.91797 115.287 5.74023C115.647 5.55794 116.053 5.4668 116.504 5.4668C116.969 5.4668 117.374 5.54883 117.721 5.71289C118.072 5.8724 118.368 6.1071 118.609 6.41699C118.855 6.72233 119.049 7.09147 119.19 7.52441C119.332 7.95736 119.43 8.44727 119.484 8.99414V9.62305C119.434 10.1654 119.336 10.653 119.19 11.0859C119.049 11.5189 118.855 11.888 118.609 12.1934C118.368 12.4987 118.072 12.7334 117.721 12.8975C117.37 13.057 116.96 13.1367 116.49 13.1367C116.048 13.1367 115.647 13.0433 115.287 12.8564C114.932 12.6696 114.626 12.4076 114.371 12.0703C114.116 11.7331 113.92 11.3366 113.783 10.8809C113.651 10.4206 113.585 9.92155 113.585 9.38379ZM114.85 9.24023V9.38379C114.85 9.75293 114.886 10.0993 114.959 10.4229C115.036 10.7464 115.153 11.0312 115.308 11.2773C115.467 11.5234 115.67 11.7171 115.916 11.8584C116.162 11.9951 116.456 12.0635 116.798 12.0635C117.217 12.0635 117.563 11.9746 117.837 11.7969C118.11 11.6191 118.327 11.3844 118.486 11.0928C118.65 10.8011 118.778 10.4844 118.869 10.1426V8.49512C118.819 8.24447 118.742 8.00293 118.637 7.77051C118.536 7.53353 118.404 7.32389 118.24 7.1416C118.081 6.95475 117.882 6.80664 117.646 6.69727C117.409 6.58789 117.131 6.5332 116.812 6.5332C116.465 6.5332 116.167 6.60612 115.916 6.75195C115.67 6.89323 115.467 7.08919 115.308 7.33984C115.153 7.58594 115.036 7.87305 114.959 8.20117C114.886 8.52474 114.85 8.87109 114.85 9.24023ZM129.882 11.5645V2.5H131.153V13H129.991L129.882 11.5645ZM124.905 9.38379V9.24023C124.905 8.67513 124.974 8.16243 125.11 7.70215C125.252 7.2373 125.45 6.83854 125.705 6.50586C125.965 6.17318 126.272 5.91797 126.628 5.74023C126.988 5.55794 127.389 5.4668 127.831 5.4668C128.296 5.4668 128.701 5.54883 129.048 5.71289C129.399 5.8724 129.695 6.1071 129.937 6.41699C130.183 6.72233 130.376 7.09147 130.518 7.52441C130.659 7.95736 130.757 8.44727 130.812 8.99414V9.62305C130.761 10.1654 130.663 10.653 130.518 11.0859C130.376 11.5189 130.183 11.888 129.937 12.1934C129.695 12.4987 129.399 12.7334 129.048 12.8975C128.697 13.057 128.287 13.1367 127.817 13.1367C127.384 13.1367 126.988 13.0433 126.628 12.8564C126.272 12.6696 125.965 12.4076 125.705 12.0703C125.45 11.7331 125.252 11.3366 125.11 10.8809C124.974 10.4206 124.905 9.92155 124.905 9.38379ZM126.177 9.24023V9.38379C126.177 9.75293 126.213 10.0993 126.286 10.4229C126.364 10.7464 126.482 11.0312 126.642 11.2773C126.801 11.5234 127.004 11.7171 127.25 11.8584C127.496 11.9951 127.79 12.0635 128.132 12.0635C128.551 12.0635 128.895 11.9746 129.164 11.7969C129.438 11.6191 129.656 11.3844 129.82 11.0928C129.984 10.8011 130.112 10.4844 130.203 10.1426V8.49512C130.148 8.24447 130.069 8.00293 129.964 7.77051C129.864 7.53353 129.731 7.32389 129.567 7.1416C129.408 6.95475 129.21 6.80664 128.973 6.69727C128.74 6.58789 128.465 6.5332 128.146 6.5332C127.799 6.5332 127.501 6.60612 127.25 6.75195C127.004 6.89323 126.801 7.08919 126.642 7.33984C126.482 7.58594 126.364 7.87305 126.286 8.20117C126.213 8.52474 126.177 8.87109 126.177 9.24023ZM137.647 11.291V5.60352H138.919V13H137.709L137.647 11.291ZM137.887 9.73242L138.413 9.71875C138.413 10.2109 138.361 10.6667 138.256 11.0859C138.156 11.5007 137.992 11.8607 137.764 12.166C137.536 12.4714 137.237 12.7106 136.868 12.8838C136.499 13.0524 136.05 13.1367 135.521 13.1367C135.161 13.1367 134.831 13.0843 134.53 12.9795C134.234 12.8747 133.979 12.7129 133.765 12.4941C133.55 12.2754 133.384 11.9906 133.266 11.6396C133.152 11.2887 133.095 10.8672 133.095 10.375V5.60352H134.359V10.3887C134.359 10.7214 134.396 10.9971 134.469 11.2158C134.546 11.43 134.649 11.6009 134.776 11.7285C134.909 11.8516 135.054 11.9382 135.214 11.9883C135.378 12.0384 135.547 12.0635 135.72 12.0635C136.257 12.0635 136.684 11.9609 136.998 11.7559C137.312 11.5462 137.538 11.266 137.675 10.915C137.816 10.5596 137.887 10.1654 137.887 9.73242ZM134.852 14.6816C134.852 14.4766 134.913 14.3034 135.036 14.1621C135.164 14.0208 135.351 13.9502 135.597 13.9502C135.838 13.9502 136.023 14.0208 136.15 14.1621C136.283 14.3034 136.349 14.4766 136.349 14.6816C136.349 14.8776 136.283 15.0439 136.15 15.1807C136.023 15.3219 135.838 15.3926 135.597 15.3926C135.351 15.3926 135.164 15.3219 135.036 15.1807C134.913 15.0439 134.852 14.8776 134.852 14.6816ZM142.111 7.18262V13H140.847V5.60352H142.043L142.111 7.18262ZM141.811 9.02148L141.284 9.00098C141.289 8.49512 141.364 8.02799 141.51 7.59961C141.656 7.16667 141.861 6.79069 142.125 6.47168C142.389 6.15267 142.704 5.90658 143.068 5.7334C143.438 5.55566 143.845 5.4668 144.292 5.4668C144.657 5.4668 144.985 5.51693 145.276 5.61719C145.568 5.71289 145.816 5.86784 146.021 6.08203C146.231 6.29622 146.391 6.57422 146.5 6.91602C146.609 7.25326 146.664 7.66569 146.664 8.15332V13H145.393V8.13965C145.393 7.75228 145.336 7.44238 145.222 7.20996C145.108 6.97298 144.941 6.80208 144.723 6.69727C144.504 6.58789 144.235 6.5332 143.916 6.5332C143.602 6.5332 143.314 6.59928 143.055 6.73145C142.799 6.86361 142.578 7.0459 142.392 7.27832C142.209 7.51074 142.066 7.77734 141.961 8.07812C141.861 8.37435 141.811 8.6888 141.811 9.02148ZM153.377 5.60352H154.525V12.8428C154.525 13.4945 154.393 14.0505 154.129 14.5107C153.865 14.971 153.495 15.3197 153.021 15.5566C152.552 15.7982 152.01 15.9189 151.395 15.9189C151.139 15.9189 150.839 15.8779 150.492 15.7959C150.15 15.7184 149.813 15.584 149.48 15.3926C149.152 15.2057 148.877 14.9528 148.653 14.6338L149.316 13.8818C149.626 14.2555 149.95 14.5153 150.287 14.6611C150.629 14.807 150.966 14.8799 151.299 14.8799C151.7 14.8799 152.046 14.8047 152.338 14.6543C152.63 14.5039 152.855 14.2806 153.015 13.9844C153.179 13.6927 153.261 13.3327 153.261 12.9043V7.23047L153.377 5.60352ZM148.284 9.38379V9.24023C148.284 8.67513 148.35 8.16243 148.482 7.70215C148.619 7.2373 148.813 6.83854 149.063 6.50586C149.319 6.17318 149.626 5.91797 149.986 5.74023C150.346 5.55794 150.752 5.4668 151.203 5.4668C151.668 5.4668 152.074 5.54883 152.42 5.71289C152.771 5.8724 153.067 6.1071 153.309 6.41699C153.555 6.72233 153.748 7.09147 153.89 7.52441C154.031 7.95736 154.129 8.44727 154.184 8.99414V9.62305C154.133 10.1654 154.035 10.653 153.89 11.0859C153.748 11.5189 153.555 11.888 153.309 12.1934C153.067 12.4987 152.771 12.7334 152.42 12.8975C152.069 13.057 151.659 13.1367 151.189 13.1367C150.747 13.1367 150.346 13.0433 149.986 12.8564C149.631 12.6696 149.326 12.4076 149.07 12.0703C148.815 11.7331 148.619 11.3366 148.482 10.8809C148.35 10.4206 148.284 9.92155 148.284 9.38379ZM149.549 9.24023V9.38379C149.549 9.75293 149.585 10.0993 149.658 10.4229C149.736 10.7464 149.852 11.0312 150.007 11.2773C150.166 11.5234 150.369 11.7171 150.615 11.8584C150.861 11.9951 151.155 12.0635 151.497 12.0635C151.916 12.0635 152.263 11.9746 152.536 11.7969C152.81 11.6191 153.026 11.3844 153.186 11.0928C153.35 10.8011 153.477 10.4844 153.568 10.1426V8.49512C153.518 8.24447 153.441 8.00293 153.336 7.77051C153.236 7.53353 153.104 7.32389 152.939 7.1416C152.78 6.95475 152.582 6.80664 152.345 6.69727C152.108 6.58789 151.83 6.5332 151.511 6.5332C151.164 6.5332 150.866 6.60612 150.615 6.75195C150.369 6.89323 150.166 7.08919 150.007 7.33984C149.852 7.58594 149.736 7.87305 149.658 8.20117C149.585 8.52474 149.549 8.87109 149.549 9.24023ZM163.795 3.92871L160.5 13H159.153L162.947 3.04688H163.815L163.795 3.92871ZM166.557 13L163.255 3.92871L163.234 3.04688H164.103L167.91 13H166.557ZM166.386 9.31543V10.3955H160.794V9.31543H166.386ZM170.316 7.18262V13H169.052V5.60352H170.248L170.316 7.18262ZM170.016 9.02148L169.489 9.00098C169.494 8.49512 169.569 8.02799 169.715 7.59961C169.861 7.16667 170.066 6.79069 170.33 6.47168C170.594 6.15267 170.909 5.90658 171.273 5.7334C171.643 5.55566 172.05 5.4668 172.497 5.4668C172.862 5.4668 173.19 5.51693 173.481 5.61719C173.773 5.71289 174.021 5.86784 174.227 6.08203C174.436 6.29622 174.596 6.57422 174.705 6.91602C174.814 7.25326 174.869 7.66569 174.869 8.15332V13H173.598V8.13965C173.598 7.75228 173.541 7.44238 173.427 7.20996C173.313 6.97298 173.146 6.80208 172.928 6.69727C172.709 6.58789 172.44 6.5332 172.121 6.5332C171.807 6.5332 171.52 6.59928 171.26 6.73145C171.005 6.86361 170.784 7.0459 170.597 7.27832C170.414 7.51074 170.271 7.77734 170.166 8.07812C170.066 8.37435 170.016 8.6888 170.016 9.02148ZM181.452 11.5645V2.5H182.724V13H181.562L181.452 11.5645ZM176.476 9.38379V9.24023C176.476 8.67513 176.544 8.16243 176.681 7.70215C176.822 7.2373 177.02 6.83854 177.275 6.50586C177.535 6.17318 177.843 5.91797 178.198 5.74023C178.558 5.55794 178.959 5.4668 179.401 5.4668C179.866 5.4668 180.272 5.54883 180.618 5.71289C180.969 5.8724 181.265 6.1071 181.507 6.41699C181.753 6.72233 181.947 7.09147 182.088 7.52441C182.229 7.95736 182.327 8.44727 182.382 8.99414V9.62305C182.332 10.1654 182.234 10.653 182.088 11.0859C181.947 11.5189 181.753 11.888 181.507 12.1934C181.265 12.4987 180.969 12.7334 180.618 12.8975C180.267 13.057 179.857 13.1367 179.388 13.1367C178.955 13.1367 178.558 13.0433 178.198 12.8564C177.843 12.6696 177.535 12.4076 177.275 12.0703C177.02 11.7331 176.822 11.3366 176.681 10.8809C176.544 10.4206 176.476 9.92155 176.476 9.38379ZM177.747 9.24023V9.38379C177.747 9.75293 177.784 10.0993 177.856 10.4229C177.934 10.7464 178.052 11.0312 178.212 11.2773C178.371 11.5234 178.574 11.7171 178.82 11.8584C179.066 11.9951 179.36 12.0635 179.702 12.0635C180.121 12.0635 180.465 11.9746 180.734 11.7969C181.008 11.6191 181.227 11.3844 181.391 11.0928C181.555 10.8011 181.682 10.4844 181.773 10.1426V8.49512C181.719 8.24447 181.639 8.00293 181.534 7.77051C181.434 7.53353 181.302 7.32389 181.138 7.1416C180.978 6.95475 180.78 6.80664 180.543 6.69727C180.311 6.58789 180.035 6.5332 179.716 6.5332C179.369 6.5332 179.071 6.60612 178.82 6.75195C178.574 6.89323 178.371 7.08919 178.212 7.33984C178.052 7.58594 177.934 7.87305 177.856 8.20117C177.784 8.52474 177.747 8.87109 177.747 9.24023ZM185.957 6.76562V13H184.692V5.60352H185.923L185.957 6.76562ZM188.268 5.5625L188.261 6.73828C188.156 6.71549 188.056 6.70182 187.96 6.69727C187.869 6.68815 187.764 6.68359 187.646 6.68359C187.354 6.68359 187.096 6.72917 186.873 6.82031C186.65 6.91146 186.461 7.03906 186.306 7.20312C186.151 7.36719 186.028 7.56315 185.937 7.79102C185.85 8.01432 185.793 8.26042 185.766 8.5293L185.41 8.73438C185.41 8.28776 185.453 7.86849 185.54 7.47656C185.631 7.08464 185.77 6.73828 185.957 6.4375C186.144 6.13216 186.381 5.89518 186.668 5.72656C186.96 5.55339 187.306 5.4668 187.707 5.4668C187.798 5.4668 187.903 5.47819 188.021 5.50098C188.14 5.51921 188.222 5.53971 188.268 5.5625ZM188.965 9.38379V9.22656C188.965 8.69336 189.042 8.19889 189.197 7.74316C189.352 7.28288 189.576 6.88411 189.867 6.54688C190.159 6.20508 190.512 5.94076 190.927 5.75391C191.341 5.5625 191.806 5.4668 192.321 5.4668C192.841 5.4668 193.308 5.5625 193.723 5.75391C194.142 5.94076 194.497 6.20508 194.789 6.54688C195.085 6.88411 195.311 7.28288 195.466 7.74316C195.621 8.19889 195.698 8.69336 195.698 9.22656V9.38379C195.698 9.91699 195.621 10.4115 195.466 10.8672C195.311 11.3229 195.085 11.7217 194.789 12.0635C194.497 12.4007 194.144 12.665 193.729 12.8564C193.319 13.0433 192.854 13.1367 192.335 13.1367C191.815 13.1367 191.348 13.0433 190.934 12.8564C190.519 12.665 190.163 12.4007 189.867 12.0635C189.576 11.7217 189.352 11.3229 189.197 10.8672C189.042 10.4115 188.965 9.91699 188.965 9.38379ZM190.229 9.22656V9.38379C190.229 9.75293 190.273 10.1016 190.359 10.4297C190.446 10.7533 190.576 11.0404 190.749 11.291C190.927 11.5417 191.148 11.7399 191.412 11.8857C191.676 12.027 191.984 12.0977 192.335 12.0977C192.681 12.0977 192.984 12.027 193.244 11.8857C193.508 11.7399 193.727 11.5417 193.9 11.291C194.074 11.0404 194.203 10.7533 194.29 10.4297C194.381 10.1016 194.427 9.75293 194.427 9.38379V9.22656C194.427 8.86198 194.381 8.5179 194.29 8.19434C194.203 7.86621 194.071 7.57682 193.894 7.32617C193.72 7.07096 193.502 6.87044 193.237 6.72461C192.978 6.57878 192.672 6.50586 192.321 6.50586C191.975 6.50586 191.67 6.57878 191.405 6.72461C191.146 6.87044 190.927 7.07096 190.749 7.32617C190.576 7.57682 190.446 7.86621 190.359 8.19434C190.273 8.5179 190.229 8.86198 190.229 9.22656ZM198.658 5.60352V13H197.387V5.60352H198.658ZM197.291 3.6416C197.291 3.43652 197.353 3.26335 197.476 3.12207C197.603 2.98079 197.79 2.91016 198.036 2.91016C198.278 2.91016 198.462 2.98079 198.59 3.12207C198.722 3.26335 198.788 3.43652 198.788 3.6416C198.788 3.83757 198.722 4.00618 198.59 4.14746C198.462 4.28418 198.278 4.35254 198.036 4.35254C197.79 4.35254 197.603 4.28418 197.476 4.14746C197.353 4.00618 197.291 3.83757 197.291 3.6416ZM205.351 11.5645V2.5H206.622V13H205.46L205.351 11.5645ZM200.374 9.38379V9.24023C200.374 8.67513 200.442 8.16243 200.579 7.70215C200.72 7.2373 200.919 6.83854 201.174 6.50586C201.434 6.17318 201.741 5.91797 202.097 5.74023C202.457 5.55794 202.858 5.4668 203.3 5.4668C203.765 5.4668 204.17 5.54883 204.517 5.71289C204.868 5.8724 205.164 6.1071 205.405 6.41699C205.651 6.72233 205.845 7.09147 205.986 7.52441C206.128 7.95736 206.226 8.44727 206.28 8.99414V9.62305C206.23 10.1654 206.132 10.653 205.986 11.0859C205.845 11.5189 205.651 11.888 205.405 12.1934C205.164 12.4987 204.868 12.7334 204.517 12.8975C204.166 13.057 203.756 13.1367 203.286 13.1367C202.853 13.1367 202.457 13.0433 202.097 12.8564C201.741 12.6696 201.434 12.4076 201.174 12.0703C200.919 11.7331 200.72 11.3366 200.579 10.8809C200.442 10.4206 200.374 9.92155 200.374 9.38379ZM201.646 9.24023V9.38379C201.646 9.75293 201.682 10.0993 201.755 10.4229C201.832 10.7464 201.951 11.0312 202.11 11.2773C202.27 11.5234 202.473 11.7171 202.719 11.8584C202.965 11.9951 203.259 12.0635 203.601 12.0635C204.02 12.0635 204.364 11.9746 204.633 11.7969C204.906 11.6191 205.125 11.3844 205.289 11.0928C205.453 10.8011 205.581 10.4844 205.672 10.1426V8.49512C205.617 8.24447 205.537 8.00293 205.433 7.77051C205.332 7.53353 205.2 7.32389 205.036 7.1416C204.877 6.95475 204.678 6.80664 204.441 6.69727C204.209 6.58789 203.933 6.5332 203.614 6.5332C203.268 6.5332 202.969 6.60612 202.719 6.75195C202.473 6.89323 202.27 7.08919 202.11 7.33984C201.951 7.58594 201.832 7.87305 201.755 8.20117C201.682 8.52474 201.646 8.87109 201.646 9.24023ZM208.536 12.3301C208.536 12.1159 208.602 11.9359 208.734 11.79C208.871 11.6396 209.067 11.5645 209.322 11.5645C209.577 11.5645 209.771 11.6396 209.903 11.79C210.04 11.9359 210.108 12.1159 210.108 12.3301C210.108 12.5397 210.04 12.7174 209.903 12.8633C209.771 13.0091 209.577 13.082 209.322 13.082C209.067 13.082 208.871 13.0091 208.734 12.8633C208.602 12.7174 208.536 12.5397 208.536 12.3301ZM208.543 6.29395C208.543 6.07975 208.609 5.89974 208.741 5.75391C208.878 5.60352 209.074 5.52832 209.329 5.52832C209.584 5.52832 209.778 5.60352 209.91 5.75391C210.047 5.89974 210.115 6.07975 210.115 6.29395C210.115 6.50358 210.047 6.68132 209.91 6.82715C209.778 6.97298 209.584 7.0459 209.329 7.0459C209.074 7.0459 208.878 6.97298 208.741 6.82715C208.609 6.68132 208.543 6.50358 208.543 6.29395Z" fill="black"/>
<path d="M207.488 63.7768H80.4665C77.5644 63.7768 75.332 61.5444 75.332 58.6424V28.2823C75.332 25.3802 77.7876 23.1478 80.4665 23.1478H207.488C210.39 23.1478 212.622 25.3802 212.622 28.2823V58.8656C212.622 61.5444 210.39 63.7768 207.488 63.7768Z" fill="black"/>
<path d="M207.488 24.0408C209.943 24.0408 211.729 26.0499 211.729 28.2823V58.8656C211.729 61.3212 209.72 63.1071 207.488 63.1071H80.4665C78.0109 63.1071 76.225 61.098 76.225 58.8656V28.2823C76.225 25.8267 78.2341 24.0408 80.4665 24.0408H207.488ZM207.488 23.1478H80.4665C77.7876 23.1478 75.332 25.3802 75.332 28.2823V58.8656C75.332 61.7677 77.5644 64 80.4665 64H207.488C210.39 64 212.622 61.7677 212.622 58.8656V28.2823C212.622 25.3802 210.39 23.1478 207.488 23.1478Z" fill="#A6A5A5"/>
<path d="M144.756 45.2483C142.301 45.2483 140.515 47.0342 140.515 49.4898C140.515 51.9454 142.524 53.7313 144.756 53.7313C147.212 53.7313 148.998 51.9454 148.998 49.4898C148.998 47.0342 146.989 45.2483 144.756 45.2483ZM144.756 52.1686C143.417 52.1686 142.301 51.0525 142.301 49.4898C142.301 47.9272 143.417 46.811 144.756 46.811C146.096 46.811 147.212 47.9272 147.212 49.4898C147.212 51.0525 145.873 52.1686 144.756 52.1686ZM135.157 45.2483C132.702 45.2483 130.916 47.0342 130.916 49.4898C130.916 51.9454 132.925 53.7313 135.157 53.7313C137.613 53.7313 139.399 51.9454 139.399 49.4898C139.622 47.0342 137.613 45.2483 135.157 45.2483ZM135.157 52.1686C133.818 52.1686 132.702 51.0525 132.702 49.4898C132.702 47.9272 133.818 46.811 135.157 46.811C136.497 46.811 137.613 47.9272 137.613 49.4898C137.613 51.0525 136.497 52.1686 135.157 52.1686ZM123.996 46.5877V48.3736H128.46C128.237 49.4898 128.014 50.1595 127.567 50.606C126.674 51.2757 125.781 52.1686 123.996 52.1686C121.317 52.1686 119.084 49.9363 119.084 47.2574C119.084 44.5786 121.093 42.3463 123.996 42.3463C125.558 42.3463 126.451 43.016 127.344 43.6857L128.683 42.3463C127.567 41.2301 126.228 40.5604 123.996 40.5604C120.201 40.5604 117.075 43.4624 117.075 47.2574C117.075 51.0525 120.201 53.9545 123.996 53.9545C126.005 53.9545 127.567 53.2848 128.683 52.1686C129.8 51.0525 130.246 49.2666 130.246 47.9272C130.246 47.4807 130.246 47.0342 130.246 46.811H123.996V46.5877ZM169.982 47.9272C169.536 47.0342 168.419 45.2483 166.187 45.2483C163.955 45.2483 162.169 47.0342 162.169 49.4898C162.169 51.9454 163.955 53.7313 166.41 53.7313C168.42 53.7313 169.536 52.6151 169.982 51.7222L168.419 50.8292C167.973 51.4989 167.303 51.9454 166.187 51.9454C165.294 51.9454 164.624 51.4989 164.178 50.606L169.982 48.1504V47.9272ZM164.178 49.4898C164.178 47.9272 165.517 47.0342 166.41 47.0342C167.08 47.0342 167.75 47.4807 167.973 47.9272L164.178 49.4898ZM159.49 53.7313H161.499V41.0068H159.49V53.7313ZM156.365 46.1413C155.918 45.6948 155.025 45.2483 154.132 45.2483C151.9 45.2483 149.891 47.2574 149.891 49.4898C149.891 51.9454 151.9 53.7313 154.132 53.7313C155.249 53.7313 155.918 53.2848 156.365 52.8383V53.5081C156.365 55.0707 155.472 55.9637 154.132 55.9637C153.016 55.9637 152.347 55.0707 151.9 54.401L150.337 55.0707C150.784 56.1869 152.123 57.5263 154.132 57.5263C156.365 57.5263 158.151 56.1869 158.151 53.0616V45.4716H156.365V46.1413ZM154.132 52.1686C152.793 52.1686 151.677 51.0525 151.677 49.4898C151.677 47.9272 152.793 46.811 154.132 46.811C155.472 46.811 156.365 47.9272 156.365 49.4898C156.365 51.0525 155.472 52.1686 154.132 52.1686ZM178.912 41.0068H174.447V53.7313H176.233V48.8201H178.912C180.921 48.8201 183.153 47.2574 183.153 44.8018C183.153 42.3463 180.921 41.0068 178.912 41.0068ZM178.912 47.0342H176.233V42.5695H178.912C180.251 42.5695 181.144 43.6857 181.144 44.8018C181.144 45.918 180.251 47.0342 178.912 47.0342ZM190.743 45.2483C189.404 45.2483 187.841 45.918 187.395 47.2574L189.18 47.9272C189.627 47.2574 190.297 47.0342 190.966 47.0342C191.859 47.0342 192.975 47.7039 192.975 48.5969V48.8201C192.529 48.5969 191.859 48.3736 190.966 48.3736C189.18 48.3736 187.395 49.2666 187.395 51.2757C187.395 53.0616 188.957 54.1778 190.52 54.1778C191.859 54.1778 192.529 53.5081 192.975 52.8383V53.7313H194.761V48.8201C194.538 46.5877 192.752 45.2483 190.743 45.2483ZM190.52 52.1686C189.85 52.1686 188.957 51.9454 188.957 51.0525C188.957 50.1595 190.073 49.713 190.966 49.713C191.859 49.713 192.083 49.9363 192.752 50.1595C192.529 51.2757 191.413 52.1686 190.52 52.1686ZM201.235 45.4716L199.003 51.0525L196.77 45.4716H194.761L198.11 53.0616L196.101 57.3031H198.11L203.244 45.2483H201.235V45.4716ZM184.046 53.7313H185.832V41.0068H184.046V53.7313Z" fill="white"/>
<path d="M86.0471 30.7378C85.8238 30.961 85.6006 31.6307 85.6006 32.0772V54.6241C85.6006 55.2938 85.8238 55.7402 86.0471 55.9635L98.5483 43.4622V43.239L86.0471 30.7378Z" fill="#5BC8F3"/>
<path d="M102.791 47.7039L98.5498 43.4624V43.2392L102.791 38.9977L107.702 41.8997C109.042 42.7927 109.042 44.1321 107.702 44.8018L102.791 47.7039Z" fill="url(#paint0_linear_11461_47920)"/>
<path d="M103.014 47.7038L98.7723 43.4623L86.0479 56.1867C86.4943 56.6332 87.3873 56.6332 88.057 56.1867L103.014 47.7038Z" fill="url(#paint1_linear_11461_47920)"/>
<path d="M103.013 39.2208L88.2796 30.7378C87.3867 30.2913 86.717 30.2913 86.2705 30.7378L98.995 43.4623L103.013 39.2208Z" fill="url(#paint2_linear_11461_47920)"/>
<path d="M119.753 36.0956H119.083V30.9612H117.521V30.2915H121.539V30.9612H119.976V36.0956H119.753Z" fill="white" stroke="white" stroke-width="0.2" stroke-miterlimit="10"/>
<path d="M122.657 34.3097L121.987 36.0956H121.317L123.103 30.5147H123.996L125.782 36.0956H125.112L124.666 34.3097H122.657ZM124.443 33.8633L123.996 32.3006C123.773 31.8541 123.773 31.6309 123.773 31.4077C123.773 31.6309 123.55 32.0774 123.55 32.3006L123.103 33.8633H124.443ZM123.327 30.2915C123.55 29.845 123.773 29.845 123.773 29.3985C123.773 29.1753 123.55 29.1753 123.55 29.1753C123.327 29.1753 123.327 29.3985 123.103 29.3985L122.88 29.1753C123.103 28.9521 123.327 28.7288 123.773 28.7288C124.219 28.7288 124.443 28.9521 124.443 29.3985C124.443 29.845 123.996 29.845 123.773 30.2915H123.327Z" fill="white" stroke="white" stroke-width="0.2" stroke-miterlimit="10"/>
<path d="M126.672 36.0956V30.2915H127.342V36.0956H126.672Z" fill="white" stroke="white" stroke-width="0.2" stroke-miterlimit="10"/>
<path d="M130.471 36.0956V30.2915H131.364L134.266 34.7562V33.64V30.2915H134.935V36.0956H134.266L131.14 31.4077V32.5239V36.0956H130.471Z" fill="white" stroke="white" stroke-width="0.2" stroke-miterlimit="10"/>
<path d="M140.961 33.1937C140.961 34.9796 139.845 36.0958 138.505 36.0958C137.166 36.0958 136.05 34.9796 136.05 33.4169C136.05 31.631 137.166 30.5149 138.505 30.5149C140.068 30.5149 140.961 31.631 140.961 33.1937ZM136.72 33.4169C136.72 34.5331 137.389 35.6493 138.505 35.6493C139.622 35.6493 140.291 34.5331 140.291 33.4169C140.291 32.3008 139.622 31.1846 138.505 31.1846C137.389 30.9613 136.72 32.0775 136.72 33.4169ZM138.729 29.3987L139.622 30.2916H138.952L138.505 29.6219L137.836 30.2916H137.166L138.059 29.3987H138.729ZM138.059 37.2119C138.059 36.9887 138.282 36.7655 138.505 36.7655C138.729 36.7655 138.952 36.9887 138.952 37.2119C138.952 37.4352 138.729 37.6584 138.505 37.6584C138.282 37.4352 138.059 37.2119 138.059 37.2119Z" fill="white" stroke="white" stroke-width="0.2" stroke-miterlimit="10"/>
<path d="M142.079 36.0956V30.2915H142.749V36.0956H142.079Z" fill="white" stroke="white" stroke-width="0.2" stroke-miterlimit="10"/>
<path d="M145.648 36.0956V30.2915H147.434C148.327 30.2915 148.997 30.5147 149.667 31.1844C150.113 31.6309 150.56 32.5239 150.56 33.1936C150.56 34.0865 150.336 34.7562 149.667 35.2027C149.22 35.6492 148.327 36.0956 147.434 36.0956H145.648ZM146.541 35.4259H147.658C148.327 35.4259 148.774 35.2027 149.22 34.7562C149.667 34.3098 149.89 33.8633 149.89 33.1936C149.89 32.5239 149.667 32.0774 149.22 31.6309C148.774 31.1844 148.327 30.9612 147.658 30.9612H146.541V35.4259Z" fill="white" stroke="white" stroke-width="0.2" stroke-miterlimit="10"/>
<path d="M153.461 36.0956C152.791 36.0956 152.345 35.8724 151.898 35.4259C151.452 34.9795 151.229 34.533 151.229 33.8633V30.2915H151.898V34.0865C151.898 34.533 152.121 34.9795 152.345 35.2027C152.568 35.4259 153.014 35.6492 153.461 35.6492C153.907 35.6492 154.354 35.4259 154.577 35.2027C154.8 34.9795 155.024 34.533 155.024 34.0865V30.2915H155.693V33.8633C155.693 34.533 155.47 35.2027 155.024 35.4259C154.8 35.8724 154.131 36.0956 153.461 36.0956Z" fill="white" stroke="white" stroke-width="0.2" stroke-miterlimit="10"/>
<path d="M157.034 36.0956V30.2915H157.927L160.829 34.7562V33.64V30.2915H161.499V36.0956H160.829L157.927 31.4077V32.5239V36.0956H157.034Z" fill="white" stroke="white" stroke-width="0.2" stroke-miterlimit="10"/>
<path d="M168.416 33.4168C168.416 34.3097 168.193 34.9794 167.746 35.4259C167.3 36.0956 166.407 36.3188 165.514 36.3188C164.621 36.3188 163.951 36.0956 163.282 35.4259C162.612 34.7562 162.389 34.0865 162.389 33.1935C162.389 32.3006 162.612 31.6309 163.282 30.9612C163.951 30.2915 164.621 30.0682 165.514 30.0682C165.96 30.0682 166.407 30.0682 166.63 30.2915C167.077 30.5147 167.3 30.7379 167.523 30.9612L167.077 31.4077C166.63 30.9612 166.184 30.7379 165.514 30.7379C164.844 30.7379 164.398 30.9612 163.951 31.4077C163.505 31.8541 163.282 32.3006 163.282 33.1935C163.282 33.8633 163.505 34.533 163.951 34.9794C164.398 35.4259 164.844 35.6491 165.514 35.6491C166.184 35.6491 166.63 35.4259 167.077 34.9794C167.3 34.7562 167.523 34.3097 167.523 33.8633H165.514V32.9703H168.416C168.416 33.1935 168.416 33.1935 168.416 33.4168Z" fill="white" stroke="white" stroke-width="0.2" stroke-miterlimit="10"/>
<path d="M173.107 36.0956H172.438V30.9612H170.875V30.2915H174.893V30.9612H173.331V36.0956H173.107Z" fill="white" stroke="white" stroke-width="0.2" stroke-miterlimit="10"/>
<path d="M175.562 36.0956V30.2915H177.572C178.018 30.2915 178.465 30.5147 178.911 30.738C179.358 30.9612 179.358 31.4077 179.358 32.0774C179.358 32.5239 179.134 32.7471 178.911 33.1936C178.688 33.4168 178.241 33.64 178.018 33.8633L179.581 36.3189H178.688L177.125 33.8633H176.232V36.3189H175.562V36.0956ZM176.232 32.9703H177.348C177.572 32.9703 177.795 32.9703 178.018 32.7471C178.241 32.5239 178.241 32.3006 178.241 32.0774C178.241 31.8542 178.241 31.6309 178.018 31.4077C177.795 31.1844 177.572 31.1844 177.348 31.1844H176.009V32.9703H176.232Z" fill="white" stroke="white" stroke-width="0.2" stroke-miterlimit="10"/>
<path d="M183.82 30.9612H181.141V32.7471H183.597V33.4168H181.141V35.2027H183.82V35.8724H180.472V30.2915H183.82V30.9612ZM180.918 29.6218L181.811 28.7288H182.481L183.374 29.6218H182.481L182.034 29.1753L181.588 29.6218H180.918Z" fill="white" stroke="white" stroke-width="0.2" stroke-miterlimit="10"/>
<path d="M184.936 36.0956V30.2915H185.828L188.731 34.7562V33.64V30.2915H189.4V36.0956H188.731L185.828 31.4077V32.5239V36.0956H184.936Z" fill="white" stroke="white" stroke-width="0.2" stroke-miterlimit="10"/>
<defs>
<linearGradient id="paint0_linear_11461_47920" x1="107.033" y1="43.4704" x2="82.4672" y2="43.4704" gradientUnits="userSpaceOnUse">
<stop stop-color="#FFDF00"/>
<stop offset="0.4087" stop-color="#FBBC0E"/>
<stop offset="0.7754" stop-color="#F9A418"/>
<stop offset="1" stop-color="#F89B1C"/>
</linearGradient>
<linearGradient id="paint1_linear_11461_47920" x1="100.657" y1="45.8002" x2="77.5515" y2="68.9058" gradientUnits="userSpaceOnUse">
<stop stop-color="#EE4447"/>
<stop offset="1" stop-color="#C5166C"/>
</linearGradient>
<linearGradient id="paint2_linear_11461_47920" x1="77.448" y1="17.931" x2="96.3135" y2="36.7964" gradientUnits="userSpaceOnUse">
<stop stop-color="#269E6F"/>
<stop offset="0.05089" stop-color="#2BA06F"/>
<stop offset="0.4663" stop-color="#53B26B"/>
<stop offset="0.7971" stop-color="#6BBD69"/>
<stop offset="1" stop-color="#74C168"/>
</linearGradient>
</defs>
</svg>
