<svg width="195" height="64" viewBox="0 0 195 64" fill="none" xmlns="http://www.w3.org/2000/svg">
<path d="M2.19653 0H0.466797V1.72973H2.19653V0Z" fill="black"/>
<path d="M3.92626 0H2.19653V1.72973H3.92626V0Z" fill="black"/>
<path d="M5.65599 0H3.92626V1.72973H5.65599V0Z" fill="black"/>
<path d="M7.38572 0H5.65599V1.72973H7.38572V0Z" fill="black"/>
<path d="M9.11545 0H7.38572V1.72973H9.11545V0Z" fill="black"/>
<path d="M10.8452 0H9.11545V1.72973H10.8452V0Z" fill="black"/>
<path d="M12.5749 0H10.8452V1.72973H12.5749V0Z" fill="black"/>
<path d="M16.0344 0H14.3046V1.72973H16.0344V0Z" fill="black"/>
<path d="M17.7641 0H16.0344V1.72973H17.7641V0Z" fill="black"/>
<path d="M21.2236 0H19.4938V1.72973H21.2236V0Z" fill="black"/>
<path d="M24.683 0H22.9533V1.72973H24.683V0Z" fill="black"/>
<path d="M31.6019 0H29.8722V1.72973H31.6019V0Z" fill="black"/>
<path d="M35.0614 0H33.3317V1.72973H35.0614V0Z" fill="black"/>
<path d="M38.5209 0H36.7911V1.72973H38.5209V0Z" fill="black"/>
<path d="M41.9803 0H40.2506V1.72973H41.9803V0Z" fill="black"/>
<path d="M43.71 0H41.9803V1.72973H43.71V0Z" fill="black"/>
<path d="M48.8992 0H47.1695V1.72973H48.8992V0Z" fill="black"/>
<path d="M54.0884 0H52.3587V1.72973H54.0884V0Z" fill="black"/>
<path d="M55.8181 0H54.0884V1.72973H55.8181V0Z" fill="black"/>
<path d="M57.5479 0H55.8181V1.72973H57.5479V0Z" fill="black"/>
<path d="M59.2776 0H57.5479V1.72973H59.2776V0Z" fill="black"/>
<path d="M61.0073 0H59.2776V1.72973H61.0073V0Z" fill="black"/>
<path d="M62.7371 0H61.0073V1.72973H62.7371V0Z" fill="black"/>
<path d="M64.4668 0H62.7371V1.72973H64.4668V0Z" fill="black"/>
<path d="M2.19653 1.72973H0.466797V3.45946H2.19653V1.72973Z" fill="black"/>
<path d="M12.5749 1.72973H10.8452V3.45946H12.5749V1.72973Z" fill="black"/>
<path d="M17.7641 1.72973H16.0344V3.45946H17.7641V1.72973Z" fill="black"/>
<path d="M21.2236 1.72973H19.4938V3.45946H21.2236V1.72973Z" fill="black"/>
<path d="M26.4127 1.72973H24.683V3.45946H26.4127V1.72973Z" fill="black"/>
<path d="M31.6019 1.72973H29.8722V3.45946H31.6019V1.72973Z" fill="black"/>
<path d="M33.3317 1.72973H31.6019V3.45946H33.3317V1.72973Z" fill="black"/>
<path d="M35.0614 1.72973H33.3317V3.45946H35.0614V1.72973Z" fill="black"/>
<path d="M36.7911 1.72973H35.0614V3.45946H36.7911V1.72973Z" fill="black"/>
<path d="M38.5209 1.72973H36.7911V3.45946H38.5209V1.72973Z" fill="black"/>
<path d="M47.1695 1.72973H45.4398V3.45946H47.1695V1.72973Z" fill="black"/>
<path d="M54.0884 1.72973H52.3587V3.45946H54.0884V1.72973Z" fill="black"/>
<path d="M64.4668 1.72973H62.7371V3.45946H64.4668V1.72973Z" fill="black"/>
<path d="M2.19653 3.45946H0.466797V5.18919H2.19653V3.45946Z" fill="black"/>
<path d="M5.65599 3.45946H3.92626V5.18919H5.65599V3.45946Z" fill="black"/>
<path d="M7.38572 3.45946H5.65599V5.18919H7.38572V3.45946Z" fill="black"/>
<path d="M9.11545 3.45946H7.38572V5.18919H9.11545V3.45946Z" fill="black"/>
<path d="M12.5749 3.45946H10.8452V5.18919H12.5749V3.45946Z" fill="black"/>
<path d="M16.0344 3.45946H14.3046V5.18919H16.0344V3.45946Z" fill="black"/>
<path d="M26.4127 3.45946H24.683V5.18919H26.4127V3.45946Z" fill="black"/>
<path d="M31.6019 3.45946H29.8722V5.18919H31.6019V3.45946Z" fill="black"/>
<path d="M38.5209 3.45946H36.7911V5.18919H38.5209V3.45946Z" fill="black"/>
<path d="M43.71 3.45946H41.9803V5.18919H43.71V3.45946Z" fill="black"/>
<path d="M48.8992 3.45946H47.1695V5.18919H48.8992V3.45946Z" fill="black"/>
<path d="M54.0884 3.45946H52.3587V5.18919H54.0884V3.45946Z" fill="black"/>
<path d="M57.5479 3.45946H55.8181V5.18919H57.5479V3.45946Z" fill="black"/>
<path d="M59.2776 3.45946H57.5479V5.18919H59.2776V3.45946Z" fill="black"/>
<path d="M61.0073 3.45946H59.2776V5.18919H61.0073V3.45946Z" fill="black"/>
<path d="M64.4668 3.45946H62.7371V5.18919H64.4668V3.45946Z" fill="black"/>
<path d="M2.19653 5.18919H0.466797V6.91892H2.19653V5.18919Z" fill="black"/>
<path d="M5.65599 5.18919H3.92626V6.91892H5.65599V5.18919Z" fill="black"/>
<path d="M7.38572 5.18919H5.65599V6.91892H7.38572V5.18919Z" fill="black"/>
<path d="M9.11545 5.18919H7.38572V6.91892H9.11545V5.18919Z" fill="black"/>
<path d="M12.5749 5.18919H10.8452V6.91892H12.5749V5.18919Z" fill="black"/>
<path d="M16.0344 5.18919H14.3046V6.91892H16.0344V5.18919Z" fill="black"/>
<path d="M17.7641 5.18919H16.0344V6.91892H17.7641V5.18919Z" fill="black"/>
<path d="M19.4938 5.18919H17.7641V6.91892H19.4938V5.18919Z" fill="black"/>
<path d="M24.683 5.18919H22.9533V6.91892H24.683V5.18919Z" fill="black"/>
<path d="M28.1425 5.18919H26.4127L26.4127 6.91892H28.1425V5.18919Z" fill="black"/>
<path d="M29.8722 5.18919H28.1425V6.91892H29.8722L29.8722 5.18919Z" fill="black"/>
<path d="M33.3317 5.18919H31.6019L31.6019 6.91892H33.3317V5.18919Z" fill="black"/>
<path d="M38.5209 5.18919H36.7911V6.91892H38.5209V5.18919Z" fill="black"/>
<path d="M41.9803 5.18919H40.2506V6.91892H41.9803V5.18919Z" fill="black"/>
<path d="M43.71 5.18919H41.9803V6.91892H43.71V5.18919Z" fill="black"/>
<path d="M45.4398 5.18919H43.71V6.91892H45.4398V5.18919Z" fill="black"/>
<path d="M47.1695 5.18919H45.4398V6.91892H47.1695V5.18919Z" fill="black"/>
<path d="M48.8992 5.18919H47.1695V6.91892H48.8992V5.18919Z" fill="black"/>
<path d="M54.0884 5.18919H52.3587V6.91892H54.0884V5.18919Z" fill="black"/>
<path d="M57.5479 5.18919H55.8181V6.91892H57.5479V5.18919Z" fill="black"/>
<path d="M59.2776 5.18919H57.5479V6.91892H59.2776V5.18919Z" fill="black"/>
<path d="M61.0073 5.18919H59.2776V6.91892H61.0073V5.18919Z" fill="black"/>
<path d="M64.4668 5.18919H62.7371V6.91892H64.4668V5.18919Z" fill="black"/>
<path d="M2.19653 6.91892H0.466797V8.64865H2.19653V6.91892Z" fill="black"/>
<path d="M5.65599 6.91892H3.92626V8.64865H5.65599V6.91892Z" fill="black"/>
<path d="M7.38572 6.91892H5.65599V8.64865H7.38572V6.91892Z" fill="black"/>
<path d="M9.11545 6.91892H7.38572V8.64865H9.11545V6.91892Z" fill="black"/>
<path d="M12.5749 6.91892H10.8452V8.64865H12.5749V6.91892Z" fill="black"/>
<path d="M19.4938 6.91892H17.7641V8.64865H19.4938V6.91892Z" fill="black"/>
<path d="M21.2236 6.91892H19.4938V8.64865H21.2236V6.91892Z" fill="black"/>
<path d="M24.683 6.91892H22.9533V8.64865H24.683V6.91892Z" fill="black"/>
<path d="M26.4127 6.91892H24.683V8.64865H26.4127L26.4127 6.91892Z" fill="black"/>
<path d="M29.8722 6.91892H28.1425L28.1425 8.64865H29.8722V6.91892Z" fill="black"/>
<path d="M35.0614 6.91892H33.3317V8.64865H35.0614V6.91892Z" fill="black"/>
<path d="M36.7911 6.91892H35.0614V8.64865H36.7911V6.91892Z" fill="black"/>
<path d="M38.5209 6.91892H36.7911V8.64865H38.5209V6.91892Z" fill="black"/>
<path d="M47.1695 6.91892H45.4398V8.64865H47.1695V6.91892Z" fill="black"/>
<path d="M48.8992 6.91892H47.1695V8.64865H48.8992V6.91892Z" fill="black"/>
<path d="M50.629 6.91892H48.8992V8.64865H50.629V6.91892Z" fill="black"/>
<path d="M54.0884 6.91892H52.3587V8.64865H54.0884V6.91892Z" fill="black"/>
<path d="M57.5479 6.91892H55.8181V8.64865H57.5479V6.91892Z" fill="black"/>
<path d="M59.2776 6.91892H57.5479V8.64865H59.2776V6.91892Z" fill="black"/>
<path d="M61.0073 6.91892H59.2776V8.64865H61.0073V6.91892Z" fill="black"/>
<path d="M64.4668 6.91892H62.7371V8.64865H64.4668V6.91892Z" fill="black"/>
<path d="M2.19653 8.64865H0.466797V10.3784H2.19653V8.64865Z" fill="black"/>
<path d="M12.5749 8.64865H10.8452V10.3784H12.5749V8.64865Z" fill="black"/>
<path d="M16.0344 8.64865H14.3046V10.3784H16.0344V8.64865Z" fill="black"/>
<path d="M19.4938 8.64865H17.7641V10.3784H19.4938V8.64865Z" fill="black"/>
<path d="M22.9533 8.64865H21.2236L21.2236 10.3784H22.9533L22.9533 8.64865Z" fill="black"/>
<path d="M24.683 8.64865H22.9533L22.9533 10.3784H24.683V8.64865Z" fill="black"/>
<path d="M28.1425 8.64865H26.4127L26.4127 10.3784H28.1425L28.1425 8.64865Z" fill="black"/>
<path d="M29.8722 8.64865H28.1425L28.1425 10.3784H29.8722V8.64865Z" fill="black"/>
<path d="M33.3317 8.64865H31.6019V10.3784H33.3317V8.64865Z" fill="black"/>
<path d="M36.7911 8.64865H35.0614V10.3784H36.7911V8.64865Z" fill="black"/>
<path d="M41.9803 8.64865H40.2506V10.3784H41.9803V8.64865Z" fill="black"/>
<path d="M43.71 8.64865H41.9803V10.3784H43.71V8.64865Z" fill="black"/>
<path d="M45.4398 8.64865H43.71V10.3784H45.4398V8.64865Z" fill="black"/>
<path d="M50.629 8.64865H48.8992V10.3784H50.629V8.64865Z" fill="black"/>
<path d="M54.0884 8.64865H52.3587V10.3784H54.0884V8.64865Z" fill="black"/>
<path d="M64.4668 8.64865H62.7371V10.3784H64.4668V8.64865Z" fill="black"/>
<path d="M2.19653 10.3784H0.466797V12.1081H2.19653V10.3784Z" fill="black"/>
<path d="M3.92626 10.3784H2.19653V12.1081H3.92626V10.3784Z" fill="black"/>
<path d="M5.65599 10.3784H3.92626V12.1081H5.65599V10.3784Z" fill="black"/>
<path d="M7.38572 10.3784H5.65599V12.1081H7.38572V10.3784Z" fill="black"/>
<path d="M9.11545 10.3784H7.38572V12.1081H9.11545V10.3784Z" fill="black"/>
<path d="M10.8452 10.3784H9.11545V12.1081H10.8452V10.3784Z" fill="black"/>
<path d="M12.5749 10.3784H10.8452V12.1081H12.5749V10.3784Z" fill="black"/>
<path d="M16.0344 10.3784H14.3046V12.1081H16.0344V10.3784Z" fill="black"/>
<path d="M19.4938 10.3784H17.7641V12.1081H19.4938V10.3784Z" fill="black"/>
<path d="M22.9533 10.3784H21.2236V12.1081H22.9533V10.3784Z" fill="black"/>
<path d="M26.4127 10.3784H24.683V12.1081H26.4127L26.4127 10.3784Z" fill="black"/>
<path d="M29.8722 10.3784H28.1425L28.1425 12.1081H29.8722V10.3784Z" fill="black"/>
<path d="M33.3317 10.3784H31.6019V12.1081H33.3317V10.3784Z" fill="black"/>
<path d="M36.7911 10.3784H35.0614V12.1081H36.7911V10.3784Z" fill="black"/>
<path d="M40.2506 10.3784H38.5209V12.1081H40.2506V10.3784Z" fill="black"/>
<path d="M43.71 10.3784H41.9803V12.1081H43.71V10.3784Z" fill="black"/>
<path d="M47.1695 10.3784H45.4398V12.1081H47.1695V10.3784Z" fill="black"/>
<path d="M50.629 10.3784H48.8992V12.1081H50.629V10.3784Z" fill="black"/>
<path d="M54.0884 10.3784H52.3587V12.1081H54.0884V10.3784Z" fill="black"/>
<path d="M55.8181 10.3784H54.0884V12.1081H55.8181V10.3784Z" fill="black"/>
<path d="M57.5479 10.3784H55.8181V12.1081H57.5479V10.3784Z" fill="black"/>
<path d="M59.2776 10.3784H57.5479V12.1081H59.2776V10.3784Z" fill="black"/>
<path d="M61.0073 10.3784H59.2776V12.1081H61.0073V10.3784Z" fill="black"/>
<path d="M62.7371 10.3784H61.0073V12.1081H62.7371V10.3784Z" fill="black"/>
<path d="M64.4668 10.3784H62.7371V12.1081H64.4668V10.3784Z" fill="black"/>
<path d="M16.0344 12.1081H14.3046V13.8378H16.0344V12.1081Z" fill="black"/>
<path d="M24.683 12.1081H22.9533L22.9533 13.8378H24.683V12.1081Z" fill="black"/>
<path d="M29.8722 12.1081H28.1425V13.8378H29.8722V12.1081Z" fill="black"/>
<path d="M33.3317 12.1081H31.6019V13.8378H33.3317V12.1081Z" fill="black"/>
<path d="M35.0614 12.1081H33.3317V13.8378H35.0614V12.1081Z" fill="black"/>
<path d="M36.7911 12.1081H35.0614V13.8378H36.7911V12.1081Z" fill="black"/>
<path d="M38.5209 12.1081H36.7911V13.8378H38.5209V12.1081Z" fill="black"/>
<path d="M43.71 12.1081H41.9803V13.8378H43.71V12.1081Z" fill="black"/>
<path d="M45.4398 12.1081H43.71V13.8378H45.4398V12.1081Z" fill="black"/>
<path d="M50.629 12.1081H48.8992V13.8378H50.629V12.1081Z" fill="black"/>
<path d="M2.19653 13.8378H0.466797V15.5676H2.19653V13.8378Z" fill="black"/>
<path d="M3.92626 13.8378H2.19653V15.5676H3.92626V13.8378Z" fill="black"/>
<path d="M7.38572 13.8378H5.65599V15.5676H7.38572V13.8378Z" fill="black"/>
<path d="M12.5749 13.8378H10.8452V15.5676H12.5749V13.8378Z" fill="black"/>
<path d="M14.3046 13.8378H12.5749V15.5676H14.3046V13.8378Z" fill="black"/>
<path d="M17.7641 13.8378H16.0344V15.5676H17.7641V13.8378Z" fill="black"/>
<path d="M22.9533 13.8378H21.2236V15.5676H22.9533L22.9533 13.8378Z" fill="black"/>
<path d="M26.4127 13.8378H24.683V15.5676H26.4127V13.8378Z" fill="black"/>
<path d="M28.1425 13.8378H26.4127V15.5676H28.1425L28.1425 13.8378Z" fill="black"/>
<path d="M29.8722 13.8378H28.1425L28.1425 15.5676H29.8722V13.8378Z" fill="black"/>
<path d="M31.6019 13.8378H29.8722V15.5676H31.6019L31.6019 13.8378Z" fill="black"/>
<path d="M33.3317 13.8378H31.6019L31.6019 15.5676H33.3317V13.8378Z" fill="black"/>
<path d="M40.2506 13.8378H38.5209V15.5676H40.2506V13.8378Z" fill="black"/>
<path d="M41.9803 13.8378H40.2506V15.5676H41.9803V13.8378Z" fill="black"/>
<path d="M45.4398 13.8378H43.71V15.5676H45.4398V13.8378Z" fill="black"/>
<path d="M50.629 13.8378H48.8992V15.5676H50.629V13.8378Z" fill="black"/>
<path d="M52.3587 13.8378H50.629V15.5676H52.3587V13.8378Z" fill="black"/>
<path d="M54.0884 13.8378H52.3587V15.5676H54.0884V13.8378Z" fill="black"/>
<path d="M55.8181 13.8378H54.0884V15.5676H55.8181V13.8378Z" fill="black"/>
<path d="M59.2776 13.8378H57.5479V15.5676H59.2776V13.8378Z" fill="black"/>
<path d="M61.0073 13.8378H59.2776V15.5676H61.0073V13.8378Z" fill="black"/>
<path d="M64.4668 13.8378H62.7371V15.5676H64.4668V13.8378Z" fill="black"/>
<path d="M3.92626 15.5676H2.19653V17.2973H3.92626V15.5676Z" fill="black"/>
<path d="M5.65599 15.5676H3.92626V17.2973H5.65599V15.5676Z" fill="black"/>
<path d="M9.11545 15.5676H7.38572V17.2973H9.11545V15.5676Z" fill="black"/>
<path d="M10.8452 15.5676H9.11545V17.2973H10.8452V15.5676Z" fill="black"/>
<path d="M14.3046 15.5676H12.5749V17.2973H14.3046V15.5676Z" fill="black"/>
<path d="M16.0344 15.5676H14.3046V17.2973H16.0344V15.5676Z" fill="black"/>
<path d="M19.4938 15.5676H17.7641V17.2973H19.4938V15.5676Z" fill="black"/>
<path d="M26.4127 15.5676H24.683V17.2973H26.4127V15.5676Z" fill="black"/>
<path d="M29.8722 15.5676H28.1425L28.1425 17.2973H29.8722V15.5676Z" fill="black"/>
<path d="M35.0614 15.5676H33.3317V17.2973H35.0614V15.5676Z" fill="black"/>
<path d="M41.9803 15.5676H40.2506V17.2973H41.9803V15.5676Z" fill="black"/>
<path d="M45.4398 15.5676H43.71V17.2973H45.4398V15.5676Z" fill="black"/>
<path d="M47.1695 15.5676H45.4398V17.2973H47.1695V15.5676Z" fill="black"/>
<path d="M48.8992 15.5676H47.1695V17.2973H48.8992V15.5676Z" fill="black"/>
<path d="M57.5479 15.5676H55.8181V17.2973H57.5479V15.5676Z" fill="black"/>
<path d="M64.4668 15.5676H62.7371V17.2973H64.4668V15.5676Z" fill="black"/>
<path d="M7.38572 17.2973H5.65599V19.027H7.38572V17.2973Z" fill="black"/>
<path d="M12.5749 17.2973H10.8452V19.027H12.5749V17.2973Z" fill="black"/>
<path d="M14.3046 17.2973H12.5749V19.027H14.3046V17.2973Z" fill="black"/>
<path d="M17.7641 17.2973H16.0344V19.027H17.7641V17.2973Z" fill="black"/>
<path d="M21.2236 17.2973H19.4938V19.027H21.2236V17.2973Z" fill="black"/>
<path d="M22.9533 17.2973H21.2236V19.027H22.9533V17.2973Z" fill="black"/>
<path d="M24.683 17.2973H22.9533V19.027H24.683V17.2973Z" fill="black"/>
<path d="M29.8722 17.2973H28.1425V19.027H29.8722V17.2973Z" fill="black"/>
<path d="M31.6019 17.2973H29.8722V19.027H31.6019V17.2973Z" fill="black"/>
<path d="M33.3317 17.2973H31.6019V19.027H33.3317V17.2973Z" fill="black"/>
<path d="M41.9803 17.2973H40.2506V19.027H41.9803V17.2973Z" fill="black"/>
<path d="M47.1695 17.2973H45.4398V19.027H47.1695V17.2973Z" fill="black"/>
<path d="M50.629 17.2973H48.8992V19.027H50.629V17.2973Z" fill="black"/>
<path d="M52.3587 17.2973H50.629V19.027H52.3587V17.2973Z" fill="black"/>
<path d="M54.0884 17.2973H52.3587V19.027H54.0884V17.2973Z" fill="black"/>
<path d="M55.8181 17.2973H54.0884V19.027H55.8181V17.2973Z" fill="black"/>
<path d="M57.5479 17.2973H55.8181V19.027H57.5479V17.2973Z" fill="black"/>
<path d="M61.0073 17.2973H59.2776V19.027H61.0073V17.2973Z" fill="black"/>
<path d="M64.4668 17.2973H62.7371V19.027H64.4668V17.2973Z" fill="black"/>
<path d="M21.2236 19.027H19.4938V20.7568H21.2236V19.027Z" fill="black"/>
<path d="M33.3317 19.027H31.6019L31.6019 20.7568H33.3317V19.027Z" fill="black"/>
<path d="M36.7911 19.027H35.0614V20.7568H36.7911V19.027Z" fill="black"/>
<path d="M43.71 19.027H41.9803V20.7568H43.71V19.027Z" fill="black"/>
<path d="M45.4398 19.027H43.71V20.7568H45.4398V19.027Z" fill="black"/>
<path d="M48.8992 19.027H47.1695V20.7568H48.8992V19.027Z" fill="black"/>
<path d="M50.629 19.027H48.8992V20.7568H50.629V19.027Z" fill="black"/>
<path d="M52.3587 19.027H50.629V20.7568H52.3587V19.027Z" fill="black"/>
<path d="M54.0884 19.027H52.3587V20.7568H54.0884V19.027Z" fill="black"/>
<path d="M12.5749 20.7568H10.8452V22.4865H12.5749V20.7568Z" fill="black"/>
<path d="M16.0344 20.7568H14.3046V22.4865H16.0344V20.7568Z" fill="black"/>
<path d="M19.4938 20.7568L17.7641 20.7568V22.4865H19.4938V20.7568Z" fill="black"/>
<path d="M21.2236 20.7568H19.4938V22.4865H21.2236V20.7568Z" fill="black"/>
<path d="M22.9533 20.7568L21.2236 20.7568V22.4865H22.9533V20.7568Z" fill="black"/>
<path d="M24.683 20.7568H22.9533V22.4865H24.683V20.7568Z" fill="black"/>
<path d="M26.4127 20.7568H24.683V22.4865H26.4127V20.7568Z" fill="black"/>
<path d="M29.8722 20.7568H28.1425V22.4865H29.8722V20.7568Z" fill="black"/>
<path d="M36.7911 20.7568H35.0614V22.4865H36.7911V20.7568Z" fill="black"/>
<path d="M38.5209 20.7568L36.7911 20.7568V22.4865H38.5209V20.7568Z" fill="black"/>
<path d="M40.2506 20.7568H38.5209V22.4865H40.2506V20.7568Z" fill="black"/>
<path d="M41.9803 20.7568L40.2506 20.7568V22.4865H41.9803V20.7568Z" fill="black"/>
<path d="M50.629 20.7568H48.8992V22.4865H50.629V20.7568Z" fill="black"/>
<path d="M52.3587 20.7568H50.629V22.4865H52.3587V20.7568Z" fill="black"/>
<path d="M64.4668 20.7568H62.7371V22.4865H64.4668V20.7568Z" fill="black"/>
<path d="M2.19653 22.4865H0.466797V24.2162H2.19653V22.4865Z" fill="black"/>
<path d="M3.92626 22.4865H2.19653V24.2162H3.92626V22.4865Z" fill="black"/>
<path d="M5.65599 22.4865H3.92626V24.2162H5.65599V22.4865Z" fill="black"/>
<path d="M7.38572 22.4865H5.65599V24.2162H7.38572V22.4865Z" fill="black"/>
<path d="M9.11545 22.4865H7.38572V24.2162H9.11545V22.4865Z" fill="black"/>
<path d="M10.8452 22.4865L9.11545 22.4865V24.2162H10.8452V22.4865Z" fill="black"/>
<path d="M14.3046 22.4865H12.5749V24.2162H14.3046V22.4865Z" fill="black"/>
<path d="M17.7641 22.4865H16.0344V24.2162H17.7641V22.4865Z" fill="black"/>
<path d="M21.2236 22.4865H19.4938V24.2162H21.2236V22.4865Z" fill="black"/>
<path d="M22.9533 22.4865H21.2236V24.2162H22.9533V22.4865Z" fill="black"/>
<path d="M28.1425 22.4865H26.4127L26.4127 24.2162H28.1425L28.1425 22.4865Z" fill="black"/>
<path d="M29.8722 22.4865H28.1425L28.1425 24.2162H29.8722V22.4865Z" fill="black"/>
<path d="M33.3317 22.4865H31.6019V24.2162H33.3317V22.4865Z" fill="black"/>
<path d="M35.0614 22.4865L33.3317 22.4865V24.2162H35.0614V22.4865Z" fill="black"/>
<path d="M38.5209 22.4865H36.7911V24.2162H38.5209V22.4865Z" fill="black"/>
<path d="M40.2506 22.4865H38.5209V24.2162H40.2506V22.4865Z" fill="black"/>
<path d="M41.9803 22.4865H40.2506V24.2162H41.9803V22.4865Z" fill="black"/>
<path d="M45.4398 22.4865H43.71V24.2162H45.4398V22.4865Z" fill="black"/>
<path d="M48.8992 22.4865L47.1695 22.4865V24.2162H48.8992V22.4865Z" fill="black"/>
<path d="M52.3587 22.4865H50.629V24.2162H52.3587V22.4865Z" fill="black"/>
<path d="M55.8181 22.4865H54.0884V24.2162H55.8181V22.4865Z" fill="black"/>
<path d="M57.5479 22.4865H55.8181V24.2162H57.5479V22.4865Z" fill="black"/>
<path d="M61.0073 22.4865H59.2776V24.2162H61.0073V22.4865Z" fill="black"/>
<path d="M62.7371 22.4865L61.0073 22.4865V24.2162H62.7371V22.4865Z" fill="black"/>
<path d="M2.19653 24.2162H0.466797V25.9459H2.19653V24.2162Z" fill="black"/>
<path d="M3.92626 24.2162H2.19653V25.9459H3.92626V24.2162Z" fill="black"/>
<path d="M7.38572 24.2162H5.65599V25.9459H7.38572V24.2162Z" fill="black"/>
<path d="M9.11545 24.2162H7.38572V25.9459H9.11545V24.2162Z" fill="black"/>
<path d="M12.5749 24.2162H10.8452V25.9459H12.5749V24.2162Z" fill="black"/>
<path d="M22.9533 24.2162H21.2236L21.2236 25.9459H22.9533V24.2162Z" fill="black"/>
<path d="M26.4127 24.2162H24.683V25.9459H26.4127L26.4127 24.2162Z" fill="black"/>
<path d="M28.1425 24.2162H26.4127L26.4127 25.9459H28.1425V24.2162Z" fill="black"/>
<path d="M29.8722 24.2162H28.1425V25.9459H29.8722V24.2162Z" fill="black"/>
<path d="M31.6019 24.2162H29.8722V25.9459H31.6019L31.6019 24.2162Z" fill="black"/>
<path d="M33.3317 24.2162H31.6019L31.6019 25.9459H33.3317V24.2162Z" fill="black"/>
<path d="M40.2506 24.2162H38.5209V25.9459H40.2506V24.2162Z" fill="black"/>
<path d="M43.71 24.2162H41.9803V25.9459H43.71V24.2162Z" fill="black"/>
<path d="M50.629 24.2162H48.8992V25.9459H50.629V24.2162Z" fill="black"/>
<path d="M52.3587 24.2162H50.629V25.9459H52.3587V24.2162Z" fill="black"/>
<path d="M61.0073 24.2162H59.2776V25.9459H61.0073V24.2162Z" fill="black"/>
<path d="M62.7371 24.2162H61.0073V25.9459H62.7371V24.2162Z" fill="black"/>
<path d="M2.19653 25.9459H0.466797V27.6757H2.19653V25.9459Z" fill="black"/>
<path d="M5.65599 25.9459H3.92626V27.6757H5.65599V25.9459Z" fill="black"/>
<path d="M7.38572 25.9459H5.65599V27.6757H7.38572V25.9459Z" fill="black"/>
<path d="M10.8452 25.9459H9.11545V27.6757H10.8452V25.9459Z" fill="black"/>
<path d="M14.3046 25.9459L12.5749 25.9459V27.6757H14.3046V25.9459Z" fill="black"/>
<path d="M16.0344 25.9459H14.3046V27.6757H16.0344V25.9459Z" fill="black"/>
<path d="M17.7641 25.9459H16.0344V27.6757H17.7641V25.9459Z" fill="black"/>
<path d="M22.9533 25.9459H21.2236V27.6757H22.9533V25.9459Z" fill="black"/>
<path d="M24.683 25.9459H22.9533V27.6757H24.683V25.9459Z" fill="black"/>
<path d="M28.1425 25.9459H26.4127L26.4127 27.6757H28.1425V25.9459Z" fill="black"/>
<path d="M29.8722 25.9459H28.1425V27.6757H29.8722V25.9459Z" fill="black"/>
<path d="M35.0614 25.9459L33.3317 25.9459V27.6757H35.0614V25.9459Z" fill="black"/>
<path d="M36.7911 25.9459H35.0614V27.6757H36.7911V25.9459Z" fill="black"/>
<path d="M43.71 25.9459H41.9803V27.6757H43.71V25.9459Z" fill="black"/>
<path d="M48.8992 25.9459L47.1695 25.9459V27.6757H48.8992V25.9459Z" fill="black"/>
<path d="M52.3587 25.9459H50.629V27.6757H52.3587V25.9459Z" fill="black"/>
<path d="M54.0884 25.9459L52.3587 25.9459V27.6757H54.0884V25.9459Z" fill="black"/>
<path d="M55.8181 25.9459H54.0884V27.6757H55.8181V25.9459Z" fill="black"/>
<path d="M59.2776 25.9459L57.5479 25.9459V27.6757H59.2776V25.9459Z" fill="black"/>
<path d="M61.0073 25.9459H59.2776V27.6757H61.0073V25.9459Z" fill="black"/>
<path d="M62.7371 25.9459H61.0073V27.6757H62.7371V25.9459Z" fill="black"/>
<path d="M10.8452 27.6757H9.11545V29.4054H10.8452V27.6757Z" fill="black"/>
<path d="M12.5749 27.6757H10.8452V29.4054H12.5749V27.6757Z" fill="black"/>
<path d="M19.4938 27.6757L17.7641 27.6757V29.4054H19.4938V27.6757Z" fill="black"/>
<path d="M21.2236 27.6757L19.4938 27.6757V29.4054H21.2236L21.2236 27.6757Z" fill="black"/>
<path d="M22.9533 27.6757H21.2236L21.2236 29.4054H22.9533V27.6757Z" fill="black"/>
<path d="M24.683 27.6757H22.9533V29.4054H24.683V27.6757Z" fill="black"/>
<path d="M28.1425 27.6757H26.4127V29.4054H28.1425V27.6757Z" fill="black"/>
<path d="M35.0614 27.6757H33.3317V29.4054H35.0614V27.6757Z" fill="black"/>
<path d="M36.7911 27.6757H35.0614V29.4054H36.7911V27.6757Z" fill="black"/>
<path d="M40.2506 27.6757H38.5209V29.4054H40.2506V27.6757Z" fill="black"/>
<path d="M41.9803 27.6757L40.2506 27.6757V29.4054H41.9803V27.6757Z" fill="black"/>
<path d="M43.71 27.6757H41.9803V29.4054H43.71V27.6757Z" fill="black"/>
<path d="M50.629 27.6757H48.8992V29.4054H50.629V27.6757Z" fill="black"/>
<path d="M52.3587 27.6757H50.629V29.4054H52.3587V27.6757Z" fill="black"/>
<path d="M57.5479 27.6757H55.8181V29.4054H57.5479V27.6757Z" fill="black"/>
<path d="M59.2776 27.6757H57.5479V29.4054H59.2776V27.6757Z" fill="black"/>
<path d="M3.92626 29.4054H2.19653V31.1351H3.92626V29.4054Z" fill="black"/>
<path d="M7.38572 29.4054H5.65599V31.1351H7.38572V29.4054Z" fill="black"/>
<path d="M10.8452 29.4054H9.11545V31.1351H10.8452V29.4054Z" fill="black"/>
<path d="M19.4938 29.4054H17.7641V31.1351H19.4938V29.4054Z" fill="black"/>
<path d="M24.683 29.4054H22.9533L22.9533 31.1351H24.683V29.4054Z" fill="black"/>
<path d="M29.8722 29.4054L28.1425 29.4054L28.1425 31.1351H29.8722V29.4054Z" fill="black"/>
<path d="M33.3317 29.4054L31.6019 29.4054V31.1351H33.3317V29.4054Z" fill="black"/>
<path d="M35.0614 29.4054H33.3317V31.1351H35.0614V29.4054Z" fill="black"/>
<path d="M38.5209 29.4054H36.7911V31.1351H38.5209V29.4054Z" fill="black"/>
<path d="M41.9803 29.4054H40.2506V31.1351H41.9803V29.4054Z" fill="black"/>
<path d="M45.4398 29.4054L43.71 29.4054V31.1351H45.4398V29.4054Z" fill="black"/>
<path d="M47.1695 29.4054H45.4398V31.1351H47.1695V29.4054Z" fill="black"/>
<path d="M55.8181 29.4054L54.0884 29.4054V31.1351H55.8181V29.4054Z" fill="black"/>
<path d="M61.0073 29.4054L59.2776 29.4054V31.1351H61.0073V29.4054Z" fill="black"/>
<path d="M5.65599 31.1351H3.92626V32.8649H5.65599V31.1351Z" fill="black"/>
<path d="M7.38572 31.1351H5.65599V32.8649H7.38572V31.1351Z" fill="black"/>
<path d="M10.8452 31.1351H9.11545V32.8649H10.8452V31.1351Z" fill="black"/>
<path d="M12.5749 31.1351L10.8452 31.1351V32.8649H12.5749V31.1351Z" fill="black"/>
<path d="M16.0344 31.1351H14.3046V32.8649H16.0344V31.1351Z" fill="black"/>
<path d="M17.7641 31.1351L16.0344 31.1351V32.8649H17.7641V31.1351Z" fill="black"/>
<path d="M19.4938 31.1351H17.7641V32.8649H19.4938V31.1351Z" fill="black"/>
<path d="M21.2236 31.1351L19.4938 31.1351V32.8649H21.2236V31.1351Z" fill="black"/>
<path d="M31.6019 31.1351H29.8722L29.8722 32.8649H31.6019L31.6019 31.1351Z" fill="black"/>
<path d="M33.3317 31.1351H31.6019L31.6019 32.8649H33.3317V31.1351Z" fill="black"/>
<path d="M36.7911 31.1351H35.0614V32.8649H36.7911V31.1351Z" fill="black"/>
<path d="M38.5209 31.1351H36.7911V32.8649H38.5209V31.1351Z" fill="black"/>
<path d="M40.2506 31.1351H38.5209V32.8649H40.2506V31.1351Z" fill="black"/>
<path d="M48.8992 31.1351L47.1695 31.1351V32.8649H48.8992V31.1351Z" fill="black"/>
<path d="M54.0884 31.1351L52.3587 31.1351V32.8649H54.0884V31.1351Z" fill="black"/>
<path d="M55.8181 31.1351H54.0884V32.8649H55.8181V31.1351Z" fill="black"/>
<path d="M61.0073 31.1351H59.2776V32.8649H61.0073V31.1351Z" fill="black"/>
<path d="M62.7371 31.1351L61.0073 31.1351V32.8649H62.7371V31.1351Z" fill="black"/>
<path d="M5.65599 32.8649H3.92626V34.5946H5.65599V32.8649Z" fill="black"/>
<path d="M9.11545 32.8649H7.38572V34.5946H9.11545V32.8649Z" fill="black"/>
<path d="M10.8452 32.8649H9.11545V34.5946H10.8452V32.8649Z" fill="black"/>
<path d="M16.0344 32.8649H14.3046V34.5946H16.0344V32.8649Z" fill="black"/>
<path d="M19.4938 32.8649H17.7641V34.5946H19.4938V32.8649Z" fill="black"/>
<path d="M22.9533 32.8649H21.2236L21.2236 34.5946H22.9533V32.8649Z" fill="black"/>
<path d="M26.4127 32.8649H24.683V34.5946H26.4127V32.8649Z" fill="black"/>
<path d="M31.6019 32.8649H29.8722V34.5946H31.6019V32.8649Z" fill="black"/>
<path d="M36.7911 32.8649H35.0614V34.5946H36.7911V32.8649Z" fill="black"/>
<path d="M38.5209 32.8649H36.7911V34.5946H38.5209V32.8649Z" fill="black"/>
<path d="M48.8992 32.8649H47.1695V34.5946H48.8992V32.8649Z" fill="black"/>
<path d="M50.629 32.8649H48.8992V34.5946H50.629V32.8649Z" fill="black"/>
<path d="M55.8181 32.8649H54.0884V34.5946H55.8181V32.8649Z" fill="black"/>
<path d="M62.7371 32.8649H61.0073V34.5946H62.7371V32.8649Z" fill="black"/>
<path d="M64.4668 32.8649H62.7371V34.5946H64.4668V32.8649Z" fill="black"/>
<path d="M7.38572 34.5946H5.65599V36.3243H7.38572V34.5946Z" fill="black"/>
<path d="M9.11545 34.5946H7.38572V36.3243H9.11545V34.5946Z" fill="black"/>
<path d="M10.8452 34.5946H9.11545V36.3243H10.8452V34.5946Z" fill="black"/>
<path d="M12.5749 34.5946H10.8452V36.3243H12.5749V34.5946Z" fill="black"/>
<path d="M17.7641 34.5946H16.0344V36.3243H17.7641V34.5946Z" fill="black"/>
<path d="M19.4938 34.5946H17.7641V36.3243H19.4938V34.5946Z" fill="black"/>
<path d="M21.2236 34.5946H19.4938V36.3243H21.2236L21.2236 34.5946Z" fill="black"/>
<path d="M26.4127 34.5946H24.683V36.3243H26.4127V34.5946Z" fill="black"/>
<path d="M28.1425 34.5946H26.4127V36.3243H28.1425V34.5946Z" fill="black"/>
<path d="M33.3317 34.5946H31.6019L31.6019 36.3243H33.3317V34.5946Z" fill="black"/>
<path d="M35.0614 34.5946H33.3317V36.3243H35.0614V34.5946Z" fill="black"/>
<path d="M48.8992 34.5946H47.1695V36.3243H48.8992V34.5946Z" fill="black"/>
<path d="M52.3587 34.5946H50.629V36.3243H52.3587V34.5946Z" fill="black"/>
<path d="M54.0884 34.5946H52.3587V36.3243H54.0884V34.5946Z" fill="black"/>
<path d="M61.0073 34.5946H59.2776V36.3243H61.0073V34.5946Z" fill="black"/>
<path d="M3.92626 36.3243H2.19653V38.0541H3.92626V36.3243Z" fill="black"/>
<path d="M16.0344 36.3243H14.3046V38.0541H16.0344V36.3243Z" fill="black"/>
<path d="M19.4938 36.3243H17.7641V38.0541H19.4938V36.3243Z" fill="black"/>
<path d="M28.1425 36.3243H26.4127L26.4127 38.0541H28.1425V36.3243Z" fill="black"/>
<path d="M29.8722 36.3243H28.1425V38.0541H29.8722V36.3243Z" fill="black"/>
<path d="M33.3317 36.3243H31.6019V38.0541H33.3317V36.3243Z" fill="black"/>
<path d="M36.7911 36.3243H35.0614V38.0541H36.7911V36.3243Z" fill="black"/>
<path d="M38.5209 36.3243H36.7911V38.0541H38.5209V36.3243Z" fill="black"/>
<path d="M40.2506 36.3243H38.5209V38.0541H40.2506V36.3243Z" fill="black"/>
<path d="M48.8992 36.3243H47.1695V38.0541H48.8992V36.3243Z" fill="black"/>
<path d="M50.629 36.3243H48.8992V38.0541H50.629V36.3243Z" fill="black"/>
<path d="M54.0884 36.3243H52.3587V38.0541H54.0884V36.3243Z" fill="black"/>
<path d="M57.5479 36.3243H55.8181V38.0541H57.5479V36.3243Z" fill="black"/>
<path d="M59.2776 36.3243H57.5479V38.0541H59.2776V36.3243Z" fill="black"/>
<path d="M2.19653 38.0541H0.466797V39.7838H2.19653V38.0541Z" fill="black"/>
<path d="M3.92626 38.0541H2.19653V39.7838H3.92626V38.0541Z" fill="black"/>
<path d="M5.65599 38.0541H3.92626V39.7838H5.65599V38.0541Z" fill="black"/>
<path d="M12.5749 38.0541H10.8452V39.7838H12.5749V38.0541Z" fill="black"/>
<path d="M16.0344 38.0541H14.3046V39.7838H16.0344V38.0541Z" fill="black"/>
<path d="M17.7641 38.0541H16.0344V39.7838H17.7641V38.0541Z" fill="black"/>
<path d="M19.4938 38.0541H17.7641V39.7838H19.4938V38.0541Z" fill="black"/>
<path d="M22.9533 38.0541H21.2236V39.7838H22.9533V38.0541Z" fill="black"/>
<path d="M35.0614 38.0541H33.3317V39.7838H35.0614V38.0541Z" fill="black"/>
<path d="M38.5209 38.0541H36.7911V39.7838H38.5209V38.0541Z" fill="black"/>
<path d="M45.4398 38.0541H43.71V39.7838H45.4398V38.0541Z" fill="black"/>
<path d="M47.1695 38.0541H45.4398V39.7838H47.1695V38.0541Z" fill="black"/>
<path d="M50.629 38.0541H48.8992V39.7838H50.629V38.0541Z" fill="black"/>
<path d="M54.0884 38.0541H52.3587V39.7838H54.0884V38.0541Z" fill="black"/>
<path d="M57.5479 38.0541H55.8181V39.7838H57.5479V38.0541Z" fill="black"/>
<path d="M59.2776 38.0541H57.5479V39.7838H59.2776V38.0541Z" fill="black"/>
<path d="M62.7371 38.0541H61.0073V39.7838H62.7371V38.0541Z" fill="black"/>
<path d="M2.19653 39.7838H0.466797V41.5135H2.19653V39.7838Z" fill="black"/>
<path d="M3.92626 39.7838H2.19653V41.5135H3.92626V39.7838Z" fill="black"/>
<path d="M17.7641 39.7838H16.0344V41.5135H17.7641V39.7838Z" fill="black"/>
<path d="M19.4938 39.7838H17.7641V41.5135H19.4938V39.7838Z" fill="black"/>
<path d="M21.2236 39.7838H19.4938V41.5135H21.2236L21.2236 39.7838Z" fill="black"/>
<path d="M28.1425 39.7838H26.4127V41.5135H28.1425V39.7838Z" fill="black"/>
<path d="M31.6019 39.7838H29.8722V41.5135H31.6019V39.7838Z" fill="black"/>
<path d="M38.5209 39.7838H36.7911V41.5135H38.5209V39.7838Z" fill="black"/>
<path d="M40.2506 39.7838H38.5209V41.5135H40.2506V39.7838Z" fill="black"/>
<path d="M43.71 39.7838H41.9803V41.5135H43.71V39.7838Z" fill="black"/>
<path d="M50.629 39.7838H48.8992V41.5135H50.629V39.7838Z" fill="black"/>
<path d="M52.3587 39.7838H50.629V41.5135H52.3587V39.7838Z" fill="black"/>
<path d="M57.5479 39.7838H55.8181V41.5135H57.5479V39.7838Z" fill="black"/>
<path d="M59.2776 39.7838H57.5479V41.5135H59.2776V39.7838Z" fill="black"/>
<path d="M61.0073 39.7838H59.2776V41.5135H61.0073V39.7838Z" fill="black"/>
<path d="M62.7371 39.7838H61.0073V41.5135H62.7371V39.7838Z" fill="black"/>
<path d="M2.19653 41.5135H0.466797V43.2432H2.19653V41.5135Z" fill="black"/>
<path d="M5.65599 41.5135H3.92626V43.2432H5.65599V41.5135Z" fill="black"/>
<path d="M7.38572 41.5135H5.65599V43.2432H7.38572V41.5135Z" fill="black"/>
<path d="M9.11545 41.5135H7.38572V43.2432H9.11545V41.5135Z" fill="black"/>
<path d="M12.5749 41.5135H10.8452V43.2432H12.5749V41.5135Z" fill="black"/>
<path d="M14.3046 41.5135H12.5749V43.2432H14.3046V41.5135Z" fill="black"/>
<path d="M16.0344 41.5135H14.3046V43.2432H16.0344V41.5135Z" fill="black"/>
<path d="M17.7641 41.5135H16.0344V43.2432H17.7641V41.5135Z" fill="black"/>
<path d="M24.683 41.5135H22.9533V43.2432H24.683V41.5135Z" fill="black"/>
<path d="M26.4127 41.5135H24.683V43.2432H26.4127L26.4127 41.5135Z" fill="black"/>
<path d="M29.8722 41.5135H28.1425L28.1425 43.2432H29.8722L29.8722 41.5135Z" fill="black"/>
<path d="M35.0614 41.5135H33.3317V43.2432H35.0614V41.5135Z" fill="black"/>
<path d="M38.5209 41.5135H36.7911V43.2432H38.5209V41.5135Z" fill="black"/>
<path d="M40.2506 41.5135H38.5209V43.2432H40.2506V41.5135Z" fill="black"/>
<path d="M41.9803 41.5135H40.2506V43.2432H41.9803V41.5135Z" fill="black"/>
<path d="M52.3587 41.5135H50.629V43.2432H52.3587V41.5135Z" fill="black"/>
<path d="M55.8181 41.5135H54.0884V43.2432H55.8181V41.5135Z" fill="black"/>
<path d="M57.5479 41.5135H55.8181V43.2432H57.5479V41.5135Z" fill="black"/>
<path d="M59.2776 41.5135H57.5479V43.2432H59.2776V41.5135Z" fill="black"/>
<path d="M62.7371 41.5135H61.0073V43.2432H62.7371V41.5135Z" fill="black"/>
<path d="M64.4668 41.5135H62.7371V43.2432H64.4668V41.5135Z" fill="black"/>
<path d="M5.65599 43.2432H3.92626V44.973H5.65599V43.2432Z" fill="black"/>
<path d="M7.38572 43.2432H5.65599V44.973H7.38572V43.2432Z" fill="black"/>
<path d="M17.7641 43.2432H16.0344V44.973H17.7641V43.2432Z" fill="black"/>
<path d="M21.2236 43.2432H19.4938V44.973H21.2236V43.2432Z" fill="black"/>
<path d="M22.9533 43.2432H21.2236V44.973H22.9533L22.9533 43.2432Z" fill="black"/>
<path d="M24.683 43.2432H22.9533L22.9533 44.973H24.683V43.2432Z" fill="black"/>
<path d="M29.8722 43.2432H28.1425V44.973H29.8722V43.2432Z" fill="black"/>
<path d="M31.6019 43.2432H29.8722V44.973H31.6019V43.2432Z" fill="black"/>
<path d="M38.5209 43.2432H36.7911V44.973H38.5209V43.2432Z" fill="black"/>
<path d="M41.9803 43.2432H40.2506V44.973H41.9803V43.2432Z" fill="black"/>
<path d="M43.71 43.2432H41.9803V44.973H43.71V43.2432Z" fill="black"/>
<path d="M45.4398 43.2432H43.71V44.973H45.4398V43.2432Z" fill="black"/>
<path d="M50.629 43.2432H48.8992V44.973H50.629V43.2432Z" fill="black"/>
<path d="M52.3587 43.2432H50.629V44.973H52.3587V43.2432Z" fill="black"/>
<path d="M61.0073 43.2432H59.2776V44.973H61.0073V43.2432Z" fill="black"/>
<path d="M62.7371 43.2432H61.0073V44.973H62.7371V43.2432Z" fill="black"/>
<path d="M64.4668 43.2432H62.7371V44.973H64.4668V43.2432Z" fill="black"/>
<path d="M2.19653 44.973H0.466797V46.7027H2.19653V44.973Z" fill="black"/>
<path d="M3.92626 44.973H2.19653V46.7027H3.92626V44.973Z" fill="black"/>
<path d="M7.38572 44.973H5.65599V46.7027H7.38572V44.973Z" fill="black"/>
<path d="M9.11545 44.973H7.38572V46.7027H9.11545V44.973Z" fill="black"/>
<path d="M12.5749 44.973H10.8452V46.7027H12.5749V44.973Z" fill="black"/>
<path d="M22.9533 44.973H21.2236L21.2236 46.7027H22.9533V44.973Z" fill="black"/>
<path d="M24.683 44.973H22.9533V46.7027H24.683V44.973Z" fill="black"/>
<path d="M26.4127 44.973H24.683V46.7027H26.4127V44.973Z" fill="black"/>
<path d="M28.1425 44.973H26.4127V46.7027H28.1425L28.1425 44.973Z" fill="black"/>
<path d="M33.3317 44.973H31.6019L31.6019 46.7027H33.3317V44.973Z" fill="black"/>
<path d="M40.2506 44.973H38.5209V46.7027H40.2506V44.973Z" fill="black"/>
<path d="M41.9803 44.973H40.2506V46.7027H41.9803V44.973Z" fill="black"/>
<path d="M43.71 44.973H41.9803V46.7027H43.71V44.973Z" fill="black"/>
<path d="M45.4398 44.973H43.71V46.7027H45.4398V44.973Z" fill="black"/>
<path d="M47.1695 44.973H45.4398V46.7027H47.1695V44.973Z" fill="black"/>
<path d="M54.0884 44.973H52.3587V46.7027H54.0884V44.973Z" fill="black"/>
<path d="M55.8181 44.973H54.0884V46.7027H55.8181V44.973Z" fill="black"/>
<path d="M59.2776 44.973H57.5479V46.7027H59.2776V44.973Z" fill="black"/>
<path d="M61.0073 44.973H59.2776V46.7027H61.0073V44.973Z" fill="black"/>
<path d="M62.7371 44.973H61.0073V46.7027H62.7371V44.973Z" fill="black"/>
<path d="M64.4668 44.973H62.7371V46.7027H64.4668V44.973Z" fill="black"/>
<path d="M5.65599 46.7027H3.92626V48.4324H5.65599V46.7027Z" fill="black"/>
<path d="M9.11545 46.7027H7.38572V48.4324H9.11545V46.7027Z" fill="black"/>
<path d="M21.2236 46.7027H19.4938V48.4324H21.2236L21.2236 46.7027Z" fill="black"/>
<path d="M24.683 46.7027H22.9533L22.9533 48.4324H24.683V46.7027Z" fill="black"/>
<path d="M28.1425 46.7027H26.4127L26.4127 48.4324H28.1425V46.7027Z" fill="black"/>
<path d="M31.6019 46.7027H29.8722V48.4324H31.6019L31.6019 46.7027Z" fill="black"/>
<path d="M33.3317 46.7027H31.6019L31.6019 48.4324H33.3317V46.7027Z" fill="black"/>
<path d="M35.0614 46.7027H33.3317V48.4324H35.0614V46.7027Z" fill="black"/>
<path d="M36.7911 46.7027H35.0614V48.4324H36.7911V46.7027Z" fill="black"/>
<path d="M41.9803 46.7027H40.2506V48.4324H41.9803V46.7027Z" fill="black"/>
<path d="M45.4398 46.7027H43.71V48.4324H45.4398V46.7027Z" fill="black"/>
<path d="M2.19653 48.4324H0.466797V50.1622H2.19653V48.4324Z" fill="black"/>
<path d="M3.92626 48.4324H2.19653V50.1622H3.92626V48.4324Z" fill="black"/>
<path d="M5.65599 48.4324H3.92626V50.1622H5.65599V48.4324Z" fill="black"/>
<path d="M7.38572 48.4324H5.65599V50.1622H7.38572V48.4324Z" fill="black"/>
<path d="M9.11545 48.4324H7.38572V50.1622H9.11545V48.4324Z" fill="black"/>
<path d="M10.8452 48.4324H9.11545V50.1622H10.8452V48.4324Z" fill="black"/>
<path d="M12.5749 48.4324H10.8452V50.1622H12.5749V48.4324Z" fill="black"/>
<path d="M16.0344 48.4324H14.3046V50.1622H16.0344V48.4324Z" fill="black"/>
<path d="M17.7641 48.4324H16.0344V50.1622H17.7641V48.4324Z" fill="black"/>
<path d="M19.4938 48.4324H17.7641V50.1622H19.4938V48.4324Z" fill="black"/>
<path d="M22.9533 48.4324H21.2236L21.2236 50.1622H22.9533L22.9533 48.4324Z" fill="black"/>
<path d="M24.683 48.4324H22.9533L22.9533 50.1622H24.683V48.4324Z" fill="black"/>
<path d="M33.3317 48.4324H31.6019L31.6019 50.1622H33.3317V48.4324Z" fill="black"/>
<path d="M35.0614 48.4324H33.3317V50.1622H35.0614V48.4324Z" fill="black"/>
<path d="M36.7911 48.4324H35.0614V50.1622H36.7911V48.4324Z" fill="black"/>
<path d="M38.5209 48.4324H36.7911V50.1622H38.5209V48.4324Z" fill="black"/>
<path d="M45.4398 48.4324H43.71V50.1622H45.4398V48.4324Z" fill="black"/>
<path d="M47.1695 48.4324H45.4398V50.1622H47.1695V48.4324Z" fill="black"/>
<path d="M50.629 48.4324H48.8992V50.1622H50.629V48.4324Z" fill="black"/>
<path d="M52.3587 48.4324H50.629V50.1622H52.3587V48.4324Z" fill="black"/>
<path d="M54.0884 48.4324H52.3587V50.1622H54.0884V48.4324Z" fill="black"/>
<path d="M55.8181 48.4324H54.0884V50.1622H55.8181V48.4324Z" fill="black"/>
<path d="M57.5479 48.4324H55.8181V50.1622H57.5479V48.4324Z" fill="black"/>
<path d="M59.2776 48.4324H57.5479V50.1622H59.2776V48.4324Z" fill="black"/>
<path d="M19.4938 50.1622H17.7641V51.8919H19.4938V50.1622Z" fill="black"/>
<path d="M21.2236 50.1622H19.4938V51.8919H21.2236L21.2236 50.1622Z" fill="black"/>
<path d="M22.9533 50.1622H21.2236L21.2236 51.8919H22.9533V50.1622Z" fill="black"/>
<path d="M26.4127 50.1622H24.683V51.8919H26.4127V50.1622Z" fill="black"/>
<path d="M31.6019 50.1622H29.8722V51.8919H31.6019L31.6019 50.1622Z" fill="black"/>
<path d="M35.0614 50.1622H33.3317V51.8919H35.0614V50.1622Z" fill="black"/>
<path d="M36.7911 50.1622H35.0614V51.8919H36.7911V50.1622Z" fill="black"/>
<path d="M38.5209 50.1622H36.7911V51.8919H38.5209V50.1622Z" fill="black"/>
<path d="M45.4398 50.1622H43.71V51.8919H45.4398V50.1622Z" fill="black"/>
<path d="M50.629 50.1622H48.8992V51.8919H50.629V50.1622Z" fill="black"/>
<path d="M57.5479 50.1622H55.8181V51.8919H57.5479V50.1622Z" fill="black"/>
<path d="M59.2776 50.1622H57.5479V51.8919H59.2776V50.1622Z" fill="black"/>
<path d="M62.7371 50.1622H61.0073V51.8919H62.7371V50.1622Z" fill="black"/>
<path d="M64.4668 50.1622H62.7371V51.8919H64.4668V50.1622Z" fill="black"/>
<path d="M2.19653 51.8919H0.466797V53.6216H2.19653V51.8919Z" fill="black"/>
<path d="M3.92626 51.8919H2.19653V53.6216H3.92626V51.8919Z" fill="black"/>
<path d="M5.65599 51.8919H3.92626V53.6216H5.65599V51.8919Z" fill="black"/>
<path d="M7.38572 51.8919H5.65599V53.6216H7.38572V51.8919Z" fill="black"/>
<path d="M9.11545 51.8919H7.38572V53.6216H9.11545V51.8919Z" fill="black"/>
<path d="M10.8452 51.8919H9.11545V53.6216H10.8452V51.8919Z" fill="black"/>
<path d="M12.5749 51.8919H10.8452V53.6216H12.5749V51.8919Z" fill="black"/>
<path d="M16.0344 51.8919H14.3046V53.6216H16.0344V51.8919Z" fill="black"/>
<path d="M17.7641 51.8919H16.0344V53.6216H17.7641V51.8919Z" fill="black"/>
<path d="M22.9533 51.8919H21.2236L21.2236 53.6216H22.9533V51.8919Z" fill="black"/>
<path d="M24.683 51.8919H22.9533V53.6216H24.683V51.8919Z" fill="black"/>
<path d="M28.1425 51.8919H26.4127L26.4127 53.6216H28.1425V51.8919Z" fill="black"/>
<path d="M31.6019 51.8919H29.8722V53.6216H31.6019V51.8919Z" fill="black"/>
<path d="M33.3317 51.8919H31.6019V53.6216H33.3317V51.8919Z" fill="black"/>
<path d="M43.71 51.8919H41.9803V53.6216H43.71V51.8919Z" fill="black"/>
<path d="M45.4398 51.8919H43.71V53.6216H45.4398V51.8919Z" fill="black"/>
<path d="M48.8992 51.8919H47.1695V53.6216H48.8992V51.8919Z" fill="black"/>
<path d="M50.629 51.8919H48.8992V53.6216H50.629V51.8919Z" fill="black"/>
<path d="M54.0884 51.8919H52.3587V53.6216H54.0884V51.8919Z" fill="black"/>
<path d="M57.5479 51.8919H55.8181V53.6216H57.5479V51.8919Z" fill="black"/>
<path d="M59.2776 51.8919H57.5479V53.6216H59.2776V51.8919Z" fill="black"/>
<path d="M61.0073 51.8919H59.2776V53.6216H61.0073V51.8919Z" fill="black"/>
<path d="M62.7371 51.8919H61.0073V53.6216H62.7371V51.8919Z" fill="black"/>
<path d="M64.4668 51.8919H62.7371V53.6216H64.4668V51.8919Z" fill="black"/>
<path d="M2.19653 53.6216H0.466797V55.3514H2.19653V53.6216Z" fill="black"/>
<path d="M12.5749 53.6216H10.8452V55.3514H12.5749V53.6216Z" fill="black"/>
<path d="M17.7641 53.6216H16.0344V55.3514H17.7641V53.6216Z" fill="black"/>
<path d="M19.4938 53.6216H17.7641V55.3514H19.4938V53.6216Z" fill="black"/>
<path d="M21.2236 53.6216H19.4938V55.3514H21.2236L21.2236 53.6216Z" fill="black"/>
<path d="M24.683 53.6216H22.9533L22.9533 55.3514H24.683V53.6216Z" fill="black"/>
<path d="M28.1425 53.6216H26.4127V55.3514H28.1425V53.6216Z" fill="black"/>
<path d="M33.3317 53.6216H31.6019L31.6019 55.3514H33.3317V53.6216Z" fill="black"/>
<path d="M35.0614 53.6216H33.3317V55.3514H35.0614V53.6216Z" fill="black"/>
<path d="M36.7911 53.6216H35.0614V55.3514H36.7911V53.6216Z" fill="black"/>
<path d="M40.2506 53.6216H38.5209V55.3514H40.2506V53.6216Z" fill="black"/>
<path d="M50.629 53.6216H48.8992V55.3514H50.629V53.6216Z" fill="black"/>
<path d="M57.5479 53.6216H55.8181V55.3514H57.5479V53.6216Z" fill="black"/>
<path d="M62.7371 53.6216H61.0073V55.3514H62.7371V53.6216Z" fill="black"/>
<path d="M2.19653 55.3514H0.466797V57.0811H2.19653V55.3514Z" fill="black"/>
<path d="M5.65599 55.3514H3.92626V57.0811H5.65599V55.3514Z" fill="black"/>
<path d="M7.38572 55.3514H5.65599V57.0811H7.38572V55.3514Z" fill="black"/>
<path d="M9.11545 55.3514H7.38572V57.0811H9.11545V55.3514Z" fill="black"/>
<path d="M12.5749 55.3514H10.8452V57.0811H12.5749V55.3514Z" fill="black"/>
<path d="M19.4938 55.3514H17.7641V57.0811H19.4938V55.3514Z" fill="black"/>
<path d="M22.9533 55.3514H21.2236L21.2236 57.0811H22.9533L22.9533 55.3514Z" fill="black"/>
<path d="M24.683 55.3514H22.9533L22.9533 57.0811H24.683V55.3514Z" fill="black"/>
<path d="M26.4127 55.3514H24.683V57.0811H26.4127L26.4127 55.3514Z" fill="black"/>
<path d="M28.1425 55.3514H26.4127L26.4127 57.0811H28.1425V55.3514Z" fill="black"/>
<path d="M29.8722 55.3514H28.1425V57.0811H29.8722V55.3514Z" fill="black"/>
<path d="M35.0614 55.3514H33.3317V57.0811H35.0614V55.3514Z" fill="black"/>
<path d="M36.7911 55.3514H35.0614V57.0811H36.7911V55.3514Z" fill="black"/>
<path d="M41.9803 55.3514H40.2506V57.0811H41.9803V55.3514Z" fill="black"/>
<path d="M43.71 55.3514H41.9803V57.0811H43.71V55.3514Z" fill="black"/>
<path d="M45.4398 55.3514H43.71V57.0811H45.4398V55.3514Z" fill="black"/>
<path d="M50.629 55.3514H48.8992V57.0811H50.629V55.3514Z" fill="black"/>
<path d="M52.3587 55.3514H50.629V57.0811H52.3587V55.3514Z" fill="black"/>
<path d="M54.0884 55.3514H52.3587V57.0811H54.0884V55.3514Z" fill="black"/>
<path d="M55.8181 55.3514H54.0884V57.0811H55.8181V55.3514Z" fill="black"/>
<path d="M57.5479 55.3514H55.8181V57.0811H57.5479V55.3514Z" fill="black"/>
<path d="M59.2776 55.3514H57.5479V57.0811H59.2776V55.3514Z" fill="black"/>
<path d="M61.0073 55.3514H59.2776V57.0811H61.0073V55.3514Z" fill="black"/>
<path d="M62.7371 55.3514H61.0073V57.0811H62.7371V55.3514Z" fill="black"/>
<path d="M64.4668 55.3514H62.7371V57.0811H64.4668V55.3514Z" fill="black"/>
<path d="M2.19653 57.0811H0.466797V58.8108H2.19653V57.0811Z" fill="black"/>
<path d="M5.65599 57.0811H3.92626V58.8108H5.65599V57.0811Z" fill="black"/>
<path d="M7.38572 57.0811H5.65599V58.8108H7.38572V57.0811Z" fill="black"/>
<path d="M9.11545 57.0811H7.38572V58.8108H9.11545V57.0811Z" fill="black"/>
<path d="M12.5749 57.0811H10.8452V58.8108H12.5749V57.0811Z" fill="black"/>
<path d="M16.0344 57.0811H14.3046V58.8108H16.0344V57.0811Z" fill="black"/>
<path d="M19.4938 57.0811H17.7641V58.8108H19.4938V57.0811Z" fill="black"/>
<path d="M24.683 57.0811H22.9533L22.9533 58.8108H24.683V57.0811Z" fill="black"/>
<path d="M29.8722 57.0811H28.1425L28.1425 58.8108H29.8722V57.0811Z" fill="black"/>
<path d="M38.5209 57.0811H36.7911V58.8108H38.5209V57.0811Z" fill="black"/>
<path d="M41.9803 57.0811H40.2506V58.8108H41.9803V57.0811Z" fill="black"/>
<path d="M45.4398 57.0811H43.71V58.8108H45.4398V57.0811Z" fill="black"/>
<path d="M47.1695 57.0811H45.4398V58.8108H47.1695V57.0811Z" fill="black"/>
<path d="M57.5479 57.0811H55.8181V58.8108H57.5479V57.0811Z" fill="black"/>
<path d="M59.2776 57.0811H57.5479V58.8108H59.2776V57.0811Z" fill="black"/>
<path d="M62.7371 57.0811H61.0073V58.8108H62.7371V57.0811Z" fill="black"/>
<path d="M64.4668 57.0811H62.7371V58.8108H64.4668V57.0811Z" fill="black"/>
<path d="M2.19653 58.8108H0.466797V60.5405H2.19653V58.8108Z" fill="black"/>
<path d="M5.65599 58.8108H3.92626V60.5405H5.65599V58.8108Z" fill="black"/>
<path d="M7.38572 58.8108H5.65599V60.5405H7.38572V58.8108Z" fill="black"/>
<path d="M9.11545 58.8108H7.38572V60.5405H9.11545V58.8108Z" fill="black"/>
<path d="M12.5749 58.8108H10.8452V60.5405H12.5749V58.8108Z" fill="black"/>
<path d="M21.2236 58.8108H19.4938V60.5405H21.2236V58.8108Z" fill="black"/>
<path d="M22.9533 58.8108H21.2236V60.5405H22.9533L22.9533 58.8108Z" fill="black"/>
<path d="M26.4127 58.8108H24.683V60.5405H26.4127V58.8108Z" fill="black"/>
<path d="M29.8722 58.8108H28.1425V60.5405H29.8722V58.8108Z" fill="black"/>
<path d="M31.6019 58.8108H29.8722V60.5405H31.6019V58.8108Z" fill="black"/>
<path d="M41.9803 58.8108H40.2506V60.5405H41.9803V58.8108Z" fill="black"/>
<path d="M43.71 58.8108H41.9803V60.5405H43.71V58.8108Z" fill="black"/>
<path d="M47.1695 58.8108H45.4398V60.5405H47.1695V58.8108Z" fill="black"/>
<path d="M52.3587 58.8108H50.629V60.5405H52.3587V58.8108Z" fill="black"/>
<path d="M54.0884 58.8108H52.3587V60.5405H54.0884V58.8108Z" fill="black"/>
<path d="M61.0073 58.8108H59.2776V60.5405H61.0073V58.8108Z" fill="black"/>
<path d="M62.7371 58.8108H61.0073V60.5405H62.7371V58.8108Z" fill="black"/>
<path d="M2.19653 60.5405H0.466797V62.2703H2.19653V60.5405Z" fill="black"/>
<path d="M12.5749 60.5405H10.8452V62.2703H12.5749V60.5405Z" fill="black"/>
<path d="M16.0344 60.5405H14.3046V62.2703H16.0344V60.5405Z" fill="black"/>
<path d="M17.7641 60.5405H16.0344V62.2703H17.7641V60.5405Z" fill="black"/>
<path d="M22.9533 60.5405H21.2236L21.2236 62.2703H22.9533V60.5405Z" fill="black"/>
<path d="M24.683 60.5405H22.9533V62.2703H24.683V60.5405Z" fill="black"/>
<path d="M26.4127 60.5405H24.683V62.2703H26.4127V60.5405Z" fill="black"/>
<path d="M28.1425 60.5405H26.4127V62.2703H28.1425L28.1425 60.5405Z" fill="black"/>
<path d="M31.6019 60.5405H29.8722L29.8722 62.2703H31.6019V60.5405Z" fill="black"/>
<path d="M33.3317 60.5405H31.6019V62.2703H33.3317V60.5405Z" fill="black"/>
<path d="M35.0614 60.5405H33.3317V62.2703H35.0614V60.5405Z" fill="black"/>
<path d="M40.2506 60.5405H38.5209V62.2703H40.2506V60.5405Z" fill="black"/>
<path d="M45.4398 60.5405H43.71V62.2703H45.4398V60.5405Z" fill="black"/>
<path d="M47.1695 60.5405H45.4398V62.2703H47.1695V60.5405Z" fill="black"/>
<path d="M50.629 60.5405H48.8992V62.2703H50.629V60.5405Z" fill="black"/>
<path d="M54.0884 60.5405H52.3587V62.2703H54.0884V60.5405Z" fill="black"/>
<path d="M55.8181 60.5405H54.0884V62.2703H55.8181V60.5405Z" fill="black"/>
<path d="M57.5479 60.5405H55.8181V62.2703H57.5479V60.5405Z" fill="black"/>
<path d="M64.4668 60.5405H62.7371V62.2703H64.4668V60.5405Z" fill="black"/>
<path d="M2.19653 62.2703H0.466797V64H2.19653V62.2703Z" fill="black"/>
<path d="M3.92626 62.2703H2.19653V64H3.92626V62.2703Z" fill="black"/>
<path d="M5.65599 62.2703H3.92626V64H5.65599V62.2703Z" fill="black"/>
<path d="M7.38572 62.2703H5.65599V64H7.38572V62.2703Z" fill="black"/>
<path d="M9.11545 62.2703H7.38572V64H9.11545V62.2703Z" fill="black"/>
<path d="M10.8452 62.2703H9.11545V64H10.8452V62.2703Z" fill="black"/>
<path d="M12.5749 62.2703H10.8452V64H12.5749V62.2703Z" fill="black"/>
<path d="M16.0344 62.2703H14.3046V64H16.0344V62.2703Z" fill="black"/>
<path d="M22.9533 62.2703H21.2236V64H22.9533V62.2703Z" fill="black"/>
<path d="M28.1425 62.2703H26.4127L26.4127 64H28.1425V62.2703Z" fill="black"/>
<path d="M31.6019 62.2703H29.8722V64H31.6019V62.2703Z" fill="black"/>
<path d="M33.3317 62.2703H31.6019V64H33.3317V62.2703Z" fill="black"/>
<path d="M36.7911 62.2703H35.0614V64H36.7911V62.2703Z" fill="black"/>
<path d="M45.4398 62.2703H43.71V64H45.4398V62.2703Z" fill="black"/>
<path d="M48.8992 62.2703H47.1695V64H48.8992V62.2703Z" fill="black"/>
<path d="M50.629 62.2703H48.8992V64H50.629V62.2703Z" fill="black"/>
<path d="M52.3587 62.2703H50.629V64H52.3587V62.2703Z" fill="black"/>
<path d="M54.0884 62.2703H52.3587V64H54.0884V62.2703Z" fill="black"/>
<path d="M59.2776 62.2703H57.5479V64H59.2776V62.2703Z" fill="black"/>
<path d="M64.4668 62.2703H62.7371V64H64.4668V62.2703Z" fill="black"/>
<path d="M77.2998 3.04688V13H76.001V3.04688H77.2998ZM80.499 3.04688V4.12695H72.8086V3.04688H80.499ZM85.3662 11.7354V7.92773C85.3662 7.63607 85.307 7.38314 85.1885 7.16895C85.0745 6.9502 84.9014 6.78158 84.6689 6.66309C84.4365 6.5446 84.1494 6.48535 83.8076 6.48535C83.4886 6.48535 83.2083 6.54004 82.9668 6.64941C82.7298 6.75879 82.543 6.90234 82.4062 7.08008C82.2741 7.25781 82.208 7.44922 82.208 7.6543H80.9434C80.9434 7.38997 81.0117 7.12793 81.1484 6.86816C81.2852 6.6084 81.4811 6.3737 81.7363 6.16406C81.9961 5.94987 82.306 5.78125 82.666 5.6582C83.0306 5.5306 83.4362 5.4668 83.8828 5.4668C84.4206 5.4668 84.8945 5.55794 85.3047 5.74023C85.7194 5.92253 86.043 6.19824 86.2754 6.56738C86.5124 6.93197 86.6309 7.38997 86.6309 7.94141V11.3867C86.6309 11.6328 86.6514 11.8949 86.6924 12.1729C86.738 12.4508 86.804 12.6901 86.8906 12.8906V13H85.5713C85.5075 12.8542 85.4574 12.6605 85.4209 12.4189C85.3844 12.1729 85.3662 11.945 85.3662 11.7354ZM85.585 8.51562L85.5986 9.4043H84.3203C83.9603 9.4043 83.639 9.43392 83.3564 9.49316C83.0739 9.54785 82.8369 9.63216 82.6455 9.74609C82.4541 9.86003 82.3083 10.0036 82.208 10.1768C82.1077 10.3454 82.0576 10.5436 82.0576 10.7715C82.0576 11.0039 82.11 11.2158 82.2148 11.4072C82.3197 11.5986 82.4769 11.7513 82.6865 11.8652C82.9007 11.9746 83.1628 12.0293 83.4727 12.0293C83.86 12.0293 84.2018 11.9473 84.498 11.7832C84.7943 11.6191 85.029 11.4186 85.2021 11.1816C85.3799 10.9447 85.4756 10.7145 85.4893 10.4912L86.0293 11.0996C85.9974 11.291 85.9108 11.5029 85.7695 11.7354C85.6283 11.9678 85.4391 12.1911 85.2021 12.4053C84.9697 12.6149 84.6917 12.7904 84.3682 12.9316C84.0492 13.0684 83.6891 13.1367 83.2881 13.1367C82.7868 13.1367 82.347 13.0387 81.9688 12.8428C81.5951 12.6468 81.3034 12.3848 81.0938 12.0566C80.8887 11.724 80.7861 11.3525 80.7861 10.9424C80.7861 10.5459 80.8636 10.1973 81.0186 9.89648C81.1735 9.59115 81.3968 9.33822 81.6885 9.1377C81.9801 8.93262 82.3311 8.77767 82.7412 8.67285C83.1514 8.56803 83.6094 8.51562 84.1152 8.51562H85.585ZM84.498 4.40039H83.5889L83.582 3.36133C83.8145 3.34766 84.0036 3.32487 84.1494 3.29297C84.2952 3.25651 84.4023 3.2041 84.4707 3.13574C84.5391 3.06283 84.5732 2.96712 84.5732 2.84863C84.5732 2.75293 84.5436 2.67318 84.4844 2.60938C84.4251 2.54102 84.3431 2.48633 84.2383 2.44531C84.1335 2.39974 84.0127 2.36784 83.876 2.34961C83.7393 2.33138 83.5934 2.32227 83.4385 2.32227L83.4863 1.59766C83.8236 1.59766 84.1198 1.62728 84.375 1.68652C84.6348 1.74577 84.8512 1.83236 85.0244 1.94629C85.2021 2.06022 85.3343 2.19694 85.4209 2.35645C85.512 2.51139 85.5576 2.68457 85.5576 2.87598C85.5576 3.22233 85.4482 3.47526 85.2295 3.63477C85.0107 3.78971 84.7692 3.88542 84.5049 3.92188L84.498 4.40039ZM89.9941 5.60352V13H88.7227V5.60352H89.9941ZM88.627 3.6416C88.627 3.43652 88.6885 3.26335 88.8115 3.12207C88.9391 2.98079 89.126 2.91016 89.3721 2.91016C89.6136 2.91016 89.7982 2.98079 89.9258 3.12207C90.0579 3.26335 90.124 3.43652 90.124 3.6416C90.124 3.83757 90.0579 4.00618 89.9258 4.14746C89.7982 4.28418 89.6136 4.35254 89.3721 4.35254C89.126 4.35254 88.9391 4.28418 88.8115 4.14746C88.6885 4.00618 88.627 3.83757 88.627 3.6416ZM102.422 5.00879H103.393C103.393 5.50553 103.326 5.92253 103.194 6.25977C103.067 6.59701 102.841 6.84993 102.518 7.01855C102.194 7.18717 101.738 7.27148 101.15 7.27148V6.49219C101.561 6.49219 101.854 6.44206 102.032 6.3418C102.21 6.23698 102.319 6.0752 102.36 5.85645C102.401 5.6377 102.422 5.35514 102.422 5.00879ZM100.022 11.291V5.60352H101.294V13H100.084L100.022 11.291ZM100.262 9.73242L100.788 9.71875C100.788 10.2109 100.736 10.6667 100.631 11.0859C100.531 11.5007 100.367 11.8607 100.139 12.166C99.9108 12.4714 99.6123 12.7106 99.2432 12.8838C98.874 13.0524 98.4251 13.1367 97.8965 13.1367C97.5365 13.1367 97.2061 13.0843 96.9053 12.9795C96.609 12.8747 96.3538 12.7129 96.1396 12.4941C95.9255 12.2754 95.7591 11.9906 95.6406 11.6396C95.5267 11.2887 95.4697 10.8672 95.4697 10.375V5.60352H96.7344V10.3887C96.7344 10.7214 96.7708 10.9971 96.8438 11.2158C96.9212 11.43 97.0238 11.6009 97.1514 11.7285C97.2835 11.8516 97.4294 11.9382 97.5889 11.9883C97.7529 12.0384 97.9215 12.0635 98.0947 12.0635C98.6325 12.0635 99.0586 11.9609 99.373 11.7559C99.6875 11.5462 99.9131 11.266 100.05 10.915C100.191 10.5596 100.262 10.1654 100.262 9.73242ZM97.8008 4.65332L99.127 2.64355H100.651L98.8193 4.65332H97.8008ZM105.43 7.18262V13H104.165V5.60352H105.361L105.43 7.18262ZM105.129 9.02148L104.603 9.00098C104.607 8.49512 104.682 8.02799 104.828 7.59961C104.974 7.16667 105.179 6.79069 105.443 6.47168C105.708 6.15267 106.022 5.90658 106.387 5.7334C106.756 5.55566 107.164 5.4668 107.61 5.4668C107.975 5.4668 108.303 5.51693 108.595 5.61719C108.886 5.71289 109.135 5.86784 109.34 6.08203C109.549 6.29622 109.709 6.57422 109.818 6.91602C109.928 7.25326 109.982 7.66569 109.982 8.15332V13H108.711V8.13965C108.711 7.75228 108.654 7.44238 108.54 7.20996C108.426 6.97298 108.26 6.80208 108.041 6.69727C107.822 6.58789 107.553 6.5332 107.234 6.5332C106.92 6.5332 106.633 6.59928 106.373 6.73145C106.118 6.86361 105.897 7.0459 105.71 7.27832C105.528 7.51074 105.384 7.77734 105.279 8.07812C105.179 8.37435 105.129 8.6888 105.129 9.02148ZM116.695 5.60352H117.844V12.8428C117.844 13.4945 117.712 14.0505 117.447 14.5107C117.183 14.971 116.814 15.3197 116.34 15.5566C115.87 15.7982 115.328 15.9189 114.713 15.9189C114.458 15.9189 114.157 15.8779 113.811 15.7959C113.469 15.7184 113.132 15.584 112.799 15.3926C112.471 15.2057 112.195 14.9528 111.972 14.6338L112.635 13.8818C112.945 14.2555 113.268 14.5153 113.605 14.6611C113.947 14.807 114.285 14.8799 114.617 14.8799C115.018 14.8799 115.365 14.8047 115.656 14.6543C115.948 14.5039 116.174 14.2806 116.333 13.9844C116.497 13.6927 116.579 13.3327 116.579 12.9043V7.23047L116.695 5.60352ZM111.603 9.38379V9.24023C111.603 8.67513 111.669 8.16243 111.801 7.70215C111.938 7.2373 112.131 6.83854 112.382 6.50586C112.637 6.17318 112.945 5.91797 113.305 5.74023C113.665 5.55794 114.07 5.4668 114.521 5.4668C114.986 5.4668 115.392 5.54883 115.738 5.71289C116.089 5.8724 116.385 6.1071 116.627 6.41699C116.873 6.72233 117.067 7.09147 117.208 7.52441C117.349 7.95736 117.447 8.44727 117.502 8.99414V9.62305C117.452 10.1654 117.354 10.653 117.208 11.0859C117.067 11.5189 116.873 11.888 116.627 12.1934C116.385 12.4987 116.089 12.7334 115.738 12.8975C115.387 13.057 114.977 13.1367 114.508 13.1367C114.066 13.1367 113.665 13.0433 113.305 12.8564C112.949 12.6696 112.644 12.4076 112.389 12.0703C112.133 11.7331 111.938 11.3366 111.801 10.8809C111.669 10.4206 111.603 9.92155 111.603 9.38379ZM112.867 9.24023V9.38379C112.867 9.75293 112.904 10.0993 112.977 10.4229C113.054 10.7464 113.17 11.0312 113.325 11.2773C113.485 11.5234 113.688 11.7171 113.934 11.8584C114.18 11.9951 114.474 12.0635 114.815 12.0635C115.235 12.0635 115.581 11.9746 115.854 11.7969C116.128 11.6191 116.344 11.3844 116.504 11.0928C116.668 10.8011 116.796 10.4844 116.887 10.1426V8.49512C116.837 8.24447 116.759 8.00293 116.654 7.77051C116.554 7.53353 116.422 7.32389 116.258 7.1416C116.098 6.95475 115.9 6.80664 115.663 6.69727C115.426 6.58789 115.148 6.5332 114.829 6.5332C114.483 6.5332 114.184 6.60612 113.934 6.75195C113.688 6.89323 113.485 7.08919 113.325 7.33984C113.17 7.58594 113.054 7.87305 112.977 8.20117C112.904 8.52474 112.867 8.87109 112.867 9.24023ZM127.899 11.5645V2.5H129.171V13H128.009L127.899 11.5645ZM122.923 9.38379V9.24023C122.923 8.67513 122.991 8.16243 123.128 7.70215C123.269 7.2373 123.467 6.83854 123.723 6.50586C123.982 6.17318 124.29 5.91797 124.646 5.74023C125.006 5.55794 125.407 5.4668 125.849 5.4668C126.313 5.4668 126.719 5.54883 127.065 5.71289C127.416 5.8724 127.713 6.1071 127.954 6.41699C128.2 6.72233 128.394 7.09147 128.535 7.52441C128.676 7.95736 128.774 8.44727 128.829 8.99414V9.62305C128.779 10.1654 128.681 10.653 128.535 11.0859C128.394 11.5189 128.2 11.888 127.954 12.1934C127.713 12.4987 127.416 12.7334 127.065 12.8975C126.715 13.057 126.304 13.1367 125.835 13.1367C125.402 13.1367 125.006 13.0433 124.646 12.8564C124.29 12.6696 123.982 12.4076 123.723 12.0703C123.467 11.7331 123.269 11.3366 123.128 10.8809C122.991 10.4206 122.923 9.92155 122.923 9.38379ZM124.194 9.24023V9.38379C124.194 9.75293 124.231 10.0993 124.304 10.4229C124.381 10.7464 124.5 11.0312 124.659 11.2773C124.819 11.5234 125.021 11.7171 125.268 11.8584C125.514 11.9951 125.808 12.0635 126.149 12.0635C126.569 12.0635 126.913 11.9746 127.182 11.7969C127.455 11.6191 127.674 11.3844 127.838 11.0928C128.002 10.8011 128.13 10.4844 128.221 10.1426V8.49512C128.166 8.24447 128.086 8.00293 127.981 7.77051C127.881 7.53353 127.749 7.32389 127.585 7.1416C127.425 6.95475 127.227 6.80664 126.99 6.69727C126.758 6.58789 126.482 6.5332 126.163 6.5332C125.817 6.5332 125.518 6.60612 125.268 6.75195C125.021 6.89323 124.819 7.08919 124.659 7.33984C124.5 7.58594 124.381 7.87305 124.304 8.20117C124.231 8.52474 124.194 8.87109 124.194 9.24023ZM135.665 11.291V5.60352H136.937V13H135.727L135.665 11.291ZM135.904 9.73242L136.431 9.71875C136.431 10.2109 136.378 10.6667 136.273 11.0859C136.173 11.5007 136.009 11.8607 135.781 12.166C135.553 12.4714 135.255 12.7106 134.886 12.8838C134.517 13.0524 134.068 13.1367 133.539 13.1367C133.179 13.1367 132.849 13.0843 132.548 12.9795C132.252 12.8747 131.996 12.7129 131.782 12.4941C131.568 12.2754 131.402 11.9906 131.283 11.6396C131.169 11.2887 131.112 10.8672 131.112 10.375V5.60352H132.377V10.3887C132.377 10.7214 132.413 10.9971 132.486 11.2158C132.564 11.43 132.666 11.6009 132.794 11.7285C132.926 11.8516 133.072 11.9382 133.231 11.9883C133.396 12.0384 133.564 12.0635 133.737 12.0635C134.275 12.0635 134.701 11.9609 135.016 11.7559C135.33 11.5462 135.556 11.266 135.692 10.915C135.834 10.5596 135.904 10.1654 135.904 9.73242ZM132.869 14.6816C132.869 14.4766 132.931 14.3034 133.054 14.1621C133.181 14.0208 133.368 13.9502 133.614 13.9502C133.856 13.9502 134.04 14.0208 134.168 14.1621C134.3 14.3034 134.366 14.4766 134.366 14.6816C134.366 14.8776 134.3 15.0439 134.168 15.1807C134.04 15.3219 133.856 15.3926 133.614 15.3926C133.368 15.3926 133.181 15.3219 133.054 15.1807C132.931 15.0439 132.869 14.8776 132.869 14.6816ZM140.129 7.18262V13H138.864V5.60352H140.061L140.129 7.18262ZM139.828 9.02148L139.302 9.00098C139.306 8.49512 139.382 8.02799 139.527 7.59961C139.673 7.16667 139.878 6.79069 140.143 6.47168C140.407 6.15267 140.721 5.90658 141.086 5.7334C141.455 5.55566 141.863 5.4668 142.31 5.4668C142.674 5.4668 143.002 5.51693 143.294 5.61719C143.586 5.71289 143.834 5.86784 144.039 6.08203C144.249 6.29622 144.408 6.57422 144.518 6.91602C144.627 7.25326 144.682 7.66569 144.682 8.15332V13H143.41V8.13965C143.41 7.75228 143.353 7.44238 143.239 7.20996C143.125 6.97298 142.959 6.80208 142.74 6.69727C142.521 6.58789 142.253 6.5332 141.934 6.5332C141.619 6.5332 141.332 6.59928 141.072 6.73145C140.817 6.86361 140.596 7.0459 140.409 7.27832C140.227 7.51074 140.083 7.77734 139.979 8.07812C139.878 8.37435 139.828 8.6888 139.828 9.02148ZM151.395 5.60352H152.543V12.8428C152.543 13.4945 152.411 14.0505 152.146 14.5107C151.882 14.971 151.513 15.3197 151.039 15.5566C150.57 15.7982 150.027 15.9189 149.412 15.9189C149.157 15.9189 148.856 15.8779 148.51 15.7959C148.168 15.7184 147.831 15.584 147.498 15.3926C147.17 15.2057 146.894 14.9528 146.671 14.6338L147.334 13.8818C147.644 14.2555 147.967 14.5153 148.305 14.6611C148.646 14.807 148.984 14.8799 149.316 14.8799C149.717 14.8799 150.064 14.8047 150.355 14.6543C150.647 14.5039 150.873 14.2806 151.032 13.9844C151.196 13.6927 151.278 13.3327 151.278 12.9043V7.23047L151.395 5.60352ZM146.302 9.38379V9.24023C146.302 8.67513 146.368 8.16243 146.5 7.70215C146.637 7.2373 146.83 6.83854 147.081 6.50586C147.336 6.17318 147.644 5.91797 148.004 5.74023C148.364 5.55794 148.77 5.4668 149.221 5.4668C149.686 5.4668 150.091 5.54883 150.438 5.71289C150.788 5.8724 151.085 6.1071 151.326 6.41699C151.572 6.72233 151.766 7.09147 151.907 7.52441C152.049 7.95736 152.146 8.44727 152.201 8.99414V9.62305C152.151 10.1654 152.053 10.653 151.907 11.0859C151.766 11.5189 151.572 11.888 151.326 12.1934C151.085 12.4987 150.788 12.7334 150.438 12.8975C150.087 13.057 149.676 13.1367 149.207 13.1367C148.765 13.1367 148.364 13.0433 148.004 12.8564C147.648 12.6696 147.343 12.4076 147.088 12.0703C146.833 11.7331 146.637 11.3366 146.5 10.8809C146.368 10.4206 146.302 9.92155 146.302 9.38379ZM147.566 9.24023V9.38379C147.566 9.75293 147.603 10.0993 147.676 10.4229C147.753 10.7464 147.869 11.0312 148.024 11.2773C148.184 11.5234 148.387 11.7171 148.633 11.8584C148.879 11.9951 149.173 12.0635 149.515 12.0635C149.934 12.0635 150.28 11.9746 150.554 11.7969C150.827 11.6191 151.044 11.3844 151.203 11.0928C151.367 10.8011 151.495 10.4844 151.586 10.1426V8.49512C151.536 8.24447 151.458 8.00293 151.354 7.77051C151.253 7.53353 151.121 7.32389 150.957 7.1416C150.798 6.95475 150.599 6.80664 150.362 6.69727C150.125 6.58789 149.847 6.5332 149.528 6.5332C149.182 6.5332 148.883 6.60612 148.633 6.75195C148.387 6.89323 148.184 7.08919 148.024 7.33984C147.869 7.58594 147.753 7.87305 147.676 8.20117C147.603 8.52474 147.566 8.87109 147.566 9.24023ZM159.311 5.60352V13H158.039V5.60352H159.311ZM157.943 3.6416C157.943 3.43652 158.005 3.26335 158.128 3.12207C158.256 2.98079 158.442 2.91016 158.688 2.91016C158.93 2.91016 159.115 2.98079 159.242 3.12207C159.374 3.26335 159.44 3.43652 159.44 3.6416C159.44 3.83757 159.374 4.00618 159.242 4.14746C159.115 4.28418 158.93 4.35254 158.688 4.35254C158.442 4.35254 158.256 4.28418 158.128 4.14746C158.005 4.00618 157.943 3.83757 157.943 3.6416ZM169.195 7.70898V8.33789C169.195 9.08529 169.102 9.75521 168.915 10.3477C168.728 10.9401 168.459 11.4437 168.108 11.8584C167.757 12.2731 167.336 12.5898 166.844 12.8086C166.356 13.0273 165.809 13.1367 165.203 13.1367C164.615 13.1367 164.075 13.0273 163.583 12.8086C163.095 12.5898 162.672 12.2731 162.312 11.8584C161.956 11.4437 161.68 10.9401 161.484 10.3477C161.288 9.75521 161.19 9.08529 161.19 8.33789V7.70898C161.19 6.96159 161.286 6.29395 161.478 5.70605C161.674 5.11361 161.949 4.61003 162.305 4.19531C162.66 3.77604 163.082 3.45703 163.569 3.23828C164.062 3.01953 164.602 2.91016 165.189 2.91016C165.796 2.91016 166.342 3.01953 166.83 3.23828C167.322 3.45703 167.744 3.77604 168.095 4.19531C168.45 4.61003 168.721 5.11361 168.908 5.70605C169.1 6.29395 169.195 6.96159 169.195 7.70898ZM167.89 8.33789V7.69531C167.89 7.10286 167.828 6.57878 167.705 6.12305C167.587 5.66732 167.411 5.28451 167.179 4.97461C166.946 4.66471 166.661 4.43001 166.324 4.27051C165.992 4.111 165.613 4.03125 165.189 4.03125C164.779 4.03125 164.408 4.111 164.075 4.27051C163.747 4.43001 163.465 4.66471 163.228 4.97461C162.995 5.28451 162.815 5.66732 162.688 6.12305C162.56 6.57878 162.496 7.10286 162.496 7.69531V8.33789C162.496 8.9349 162.56 9.46354 162.688 9.92383C162.815 10.3796 162.997 10.7646 163.234 11.0791C163.476 11.389 163.761 11.6237 164.089 11.7832C164.422 11.9427 164.793 12.0225 165.203 12.0225C165.632 12.0225 166.012 11.9427 166.345 11.7832C166.677 11.6237 166.958 11.389 167.186 11.0791C167.418 10.7646 167.593 10.3796 167.712 9.92383C167.83 9.46354 167.89 8.9349 167.89 8.33789ZM176.476 10.4844C176.476 10.252 176.439 10.0469 176.366 9.86914C176.298 9.68685 176.175 9.52279 175.997 9.37695C175.824 9.23112 175.582 9.09212 175.272 8.95996C174.967 8.8278 174.58 8.69336 174.11 8.55664C173.618 8.41081 173.174 8.24902 172.777 8.07129C172.381 7.889 172.041 7.68164 171.759 7.44922C171.476 7.2168 171.26 6.9502 171.109 6.64941C170.959 6.34863 170.884 6.00456 170.884 5.61719C170.884 5.22982 170.964 4.87207 171.123 4.54395C171.283 4.21582 171.51 3.93099 171.807 3.68945C172.107 3.44336 172.465 3.25195 172.88 3.11523C173.295 2.97852 173.757 2.91016 174.268 2.91016C175.015 2.91016 175.648 3.05371 176.168 3.34082C176.692 3.62337 177.091 3.99479 177.364 4.45508C177.638 4.91081 177.774 5.39844 177.774 5.91797H176.462C176.462 5.54427 176.382 5.21387 176.223 4.92676C176.063 4.63509 175.822 4.40723 175.498 4.24316C175.174 4.07454 174.764 3.99023 174.268 3.99023C173.798 3.99023 173.411 4.06087 173.105 4.20215C172.8 4.34342 172.572 4.53483 172.422 4.77637C172.276 5.0179 172.203 5.29362 172.203 5.60352C172.203 5.81315 172.246 6.00456 172.333 6.17773C172.424 6.34635 172.563 6.50358 172.75 6.64941C172.941 6.79525 173.183 6.92969 173.475 7.05273C173.771 7.17578 174.124 7.29427 174.534 7.4082C175.099 7.56771 175.587 7.74544 175.997 7.94141C176.407 8.13737 176.744 8.3584 177.009 8.60449C177.278 8.84603 177.476 9.12174 177.604 9.43164C177.736 9.73698 177.802 10.0833 177.802 10.4707C177.802 10.8763 177.72 11.2432 177.556 11.5713C177.392 11.8994 177.157 12.1797 176.852 12.4121C176.546 12.6445 176.179 12.8245 175.751 12.9521C175.327 13.0752 174.853 13.1367 174.329 13.1367C173.869 13.1367 173.415 13.0729 172.969 12.9453C172.527 12.8177 172.123 12.6263 171.759 12.3711C171.399 12.1159 171.109 11.8014 170.891 11.4277C170.676 11.0495 170.569 10.612 170.569 10.1152H171.882C171.882 10.457 171.948 10.751 172.08 10.9971C172.212 11.2386 172.392 11.4391 172.62 11.5986C172.853 11.7581 173.115 11.8766 173.406 11.9541C173.702 12.027 174.01 12.0635 174.329 12.0635C174.789 12.0635 175.179 11.9997 175.498 11.8721C175.817 11.7445 176.059 11.5622 176.223 11.3252C176.391 11.0882 176.476 10.8079 176.476 10.4844ZM179.237 12.3301C179.237 12.1159 179.303 11.9359 179.436 11.79C179.572 11.6396 179.768 11.5645 180.023 11.5645C180.279 11.5645 180.472 11.6396 180.604 11.79C180.741 11.9359 180.81 12.1159 180.81 12.3301C180.81 12.5397 180.741 12.7174 180.604 12.8633C180.472 13.0091 180.279 13.082 180.023 13.082C179.768 13.082 179.572 13.0091 179.436 12.8633C179.303 12.7174 179.237 12.5397 179.237 12.3301ZM179.244 6.29395C179.244 6.07975 179.31 5.89974 179.442 5.75391C179.579 5.60352 179.775 5.52832 180.03 5.52832C180.285 5.52832 180.479 5.60352 180.611 5.75391C180.748 5.89974 180.816 6.07975 180.816 6.29395C180.816 6.50358 180.748 6.68132 180.611 6.82715C180.479 6.97298 180.285 7.0459 180.03 7.0459C179.775 7.0459 179.579 6.97298 179.442 6.82715C179.31 6.68132 179.244 6.50358 179.244 6.29395Z" fill="black"/>
<path d="M184.937 23.8509H83.6826C83.2909 23.8509 82.8992 23.8509 82.5075 23.8509C82.1158 23.8509 81.9199 23.8509 81.5282 23.8509C80.9407 23.8509 80.1573 23.8509 79.5697 24.0467C78.9822 24.2426 78.1988 24.4384 77.6112 24.6343C77.0237 25.026 76.4361 25.4177 76.0444 25.8094C75.6527 26.2011 75.0652 26.7886 74.8693 27.3762C74.4776 27.9637 74.2818 28.5513 74.2818 29.3347C74.0859 29.9222 74.0859 30.7056 74.0859 31.2932C74.0859 31.6849 74.0859 31.8807 74.0859 32.2724V55.5785C74.0859 55.9702 74.0859 56.166 74.0859 56.5577C74.0859 57.1453 74.0859 57.9287 74.2818 58.5162C74.4776 59.1038 74.6735 59.8872 74.8693 60.4747C75.261 61.0623 75.6527 61.6498 76.0444 62.0415C76.4361 62.4332 77.0237 63.0208 77.6112 63.2166C78.1988 63.6083 78.7863 63.8042 79.5697 63.8042C80.1573 64 80.9407 64 81.5282 64C81.9199 64 82.1158 64 82.5075 64C82.8992 64 83.2909 64 83.6826 64H184.937C185.328 64 185.72 64 186.112 64C186.503 64 186.699 64 187.091 64C187.679 64 188.462 64 189.05 63.8042C189.637 63.6083 190.42 63.4125 191.008 63.2166C191.596 62.8249 192.183 62.4332 192.575 62.0415C192.966 61.6498 193.358 61.0623 193.75 60.4747C194.142 59.8872 194.337 59.2996 194.337 58.5162C194.533 57.9287 194.533 57.1453 194.533 56.5577C194.533 56.166 194.533 55.9702 194.533 55.5785C194.533 55.1868 194.533 54.7951 194.533 54.4034V33.4475C194.533 33.0558 194.533 32.6641 194.533 32.2724C194.533 31.8807 194.533 31.6849 194.533 31.2932C194.533 30.7056 194.533 29.9222 194.337 29.3347C194.142 28.7471 193.946 27.9637 193.75 27.3762C193.162 26.2011 192.183 25.2218 191.008 24.6343C190.42 24.2426 189.833 24.0467 189.05 24.0467C188.462 23.8509 187.679 23.8509 187.091 23.8509C186.699 23.8509 186.503 23.8509 186.112 23.8509C185.72 23.8509 185.328 23.8509 184.937 23.8509Z" fill="black"/>
<path d="M82.5088 63.2166C82.1171 63.2166 81.9212 63.2166 81.5295 63.2166C80.942 63.2166 80.3544 63.2166 79.571 63.0208C78.9835 62.8249 78.3959 62.8249 77.8084 62.4332C77.2208 62.2374 76.8292 61.8457 76.4375 61.454C76.0458 61.0623 75.6541 60.4747 75.4582 60.083C75.2624 59.4955 75.0665 58.9079 74.8707 58.3204C74.6748 57.7328 74.6748 57.1453 74.6748 56.3619C74.6748 56.166 74.6748 55.3826 74.6748 55.3826V32.2724C74.6748 32.2724 74.6748 31.489 74.6748 31.2932C74.6748 30.7056 74.6748 30.1181 74.8707 29.3347C74.8707 28.7471 75.0665 28.1596 75.4582 27.572C75.8499 27.3762 76.2416 26.7886 76.6333 26.3969C77.025 26.0052 77.6125 25.6135 78.0042 25.4177C78.5918 25.2218 79.1793 25.026 79.7669 24.8301C80.3544 24.6343 80.942 24.6343 81.7254 24.6343H82.7046H186.309H187.288C187.876 24.6343 188.463 24.6343 189.247 24.8301C189.834 25.026 190.422 25.026 191.009 25.4177C191.989 26.0052 192.968 26.7886 193.36 27.7679C193.555 28.3554 193.751 28.943 193.947 29.3347C194.143 29.9222 194.143 30.5098 194.143 31.2932C194.143 31.489 194.143 31.8807 194.143 32.2724C194.143 32.6641 194.143 33.0558 194.143 33.4475V54.5992C194.143 54.9909 194.143 55.3826 194.143 55.7743C194.143 56.166 194.143 56.3619 194.143 56.7536C194.143 57.3411 194.143 57.9287 193.947 58.7121C193.947 59.2996 193.751 59.8872 193.36 60.4747C193.164 61.0623 192.772 61.454 192.38 61.8457C191.989 62.2374 191.401 62.6291 191.009 62.8249C190.422 63.0208 189.834 63.2166 189.247 63.4125C188.659 63.6083 188.072 63.6083 187.288 63.6083C186.897 63.6083 186.701 63.6083 186.309 63.6083H185.134L82.5088 63.2166Z" fill="white"/>
<path d="M99.1536 43.8279C99.1536 42.0652 100.133 40.4984 101.7 39.5192C100.72 38.1482 99.1536 37.169 97.5868 37.169C95.8242 36.9731 94.0616 38.1482 93.2782 38.1482C92.2989 38.1482 90.928 37.169 89.3612 37.169C87.4027 37.169 85.64 38.3441 84.6608 40.1067C82.7023 43.632 84.0732 48.7241 86.0317 51.6618C87.011 53.0328 88.1861 54.5996 89.557 54.5996C90.928 54.5996 91.5155 53.6203 93.2782 53.6203C95.0408 53.6203 95.4325 54.5996 96.9993 54.5996C98.5661 54.5996 99.5453 53.2286 100.525 51.8577C101.308 50.8784 101.7 49.7034 102.091 48.5283C100.525 47.549 99.1536 45.7864 99.1536 43.8279Z" fill="black"/>
<path d="M96.4113 35.4061C97.1947 34.4269 97.5864 33.0559 97.5864 31.685C96.2155 31.8808 95.0404 32.4684 94.257 33.4476C93.4736 34.4269 92.8861 35.602 93.0819 36.9729C94.257 36.9729 95.6279 36.3854 96.4113 35.4061Z" fill="black"/>
<path d="M116.584 51.0746H111.884L110.708 54.404H108.75L113.255 41.8696H115.409L119.913 54.404H117.955L116.584 51.0746ZM112.471 49.5078H116.192L114.234 44.024L112.471 49.5078Z" fill="black"/>
<path d="M129.706 49.8991C129.706 52.641 128.139 54.5994 125.985 54.5994C124.81 54.5994 123.635 54.0119 123.047 53.0327V57.5372H121.089V45.3945H122.852V46.9613C123.439 45.9821 124.614 45.3945 125.789 45.3945C128.139 45.1987 129.706 47.1572 129.706 49.8991ZM127.748 49.8991C127.748 48.1364 126.769 46.7655 125.398 46.7655C124.027 46.7655 123.047 47.9406 123.047 49.8991C123.047 51.6617 124.027 53.0327 125.398 53.0327C126.769 53.0327 127.748 51.8576 127.748 49.8991Z" fill="black"/>
<path d="M139.697 49.8991C139.697 52.641 138.131 54.5994 135.976 54.5994C134.801 54.5994 133.626 54.0119 133.039 53.0327V57.5372H131.08V45.3945H132.843V46.9613C133.43 45.9821 134.605 45.3945 135.78 45.3945C138.131 45.1987 139.697 47.1572 139.697 49.8991ZM137.739 49.8991C137.739 48.1364 136.76 46.7655 135.389 46.7655C134.018 46.7655 133.039 47.9406 133.039 49.8991C133.039 51.6617 134.018 53.0327 135.389 53.0327C136.76 53.0327 137.739 51.8576 137.739 49.8991Z" fill="black"/>
<path d="M146.352 51.0744C146.548 52.2495 147.723 53.0328 149.29 53.0328C150.857 53.0328 152.032 52.2495 152.032 51.0744C152.032 50.0951 151.444 49.5076 149.681 49.1159L148.115 48.7242C145.765 48.1366 144.785 47.1574 144.785 45.3947C144.785 43.2404 146.744 41.6736 149.29 41.6736C152.032 41.6736 153.794 43.2404 153.794 45.3947H151.836C151.64 44.2196 150.661 43.4362 149.094 43.4362C147.527 43.4362 146.548 44.2196 146.548 45.3947C146.548 46.374 147.135 46.7657 148.898 47.1574L150.269 47.5491C152.815 48.1366 153.99 49.1159 153.99 51.0744C153.99 53.4245 152.032 54.7955 149.094 54.7955C146.352 54.7955 144.394 53.4245 144.394 51.0744H146.352Z" fill="black"/>
<path d="M157.908 43.2404V45.3947H159.671V46.9615H157.908V52.0536C157.908 52.837 158.3 53.2287 159.083 53.2287C159.279 53.2287 159.475 53.2287 159.671 53.2287V54.7955C159.279 54.7955 158.887 54.7955 158.691 54.7955C156.929 54.7955 156.145 54.0121 156.145 52.2494V46.9615H154.774V45.3947H156.145V43.2404H157.908Z" fill="black"/>
<path d="M160.649 49.8992C160.649 46.9615 162.412 45.1989 164.958 45.1989C167.7 45.1989 169.267 46.9615 169.267 49.8992C169.267 52.837 167.504 54.5996 164.958 54.5996C162.412 54.5996 160.649 52.837 160.649 49.8992ZM167.504 49.8992C167.504 47.9407 166.525 46.7656 165.154 46.7656C163.783 46.7656 162.804 47.9407 162.804 49.8992C162.804 51.8577 163.783 53.0328 165.154 53.0328C166.525 53.0328 167.504 51.8577 167.504 49.8992Z" fill="black"/>
<path d="M171.029 45.3947H172.792V46.9615C172.987 45.9823 173.967 45.1989 174.946 45.3947C175.142 45.3947 175.338 45.3947 175.533 45.3947V47.1574C175.338 47.1574 174.946 46.9615 174.75 46.9615C173.771 46.9615 172.792 47.7449 172.792 48.7242V48.92V54.4038H170.833L171.029 45.3947Z" fill="black"/>
<path d="M184.155 51.8577C183.96 53.4245 182.197 54.5996 180.238 54.5996C177.496 54.5996 175.93 52.837 175.93 49.8992C175.93 46.9615 177.496 45.1989 180.238 45.1989C182.784 45.1989 184.351 46.9615 184.351 49.7034V50.2909H177.888V50.4868C177.692 51.8577 178.672 53.0328 180.043 53.0328C180.238 53.0328 180.238 53.0328 180.434 53.0328C181.413 53.0328 182.197 52.6411 182.589 51.6619L184.155 51.8577ZM177.888 49.1158H182.393C182.393 47.9407 181.609 46.9615 180.238 46.7656H180.043C178.867 46.7656 177.888 47.7449 177.888 49.1158Z" fill="black"/>
<path d="M111.493 38.5393V33.4472H109.534V32.468H114.235V33.2514H112.276V38.3434L111.493 38.5393Z" fill="black"/>
<path d="M114.622 37.3643C114.622 36.5809 115.21 35.9933 116.385 35.9933H117.56V35.4058C117.56 35.0141 117.168 34.6224 116.581 34.6224C115.993 34.6224 115.797 34.8182 115.601 35.2099H114.818C114.818 34.4265 115.601 33.839 116.581 33.839C117.756 33.839 118.343 34.4265 118.343 35.4058V38.5394H117.56V37.9518C117.364 38.3435 116.776 38.7352 116.189 38.7352C115.405 38.7352 114.622 38.1477 114.622 37.3643ZM117.56 36.9726V36.5809H116.385C115.797 36.5809 115.405 36.7767 115.405 37.1684C115.405 37.5601 115.797 37.756 116.189 37.756C116.972 37.9518 117.56 37.5601 117.56 36.9726ZM115.993 31.8805C116.189 31.8805 116.385 31.8805 116.581 31.8805C117.168 31.8805 117.56 32.2722 117.56 32.6639C117.56 33.0556 117.168 33.4473 116.776 33.6431L116.385 33.2514C116.581 33.2514 116.776 33.0556 116.776 32.8597C116.776 32.6639 116.581 32.468 116.385 32.468C116.189 32.468 115.993 32.468 115.993 32.468V31.8805Z" fill="black"/>
<path d="M119.716 32.6637C119.716 32.272 119.912 32.0762 120.303 32.0762C120.695 32.0762 120.891 32.272 120.891 32.6637C120.891 33.0554 120.695 33.2513 120.303 33.2513C119.912 33.2513 119.716 33.0554 119.716 32.6637ZM119.912 34.0347H120.891V38.5392H119.912V34.0347Z" fill="black"/>
<path d="M126.77 38.5392H125.79L124.224 34.0347H125.203L126.378 37.56L127.553 34.0347H128.532L126.77 38.5392Z" fill="black"/>
<path d="M133.231 37.3643C133.035 38.1477 132.056 38.7353 131.272 38.7353C130.097 38.7353 129.118 37.9519 129.118 36.7768C129.118 36.5809 129.118 36.5809 129.118 36.3851C128.922 35.21 129.705 34.2307 130.881 34.0349C131.076 34.0349 131.076 34.0349 131.272 34.0349C132.447 34.0349 133.231 34.8183 133.231 36.3851V36.7768H130.097C130.097 37.3643 130.489 37.9519 131.272 38.1477C131.272 38.1477 131.272 38.1477 131.468 38.1477C131.86 38.1477 132.251 37.9519 132.643 37.5602L133.231 37.3643ZM132.839 33.4473H131.86L131.076 32.6639L130.293 33.4473H129.51L130.685 32.0764H131.664L132.839 33.4473ZM130.097 35.7975H132.447C132.447 35.21 132.056 34.6224 131.468 34.6224C131.468 34.6224 131.468 34.6224 131.272 34.6224C130.489 34.6224 130.097 35.21 130.097 35.7975ZM132.251 31.8805L131.468 30.7054H132.447L133.231 32.0764L132.251 31.8805Z" fill="black"/>
<path d="M138.131 32.86V34.0351H139.111V34.8185H138.131V37.1687C138.131 37.5604 138.327 37.7563 138.719 37.7563C138.915 37.7563 138.915 37.7563 139.111 37.7563V38.5397C138.915 38.5397 138.719 38.5397 138.719 38.5397C137.74 38.5397 137.348 38.148 137.348 37.3646V34.8185H136.564V34.0351H137.348V32.86H138.131Z" fill="black"/>
<path d="M140.282 34.0347H141.066V34.8181C141.262 34.2305 141.849 34.0347 142.241 34.0347C142.437 34.0347 142.437 34.0347 142.633 34.0347V35.0139C142.437 35.0139 142.241 35.0139 142.045 35.0139C141.457 35.0139 140.87 35.4056 140.87 35.9932C140.87 35.9932 140.87 35.9932 140.87 36.189V38.9309H139.891V34.0347H140.282Z" fill="black"/>
<path d="M147.53 37.3641C147.334 38.1475 146.355 38.7351 145.571 38.7351C144.396 38.7351 143.417 37.9517 143.417 36.7766C143.417 36.5807 143.417 36.5807 143.417 36.3849C143.221 35.2098 144.2 34.0347 145.179 34.0347C145.375 34.0347 145.375 34.0347 145.571 34.0347C146.746 34.0347 147.53 34.8181 147.53 36.3849V36.7766H144.396C144.396 37.3641 144.788 37.9517 145.571 38.1475C145.571 38.1475 145.571 38.1475 145.767 38.1475C146.159 38.1475 146.55 37.9517 146.942 37.56L147.53 37.3641ZM147.138 33.4471H146.159L145.375 32.4679L144.592 33.4471H143.613L144.788 32.0762H145.767L147.138 33.4471ZM144.396 35.7973H146.746C146.746 35.2098 146.355 34.6222 145.767 34.6222C145.767 34.6222 145.767 34.6222 145.571 34.6222C144.984 34.6222 144.396 35.2098 144.396 35.7973Z" fill="black"/>
<path d="M148.706 34.0347H149.49V34.8181C149.685 34.2305 150.273 34.0347 150.861 34.0347C151.644 34.0347 152.427 34.6222 152.427 35.4056C152.427 35.6015 152.427 35.6015 152.427 35.7973V38.7351H151.448V35.7973C151.448 35.0139 151.056 34.6222 150.469 34.6222C149.881 34.6222 149.49 35.0139 149.294 35.6015V35.7973V38.5392H148.314V34.0347H148.706Z" fill="black"/>
</svg>
