<svg width="246" height="36" viewBox="0 0 246 36" fill="none" xmlns="http://www.w3.org/2000/svg">
<g clip-path="url(#clip0_1370_51492)">
<path d="M32.7358 0H13.9948C13.9948 0 11.7999 0 10.4773 0C10.2147 0 9.95206 0.00981194 9.68004 0.0294358C5.77801 0.35323 3.82699 2.20769 2.87962 3.6991C1.6321 5.6713 1.36946 8.21259 2.15737 10.695C3.18916 13.933 6.07817 23.0286 6.07817 23.0286L0 27.4734L0.356436 28.435C0.384575 28.5135 1.08807 30.3581 2.65451 32.193C4.77436 34.6852 7.48515 36 10.4867 36H29.4059L36 7.70237L32.7358 0Z" fill="#FC0001"/>
<path d="M8.24493 8.61494C7.77593 6.58386 10.8994 4.79809 12.4284 8.31077L16.9026 6.74086C16.9026 6.74086 15.7207 0.853693 9.77385 1.34429C3.827 1.83489 2.11048 6.368 3.35801 10.2732C5.29964 16.3762 12.7191 23.0875 13.4883 27.6501C13.8729 29.9559 9.30486 31.9673 5.65608 24.942L1.52893 27.9641C1.52893 27.9641 4.56801 36.0786 12.4846 34.4988C19.2569 33.1448 20.3544 27.1987 17.259 22.4203C13.6946 16.9355 8.71392 10.6558 8.24493 8.61494Z" fill="white"/>
<path d="M31.8636 1.31482H13.9949C15.0829 1.92316 15.8521 2.75717 16.368 3.51269C17.2216 4.73919 17.578 5.96568 17.6812 6.3974H21.8458V33.7335H27.7645V6.3974H33.6833L31.8542 1.31482H31.8636Z" fill="white"/>
<path d="M45.69 7.275L49.38 14.505H51.09V4.065H49.41V11.345L45.69 4.065H44V14.505H45.69V7.275Z" fill="#333333"/>
<path d="M54.7999 9.875H58.4099V14.505H60.1499V4.065H58.4099V8.405H54.7999V4.065H53.0499V14.505H54.7999V9.875Z" fill="#333333"/>
<path d="M66.51 3.425L65.11 1.255H63.14L65.07 3.425H66.51Z" fill="#333333"/>
<path d="M64 12.095H67.19L67.87 14.515H69.7L66.37 4.065H64.82L61.5 14.515H63.32L64 12.095ZM65.59 6.425L66.77 10.635H64.41L65.59 6.425Z" fill="#333333"/>
<path d="M75.64 14.505L77.37 10.705L79.09 14.505H81.11L78.44 9.235L81.05 4.065H79.09L77.42 7.785L75.71 4.065H73.71L76.34 9.215L73.65 14.505H75.64Z" fill="#333333"/>
<path d="M87.2199 11.315C87.2199 11.815 87.1599 12.195 87.0299 12.475C86.8999 12.755 86.7199 12.935 86.4799 13.045C86.2399 13.155 85.9599 13.205 85.6199 13.205C85.2799 13.205 84.9999 13.155 84.7599 13.045C84.5199 12.935 84.3399 12.755 84.2199 12.475C84.0999 12.195 84.0299 11.815 84.0299 11.315V4.065H82.2899V11.315C82.2899 12.115 82.4299 12.755 82.7199 13.245C83.0099 13.735 83.3999 14.085 83.8999 14.315C84.3999 14.535 84.9699 14.655 85.6099 14.655C86.2499 14.655 86.7899 14.545 87.2899 14.315C87.7899 14.085 88.1999 13.735 88.4999 13.245C88.7999 12.755 88.9499 12.115 88.9499 11.315V4.065H87.2099V11.315H87.2199Z" fill="#333333"/>
<path d="M98.1899 0.425049H96.7199L95.7999 2.33505H96.8299L98.1899 0.425049Z" fill="#333333"/>
<path d="M92.36 12.095H95.55L96.23 14.515H98.06L94.73 4.065H93.18L89.86 14.515H91.68L92.36 12.095ZM93.95 6.425L95.13 10.635H92.77L93.95 6.425Z" fill="#333333"/>
<path d="M93.9699 2.43505L94.8699 3.44505H96.2699L94.4899 1.67505H93.4499L91.6699 3.44505H93.0499L93.9699 2.43505Z" fill="#333333"/>
<path d="M97.78 5.525H100.41V14.505H102.15V5.525H104.81V4.065H102.15H100.41H97.78V5.525Z" fill="#333333"/>
<path d="M114.68 9.34499C114.5 9.21499 114.29 9.12499 114.06 9.06499C114.15 9.02499 114.26 8.99499 114.34 8.93499C114.7 8.70499 114.97 8.41499 115.15 8.05499C115.33 7.69499 115.42 7.30499 115.42 6.88499C115.42 6.39499 115.35 5.97499 115.21 5.62499C115.07 5.27499 114.86 4.97499 114.59 4.74499C114.32 4.51499 113.99 4.33499 113.61 4.22499C113.23 4.11499 112.79 4.05499 112.3 4.05499H109.19V14.505H112.48C113.14 14.505 113.69 14.385 114.16 14.155C114.62 13.925 114.98 13.585 115.23 13.125C115.48 12.675 115.6 12.115 115.6 11.445C115.6 11.015 115.53 10.615 115.38 10.245C115.23 9.87499 115 9.56499 114.68 9.32499V9.34499ZM112.3 5.52499C112.62 5.52499 112.87 5.57499 113.08 5.67499C113.29 5.77499 113.43 5.93499 113.53 6.15499C113.63 6.37499 113.68 6.65499 113.68 6.99499C113.68 7.30499 113.63 7.57499 113.52 7.79499C113.41 8.01499 113.26 8.18499 113.05 8.29499C112.84 8.40499 112.6 8.46499 112.3 8.46499H110.94V5.52499H112.31H112.3ZM113.7 12.295C113.6 12.535 113.45 12.725 113.25 12.855C113.05 12.985 112.79 13.055 112.48 13.055H110.93V9.80499H112.54C112.86 9.80499 113.11 9.87499 113.3 10.005C113.49 10.135 113.63 10.335 113.72 10.575C113.81 10.825 113.85 11.115 113.85 11.455C113.85 11.795 113.8 12.055 113.7 12.295Z" fill="#333333"/>
<path d="M120.61 1.30502C120.68 1.34502 120.74 1.39502 120.78 1.46502C120.82 1.53502 120.84 1.61502 120.84 1.70502C120.84 1.81502 120.81 1.90502 120.76 1.97502C120.7 2.04502 120.62 2.09502 120.5 2.13502C120.38 2.17502 120.23 2.19502 120.04 2.21502L120.1 3.23502H121.33V2.75502C121.54 2.71502 121.74 2.61502 121.92 2.45502C122.1 2.29502 122.2 2.03502 122.2 1.69502C122.2 1.48502 122.15 1.29502 122.06 1.12502C121.97 0.955022 121.84 0.815022 121.66 0.695022C121.48 0.575022 121.26 0.485022 120.99 0.425022C120.72 0.365022 120.41 0.335022 120.05 0.335022L120.01 1.21502C120.13 1.21502 120.25 1.21502 120.35 1.24502C120.45 1.26502 120.54 1.29502 120.61 1.33502V1.30502Z" fill="#333333"/>
<path d="M119.09 12.095H122.28L122.96 14.515H124.79L121.46 4.065H119.91L116.59 14.515H118.41L119.09 12.095ZM120.68 6.425L121.86 10.635H119.5L120.68 6.425Z" fill="#333333"/>
<path d="M127.67 7.275L131.35 14.505H133.06V4.065H131.38V11.345L127.67 4.065H125.98V14.505H127.67V7.275Z" fill="#333333"/>
<path d="M46.84 24.575C46.89 24.195 46.96 23.895 47.07 23.665C47.18 23.435 47.32 23.265 47.49 23.165C47.66 23.065 47.88 23.015 48.13 23.015C48.5 23.015 48.8 23.075 49.02 23.195C49.24 23.315 49.4 23.515 49.49 23.805C49.58 24.095 49.61 24.485 49.58 24.995H52.3C52.28 24.125 52.1 23.385 51.78 22.755C51.46 22.125 50.98 21.655 50.37 21.325C49.76 20.995 49.01 20.825 48.13 20.825C47.5 20.825 46.93 20.945 46.42 21.175C45.91 21.405 45.47 21.745 45.12 22.195C44.76 22.645 44.49 23.185 44.29 23.815C44.1 24.455 44 25.165 44 25.965V27.575C44 28.375 44.09 29.095 44.27 29.735C44.45 30.365 44.72 30.905 45.07 31.355C45.42 31.795 45.86 32.135 46.38 32.375C46.9 32.605 47.49 32.725 48.17 32.725C49 32.725 49.73 32.565 50.35 32.255C50.97 31.945 51.45 31.485 51.79 30.865C52.13 30.255 52.3 29.515 52.29 28.645H49.57C49.6 29.155 49.55 29.545 49.44 29.815C49.33 30.085 49.16 30.275 48.95 30.375C48.74 30.475 48.47 30.525 48.16 30.525C47.85 30.525 47.63 30.475 47.45 30.375C47.27 30.275 47.12 30.105 47.02 29.875C46.92 29.645 46.85 29.345 46.81 28.965C46.77 28.585 46.75 28.125 46.75 27.565V25.935C46.75 25.385 46.77 24.925 46.82 24.555L46.84 24.575Z" fill="#333333"/>
<path d="M59.13 25.595H56.22V21.005H53.5V32.565H56.22V27.735H59.13V32.565H61.85V21.005H59.13V25.595Z" fill="#333333"/>
<path d="M66.25 21.005H63.54V32.565H66.25V21.005Z" fill="#333333"/>
<path d="M65.85 20.395L68.06 17.905H65.24L63.66 20.395H65.85Z" fill="#333333"/>
<path d="M73.58 28.195L70.68 21.005H67.97V32.565H70.68V25.375L73.58 32.565H76.29V21.005H73.58V28.195Z" fill="#333333"/>
<path d="M83.49 25.595H80.58V21.005H77.86V32.565H80.58V27.735H83.49V32.565H86.21V21.005H83.49V25.595Z" fill="#333333"/>
<path d="M93.36 21.005H90.64V23.155H93.36V32.565H96.09V23.155H98.89V21.005H96.09H93.36Z" fill="#333333"/>
<path d="M106.85 27.255C107.15 26.965 107.39 26.595 107.55 26.155C107.71 25.715 107.8 25.155 107.8 24.495C107.8 23.735 107.65 23.095 107.34 22.575C107.04 22.055 106.6 21.665 106.03 21.395C105.46 21.125 104.79 20.995 104.02 20.995H100.06V32.555H102.78V28.475H103.55L105.19 32.555H108.1V32.435L106.15 27.745C106.4 27.595 106.64 27.435 106.84 27.245L106.85 27.255ZM102.79 23.155H104.03C104.27 23.155 104.46 23.215 104.61 23.345C104.76 23.475 104.88 23.655 104.96 23.895C105.04 24.135 105.08 24.415 105.08 24.755C105.08 25.095 105.04 25.365 104.96 25.605C104.88 25.845 104.75 26.025 104.59 26.145C104.43 26.265 104.22 26.335 103.97 26.335H102.79V23.155Z" fill="#333333"/>
<path d="M110.79 33.205C110.35 33.205 109.99 33.315 109.72 33.545C109.44 33.775 109.31 34.055 109.31 34.395C109.31 34.735 109.45 35.015 109.72 35.245C110 35.475 110.35 35.585 110.79 35.585C111.23 35.585 111.59 35.475 111.86 35.245C112.13 35.025 112.27 34.735 112.27 34.395C112.27 34.055 112.13 33.775 111.86 33.545C111.58 33.325 111.23 33.205 110.79 33.205Z" fill="#333333"/>
<path d="M112.13 21.005H109.42V32.565H112.13V21.005Z" fill="#333333"/>
<path d="M124.82 22.125C124.44 21.695 123.98 21.375 123.46 21.165C122.94 20.955 122.36 20.845 121.72 20.845C121.08 20.845 120.5 20.955 119.97 21.165C119.45 21.375 119 21.705 118.62 22.125C118.24 22.555 117.95 23.085 117.74 23.715C117.53 24.345 117.43 25.085 117.43 25.915V27.655C117.43 28.495 117.53 29.225 117.74 29.855C117.95 30.485 118.24 31.015 118.62 31.435C119 31.865 119.45 32.185 119.98 32.395C120.5 32.605 121.09 32.715 121.73 32.715C121.88 32.715 122.01 32.685 122.15 32.675L124.32 34.665L126.01 33.205L124.43 31.785C124.57 31.675 124.71 31.565 124.83 31.425C125.21 30.995 125.51 30.475 125.72 29.845C125.93 29.215 126.03 28.485 126.03 27.645V25.905C126.03 25.065 125.93 24.335 125.72 23.705C125.51 23.075 125.22 22.545 124.83 22.115L124.82 22.125ZM120.56 29.875C120.44 29.645 120.34 29.345 120.29 28.975C120.23 28.605 120.2 28.175 120.2 27.655V25.905C120.2 25.385 120.23 24.945 120.29 24.575C120.35 24.205 120.44 23.915 120.56 23.685C120.68 23.455 120.84 23.295 121.03 23.185C121.22 23.075 121.45 23.025 121.72 23.025C121.97 23.025 122.2 23.075 122.39 23.185C122.58 23.295 122.74 23.455 122.87 23.685C123 23.915 123.1 24.205 123.16 24.575C123.22 24.945 123.26 25.385 123.26 25.905V27.655C123.26 28.165 123.23 28.605 123.16 28.975C123.09 29.345 123 29.635 122.87 29.875C122.74 30.105 122.58 30.275 122.39 30.385C122.2 30.495 121.97 30.545 121.72 30.545C121.45 30.545 121.22 30.495 121.03 30.385C120.84 30.275 120.68 30.105 120.56 29.875Z" fill="#333333"/>
<path d="M132.5 28.875C132.5 29.355 132.46 29.715 132.38 29.955C132.3 30.195 132.17 30.365 132 30.455C131.83 30.545 131.6 30.585 131.33 30.585C131.06 30.585 130.83 30.545 130.66 30.455C130.48 30.375 130.35 30.205 130.26 29.955C130.17 29.705 130.13 29.345 130.13 28.875V21.005H127.4V28.875C127.4 29.775 127.57 30.505 127.9 31.075C128.23 31.645 128.69 32.065 129.28 32.325C129.87 32.585 130.56 32.725 131.34 32.725C132.12 32.725 132.82 32.595 133.4 32.325C133.98 32.055 134.44 31.645 134.76 31.075C135.08 30.505 135.24 29.775 135.24 28.875V21.005H132.52V28.875H132.5Z" fill="#333333"/>
<path d="M140.87 19.515L141.75 20.435H143.38L141.48 18.695H140.28L138.37 20.435H140L140.87 19.515Z" fill="#333333"/>
<path d="M144.01 22.135C143.63 21.715 143.18 21.395 142.66 21.175C142.13 20.955 141.55 20.845 140.92 20.845C140.29 20.845 139.7 20.955 139.17 21.175C138.65 21.395 138.19 21.715 137.82 22.135C137.44 22.555 137.15 23.085 136.94 23.725C136.73 24.355 136.63 25.095 136.63 25.925V27.675C136.63 28.505 136.73 29.235 136.94 29.865C137.15 30.495 137.44 31.025 137.82 31.445C138.2 31.875 138.65 32.195 139.18 32.405C139.7 32.615 140.29 32.725 140.93 32.725C141.57 32.725 142.14 32.615 142.67 32.405C143.19 32.195 143.64 31.875 144.02 31.445C144.4 31.015 144.7 30.495 144.9 29.865C145.1 29.235 145.21 28.505 145.21 27.675V25.925C145.21 25.095 145.11 24.365 144.9 23.725C144.69 23.085 144.4 22.555 144.02 22.135H144.01ZM142.45 27.675C142.45 28.185 142.42 28.625 142.35 28.985C142.29 29.345 142.19 29.645 142.07 29.875C141.95 30.105 141.79 30.275 141.59 30.385C141.39 30.495 141.17 30.545 140.92 30.545C140.67 30.545 140.42 30.495 140.23 30.385C140.03 30.275 139.87 30.105 139.75 29.875C139.63 29.645 139.53 29.345 139.48 28.985C139.42 28.625 139.39 28.185 139.39 27.675V25.915C139.39 25.395 139.42 24.955 139.48 24.585C139.54 24.215 139.63 23.925 139.75 23.695C139.87 23.465 140.03 23.305 140.22 23.195C140.41 23.085 140.64 23.035 140.91 23.035C141.18 23.035 141.39 23.085 141.58 23.195C141.77 23.305 141.93 23.465 142.06 23.695C142.19 23.925 142.28 24.215 142.35 24.585C142.42 24.955 142.45 25.395 142.45 25.915V27.675Z" fill="#333333"/>
<path d="M142.87 19.495H144.19L145.89 17.305H144.07L142.87 19.495Z" fill="#333333"/>
<path d="M149.26 24.575C149.31 24.195 149.38 23.895 149.49 23.665C149.6 23.435 149.74 23.265 149.91 23.165C150.08 23.065 150.3 23.015 150.55 23.015C150.92 23.015 151.22 23.075 151.44 23.195C151.66 23.315 151.82 23.515 151.91 23.805C152 24.095 152.03 24.485 152 24.995H154.72C154.7 24.125 154.52 23.385 154.2 22.755C153.88 22.125 153.4 21.655 152.79 21.325C152.18 20.995 151.43 20.825 150.55 20.825C149.92 20.825 149.35 20.945 148.84 21.175C148.33 21.405 147.89 21.745 147.54 22.195C147.18 22.645 146.91 23.185 146.71 23.815C146.52 24.455 146.42 25.165 146.42 25.965V27.575C146.42 28.375 146.51 29.095 146.69 29.735C146.87 30.365 147.14 30.905 147.49 31.355C147.84 31.795 148.28 32.135 148.8 32.375C149.32 32.605 149.91 32.725 150.59 32.725C151.42 32.725 152.15 32.565 152.77 32.255C153.39 31.945 153.87 31.485 154.21 30.865C154.55 30.255 154.72 29.515 154.71 28.645H151.99C152.02 29.155 151.97 29.545 151.86 29.815C151.75 30.085 151.58 30.275 151.37 30.375C151.16 30.475 150.89 30.525 150.58 30.525C150.27 30.525 150.05 30.475 149.87 30.375C149.69 30.275 149.54 30.105 149.44 29.875C149.34 29.645 149.27 29.345 149.23 28.965C149.19 28.585 149.17 28.125 149.17 27.565V25.935C149.17 25.385 149.19 24.925 149.24 24.555L149.26 24.575Z" fill="#333333"/>
<path d="M163.73 28.305H165.11V30.175C165.05 30.205 164.98 30.245 164.89 30.315C164.8 30.385 164.69 30.445 164.56 30.495C164.43 30.545 164.26 30.575 164.06 30.575C163.73 30.575 163.46 30.525 163.23 30.425C163 30.325 162.83 30.165 162.7 29.945C162.57 29.725 162.47 29.435 162.41 29.075C162.35 28.715 162.32 28.265 162.32 27.745V25.815C162.32 25.285 162.35 24.835 162.42 24.475C162.49 24.115 162.58 23.815 162.71 23.595C162.84 23.375 163 23.215 163.19 23.125C163.38 23.025 163.59 22.985 163.84 22.985C164.14 22.985 164.39 23.045 164.59 23.155C164.79 23.265 164.94 23.455 165.04 23.725C165.15 23.985 165.21 24.345 165.23 24.785H167.83C167.81 23.955 167.66 23.245 167.36 22.665C167.06 22.085 166.62 21.635 166.02 21.315C165.42 21.005 164.66 20.845 163.74 20.845C163.12 20.845 162.56 20.945 162.05 21.155C161.54 21.355 161.1 21.665 160.73 22.075C160.36 22.485 160.07 23.005 159.87 23.635C159.67 24.265 159.56 25.005 159.56 25.845V27.755C159.56 28.605 159.66 29.345 159.86 29.965C160.06 30.585 160.35 31.105 160.72 31.515C161.09 31.925 161.55 32.235 162.07 32.435C162.59 32.635 163.19 32.735 163.86 32.735C164.57 32.735 165.2 32.645 165.72 32.465C166.25 32.285 166.68 32.085 167.03 31.845C167.38 31.605 167.64 31.405 167.82 31.225V26.395H163.72V28.305H163.73Z" fill="#333333"/>
<path d="M172.13 21.005H169.42V32.565H172.13V21.005Z" fill="#333333"/>
<path d="M178.67 21.005H176.84L173.27 32.565H176.19L176.7 30.405H179.52L180.03 32.565H182.95L179.38 21.005H178.67ZM177.22 28.255L178.12 24.425L179.02 28.255H177.22Z" fill="#333333"/>
<path d="M190.82 23.105C190.98 22.995 191.17 22.945 191.4 22.945C191.65 22.945 191.86 23.005 192.02 23.135C192.18 23.265 192.29 23.435 192.37 23.655C192.44 23.875 192.48 24.135 192.48 24.425H195.19C195.19 23.695 195.03 23.065 194.72 22.525C194.4 21.985 193.97 21.575 193.41 21.275C192.85 20.975 192.21 20.835 191.48 20.835C190.93 20.835 190.42 20.915 189.96 21.065C189.49 21.215 189.09 21.435 188.75 21.715C188.41 21.995 188.14 22.335 187.95 22.735C187.76 23.135 187.66 23.585 187.66 24.085C187.66 24.585 187.75 25.055 187.95 25.445C188.14 25.835 188.39 26.175 188.71 26.465C189.03 26.755 189.38 27.005 189.78 27.215C190.18 27.425 190.58 27.625 190.99 27.795C191.32 27.935 191.58 28.075 191.78 28.205C191.98 28.335 192.12 28.465 192.22 28.585C192.32 28.705 192.38 28.845 192.42 28.995C192.45 29.145 192.47 29.305 192.47 29.485C192.47 29.695 192.44 29.885 192.39 30.055C192.34 30.225 192.24 30.365 192.11 30.465C191.98 30.565 191.79 30.625 191.54 30.625C191.28 30.625 191.05 30.595 190.87 30.535C190.69 30.475 190.54 30.375 190.43 30.235C190.32 30.095 190.23 29.905 190.18 29.675C190.13 29.445 190.1 29.155 190.1 28.815H187.37C187.37 29.495 187.49 30.085 187.73 30.585C187.97 31.085 188.29 31.485 188.69 31.795C189.09 32.115 189.54 32.345 190.03 32.495C190.53 32.645 191.03 32.725 191.54 32.725C192.1 32.725 192.61 32.655 193.05 32.515C193.49 32.375 193.88 32.165 194.2 31.885C194.52 31.605 194.76 31.265 194.93 30.865C195.1 30.465 195.18 30.005 195.18 29.485C195.18 28.995 195.11 28.565 194.97 28.175C194.83 27.785 194.62 27.445 194.35 27.135C194.08 26.825 193.73 26.555 193.33 26.315C192.93 26.075 192.46 25.855 191.94 25.665C191.72 25.555 191.52 25.455 191.33 25.335C191.14 25.225 190.98 25.105 190.84 24.985C190.7 24.865 190.59 24.735 190.51 24.595C190.43 24.455 190.39 24.295 190.39 24.125C190.39 23.915 190.43 23.715 190.51 23.545C190.59 23.365 190.71 23.225 190.86 23.125L190.82 23.105Z" fill="#333333"/>
<path d="M205.49 21.685C205.45 22.055 205.33 22.345 205.14 22.545C204.98 22.705 204.71 22.785 204.36 22.815V20.995H201.64V28.545C201.64 29.025 201.6 29.405 201.52 29.705C201.44 30.005 201.31 30.225 201.14 30.365C200.97 30.505 200.74 30.575 200.47 30.575C200.2 30.575 199.97 30.505 199.8 30.365C199.62 30.225 199.49 30.005 199.4 29.705C199.31 29.405 199.27 29.015 199.27 28.545V20.995H196.54V28.545C196.54 29.445 196.71 30.205 197.04 30.825C197.37 31.445 197.83 31.915 198.42 32.235C199.01 32.555 199.7 32.715 200.48 32.715C201.26 32.715 201.96 32.555 202.54 32.235C203.12 31.915 203.58 31.445 203.9 30.825C204.22 30.205 204.38 29.445 204.38 28.545V24.135C205.05 24.105 205.59 23.965 205.98 23.695C206.41 23.395 206.71 22.965 206.88 22.395C207.05 21.825 207.13 21.145 207.13 20.345H205.57C205.57 20.855 205.55 21.305 205.51 21.675L205.49 21.685Z" fill="#333333"/>
<path d="M200.87 33.285C200.43 33.285 200.07 33.395 199.8 33.625C199.52 33.845 199.39 34.135 199.39 34.475C199.39 34.815 199.53 35.095 199.8 35.325C200.08 35.545 200.43 35.665 200.87 35.665C201.31 35.665 201.67 35.555 201.94 35.325C202.22 35.095 202.35 34.815 202.35 34.475C202.35 34.135 202.21 33.855 201.94 33.625C201.66 33.395 201.31 33.285 200.87 33.285Z" fill="#333333"/>
<path d="M212.43 21.005H209.7V23.155H212.43V32.565H215.15V23.155H217.96V21.005H215.15H212.43Z" fill="#333333"/>
<path d="M224.76 25.595H221.85V21.005H219.13V32.565H221.85V27.735H224.76V32.565H227.48V21.005H224.76V25.595Z" fill="#333333"/>
<path d="M233.33 19.165L234.36 20.245H236.38V20.135L234.08 17.905H232.59L230.33 20.105V20.245H232.31L233.33 19.165Z" fill="#333333"/>
<path d="M233.87 21.005H232.04L228.47 32.565H231.39L231.9 30.405H234.72L235.23 32.565H238.15L234.58 21.005H233.87ZM232.42 28.255L233.32 24.425L234.22 28.255H232.42Z" fill="#333333"/>
<path d="M233.34 33.135C232.9 33.135 232.54 33.245 232.27 33.475C232 33.705 231.86 33.985 231.86 34.325C231.86 34.665 232 34.945 232.27 35.175C232.54 35.405 232.9 35.515 233.34 35.515C233.78 35.515 234.14 35.405 234.41 35.175C234.68 34.955 234.82 34.665 234.82 34.325C234.82 33.985 234.68 33.705 234.41 33.475C234.13 33.255 233.78 33.135 233.34 33.135Z" fill="#333333"/>
<path d="M245.92 21.005H243.12H240.4H237.67V23.155H240.4V32.565H243.12V23.155H245.92V21.005Z" fill="#333333"/>
</g>
<defs>
<clipPath id="clip0_1370_51492">
<rect width="245.92" height="36" fill="white"/>
</clipPath>
</defs>
</svg>
