<?xml version="1.0" encoding="utf-8"?>
<!-- Generator: Adobe Illustrator 28.0.0, SVG Export Plug-In . SVG Version: 6.00 Build 0)  -->
<svg version="1.1" id="Layer_1" xmlns="http://www.w3.org/2000/svg" xmlns:xlink="http://www.w3.org/1999/xlink" x="0px" y="0px"
	 viewBox="0 0 218 62" style="enable-background:new 0 0 218 62;" xml:space="preserve">
<style type="text/css">
	.st0{fill:#E0E0E0;}
	.st1{fill:#FF0000;}
	.st2{fill:#FFFFFF;}
	.st3{fill:#0072BC;}
	.st4{fill:#ED1C24;}
	.st5{fill:#FFF800;}
</style>
<path class="st0" d="M212,61.7H6c-3,0-5.5-2.5-5.5-5.5V5.8c0-3,2.5-5.5,5.5-5.5h206c3,0,5.5,2.5,5.5,5.5v50.3
	C217.5,59.2,215,61.7,212,61.7z M6,1.3c-2.5,0-4.5,2-4.5,4.5v50.3c0,2.5,2,4.5,4.5,4.5h206c2.5,0,4.5-2,4.5-4.5V5.8
	c0-2.5-2-4.5-4.5-4.5H6z"/>
<g>
	<ellipse class="st1" cx="42.4" cy="30.8" rx="22.4" ry="22.5"/>
	<ellipse class="st2" cx="42.4" cy="30.8" rx="20.7" ry="20.8"/>
	<ellipse class="st3" cx="42.4" cy="30.8" rx="19.9" ry="19.9"/>
	<ellipse class="st2" cx="42.4" cy="30.7" rx="19.4" ry="19.5"/>
	<path class="st4" d="M42.6,45.1c-5,0.1-9.1-4-9.1-9s4-9.1,9-9.1c5-0.1,9.1,4,9.1,9c0,0.1,0,0.1,0,0.1l0,0
		C51.6,41.1,47.6,45.1,42.6,45.1z M42.6,27.4c-4.8-0.1-8.7,3.8-8.7,8.6s3.8,8.7,8.6,8.7c4.8,0.1,8.7-3.8,8.7-8.6l0,0v-0.1l0,0
		C51.2,31.3,47.3,27.5,42.6,27.4z"/>
	<path class="st4" d="M42.6,46.4c-6.1,0.1-11-4.8-11.1-10.8c0-6.1,4.8-11.1,10.9-11.1s11,4.8,11,10.9v0.1
		C53.5,41.4,48.7,46.4,42.6,46.4L42.6,46.4L42.6,46.4z M42.6,24.8c-5.8-0.1-10.7,4.7-10.7,10.5s4.7,10.6,10.5,10.6
		S53,41.3,53.1,35.5c0-0.1,0-0.1,0-0.1l0,0C53.1,29.6,48.4,24.8,42.6,24.8z"/>
	<path class="st4" d="M43,45.6c-6.7,0.1-12.2-5.4-12.2-12.1s5.4-12.2,12.1-12.2c6.7-0.1,12.2,5.4,12.2,12.1v0.1l0,0
		C55.1,40.2,49.7,45.6,43,45.6z M43,21.7c-6.5-0.1-11.8,5.2-11.8,11.7c-0.1,6.5,5.2,11.8,11.7,11.9c6.5,0.1,11.8-5.2,11.8-11.7
		c0-0.1,0-0.1,0-0.1l0,0C54.7,27,49.5,21.8,43,21.7z"/>
	<path class="st4" d="M42.7,45.3c-7.5,0-13.5-6-13.5-13.5s6-13.5,13.5-13.5s13.5,6,13.5,13.5l0,0C56.2,39.2,50.2,45.2,42.7,45.3
		L42.7,45.3L42.7,45.3z M42.7,18.7c-7.2-0.1-13.1,5.8-13.1,13c-0.1,7.2,5.8,13.1,13,13.1c7.2,0,13.1-5.8,13.1-13c0-0.1,0-0.1,0-0.1
		s0,0,0-0.1C55.7,24.5,49.9,18.7,42.7,18.7z"/>
	<path class="st4" d="M42.5,44.8c-8.1,0.1-14.8-6.5-14.8-14.7s6.5-14.8,14.7-14.8c8.1-0.1,14.8,6.5,14.8,14.7c0,0.1,0,0.1,0,0.1l0,0
		C57.2,38.2,50.6,44.8,42.5,44.8z M42.5,15.8c-7.9-0.1-14.4,6.4-14.5,14.3s6.4,14.4,14.3,14.5c7.9,0.1,14.4-6.4,14.5-14.3
		c0-0.1,0-0.1,0-0.1v-0.1l0,0C56.8,22.2,50.4,15.8,42.5,15.8L42.5,15.8z"/>
	<path class="st3" d="M53.9,33.3c-1.2-0.9-2.4-1.6-3.8-2.1c-2.5-0.8-5.2-0.5-7.4,0.8c0,0.1-0.3,0-0.3,0c-1.3-0.9-2.8-1.5-4.3-1.6
		h-2.3c-1.9,0.2-3.9,1-5.5,2.2c-2.8,2.1-6.6,0.4-7.6-0.1V33c1.2,10.9,11.1,18.7,21.9,17.4c8.7-1,15.7-7.6,17.2-16.2
		c0-0.1,0-0.1,0-0.2C57.6,35.1,54.7,33.9,53.9,33.3z"/>
	<path class="st2" d="M41.9,40.1c-4.8-3.4-11-1.2-12.2-1c-1.5,0.4-3,0.4-4.5,0.4c-0.8-1.8-1.4-3.6-1.6-5.6v-0.4
		c0.8,0.4,4.5,2.1,7.3,0.1c1.5-1.2,3.4-1.9,5.3-2.1h2.2c1.5,0.2,2.8,0.7,4.1,1.5c0,0-0.2,3.9-0.2,4.7c0.1,0.8-0.1,1.6-0.2,2.4
		C42,40.1,41.9,40.1,41.9,40.1z"/>
	<path class="st2" d="M42.8,40.1c5-3.2,11.3-0.7,12.5-0.4c1.3,0.4,2.6,0.5,4,0.4c0.9-1.5,1.5-3,1.9-4.7v-0.4
		c-2.2,0.7-4.6,0.5-6.6-0.5c-1.3-0.5-2-1.8-5-2.6c-0.7-0.2-1.5-0.3-2.2-0.3c-1.5,0.1-3,0.5-4.4,1.2c0,0-0.2,3.9-0.3,4.7
		c-0.1,0.8-0.1,1.7,0,2.5C42.7,40.1,42.7,40.1,42.8,40.1z"/>
	<path class="st5" d="M39.7,47.7l-0.4-1.2h-1.5l-0.4,1.2h-1.1l1.8-4.3H39l1.9,4.4L39.7,47.7z M38.9,45.6l-0.4-1l-0.4,1H38.9z"/>
	<path class="st5" d="M40.5,47.4h-0.6l-0.5-1.2h-1.8l-0.4,1.2h-0.5l1.6-4h0.5L40.5,47.4z M39.2,45.8l-0.7-1.9l-0.6,1.9H39.2z"/>
	<path class="st5" d="M42.8,47.6c-0.4,0-0.8-0.1-1.1-0.4c-0.3-0.2-0.4-0.5-0.4-0.9v-0.3h1.1v0.2c0,0.5,0.3,0.5,0.4,0.5
		c0.1,0,0.2-0.1,0.4-0.1c0,0,0.1-0.1,0.1-0.5v-2.8h1.1v2.8c0.1,0.4-0.1,0.8-0.4,1.2C43.6,47.6,43.2,47.7,42.8,47.6z"/>
	<path class="st5" d="M44,46.1c0.1,0.6-0.4,1.2-1,1.3c-0.1,0-0.2,0-0.3,0c-0.4,0.1-0.6-0.1-0.9-0.3c-0.2-0.2-0.4-0.5-0.4-0.8v-0.1
		H42c0,0.5,0.2,0.7,0.6,0.7c0.2,0,0.4-0.1,0.5-0.2c0.2-0.2,0.2-0.4,0.2-0.7v-2.6h0.5L44,46.1L44,46.1z"/>
	<path class="st5" d="M46.9,47.6c-0.5,0.1-1-0.2-1.4-0.5c-0.7-1-0.7-2.2,0-3.2c0.7-0.7,1.8-0.8,2.5-0.3c0.4,0.3,0.5,0.6,0.5,1v0.2
		h-0.9v-0.2c0-0.2-0.1-0.4-0.3-0.4c-0.4-0.3-1-0.2-1.3,0.2c-0.4,0.6-0.4,1.5,0,2.1c0.4,0.4,1,0.5,1.4,0.2c0.2-0.1,0.2-0.3,0.3-0.5
		V46h0.9v0.2c0,0.4-0.2,0.8-0.5,1.2C47.7,47.5,47.3,47.6,46.9,47.6z"/>
	<path class="st5" d="M46.9,47.4c-0.5,0.1-0.9-0.2-1.2-0.5c-0.6-0.9-0.6-2.1,0-2.9c0.5-0.6,1.6-0.7,2.3-0.2c0.3,0.2,0.4,0.5,0.5,0.9
		h-0.5c0-0.2-0.1-0.4-0.3-0.5c-0.5-0.4-1.2-0.3-1.6,0.2c-0.4,0.7-0.4,1.6,0,2.3c0.4,0.4,1.1,0.5,1.6,0.2c0.2-0.2,0.3-0.4,0.3-0.6
		h0.5c0,0.4-0.2,0.7-0.5,1C47.6,47.3,47.2,47.4,46.9,47.4z"/>
	<path class="st3" d="M24.8,31.4h0.5c0.1,0,0.1,0,0.2,0c0.1,0,0.1-0.1,0.1-0.1c0.1-0.1,0.1-0.1,0.1-0.1v-0.1h0.1v1h-0.1v-0.1
		c0-0.1,0-0.1-0.1-0.1c0-0.1-0.1-0.1-0.1-0.1c-0.1,0-0.1,0-0.2,0h-1.1c-0.1,0-0.1,0-0.2,0S24,31.9,24,31.9c-0.1,0.1-0.1,0.1-0.1,0.1
		v0.1l0,0v-0.9H24l0,0c0,0.1,0,0.1,0.1,0.1c0,0.1,0.1,0.1,0.1,0.1c0.1,0,0.1,0,0.2,0H24.8v-0.6h-0.5c-0.1,0-0.1,0-0.2,0
		c-0.1,0-0.1,0.1-0.1,0.1C24,30.9,24,30.9,24,31V31l0,0v-0.9h0.1v0.1c0,0.1,0,0.1,0.1,0.1c0,0.1,0.1,0.1,0.1,0.1c0.1,0,0.1,0,0.2,0
		h1.1c0.1,0,0.1,0,0.2,0s0.1-0.1,0.1-0.1c0.1-0.1,0.1-0.1,0.1-0.1v-0.1h0.1V31h-0.1V31c0-0.1,0-0.1-0.1-0.1c0-0.1-0.1-0.1-0.1-0.1
		c-0.1,0-0.1,0-0.2,0h-0.6L24.8,31.4z"/>
	<path class="st3" d="M24.1,28.7c0.1-0.5,0.4-0.8,0.9-0.8c0.1,0,0.1,0,0.1,0c0.2,0.1,0.4,0.1,0.5,0.3c0.2,0.2,0.3,0.5,0.2,0.8
		c-0.1,0.3-0.2,0.5-0.4,0.7c-0.2,0.1-0.4,0.2-0.6,0.1c-0.3-0.1-0.5-0.2-0.5-0.4C24.1,29.2,24,28.9,24.1,28.7z M24.2,28.7
		c-0.1,0.2,0.1,0.4,0.2,0.4c0.2,0.1,0.4,0.2,0.5,0.2c0.2,0.1,0.5,0.1,0.7-0.1c0.1-0.1,0.2-0.2,0.2-0.3c0-0.1,0-0.2-0.1-0.2
		c-0.1-0.1-0.2-0.2-0.2-0.2c-0.2-0.1-0.3-0.1-0.4-0.1c-0.2-0.1-0.4-0.1-0.5,0c-0.1,0-0.2,0.1-0.3,0.1C24.2,28.6,24.2,28.7,24.2,28.7
		L24.2,28.7z M26,29c0-0.1,0.1-0.2,0.3-0.2c0.1,0,0.2,0.1,0.2,0.3s-0.1,0.2-0.3,0.2c-0.1,0-0.1-0.1-0.2-0.1C26,29.1,26,29,26,29
		L26,29z"/>
	<path class="st3" d="M24.7,25.7l0.5,0.2v0.1c-0.2,0-0.3,0.1-0.4,0.1c-0.1,0.1-0.2,0.2-0.2,0.3c-0.1,0.1-0.1,0.2,0,0.4
		c0.1,0.1,0.1,0.2,0.2,0.3c0.1,0.1,0.3,0.2,0.4,0.2c0.2,0.1,0.3,0.1,0.4,0.1s0.2-0.1,0.4-0.1c0.1-0.1,0.2-0.2,0.2-0.3
		c0.1-0.1,0.1-0.2,0-0.3c-0.1-0.1-0.1-0.3-0.2-0.4l0.2,0.1c0.1,0.1,0.1,0.2,0.2,0.4c0,0.1,0,0.3-0.1,0.4c-0.1,0.2-0.1,0.4-0.2,0.4
		c-0.1,0.1-0.3,0.2-0.4,0.3c-0.1,0.1-0.3,0.1-0.5,0c-0.4-0.1-0.5-0.4-0.7-0.7c-0.1-0.2-0.1-0.4,0-0.5c0.1-0.2,0.1-0.3,0.2-0.4
		c0.1-0.1,0.1-0.1,0.1-0.2c0-0.1,0-0.1,0-0.1C24.8,25.8,24.8,25.8,24.7,25.7L24.7,25.7z"/>
	<path class="st3" d="M26,22.7L26,22.7c0.1,0.1,0.1,0.2,0.1,0.2c0.1,0.1,0.2,0.2,0.2,0.3l1,1.2v0.1l-1.5-0.1c-0.1,0-0.2,0-0.4,0
		c-0.1,0.1-0.1,0.1-0.1,0.1l0,0l0.4-0.8l0,0v0.1c0,0.1,0,0.1,0,0.2c0,0.1,0.1,0.1,0.1,0.1h0.1H26h1l-0.7-0.7
		c-0.1-0.1-0.1-0.1-0.2-0.2c-0.1-0.1-0.1-0.1-0.1-0.1c-0.1,0-0.1,0-0.1,0s-0.1,0-0.1,0.1c-0.1,0.1-0.1,0.1-0.1,0.1h-0.1L26,22.7z"/>
	<path class="st3" d="M28.1,22.5L28.1,22.5l-0.4,0.8l-0.1-0.1l0.1-0.1c0.1-0.1,0.1-0.1,0.1-0.1c0-0.1,0-0.1-0.1-0.1
		C27.6,23,27.6,23,27.5,23l-1-0.5c-0.1-0.1-0.1-0.1-0.2-0.1s-0.1,0-0.1,0.1c-0.1,0.1-0.1,0.1-0.1,0.1l-0.1,0.1v-0.1l0.4-0.8l0.1,0.1
		h-0.1c-0.1,0.1-0.1,0.1-0.1,0.1s0,0.1,0.1,0.1c0.1,0.1,0.1,0.1,0.2,0.1l1,0.5c0.1,0.1,0.1,0.1,0.2,0.1C28,22.6,28,22.6,28.1,22.5
		C28,22.5,28,22.5,28.1,22.5L28.1,22.5z"/>
	<path class="st3" d="M27.3,20.8l0.5,0.4v-0.1c0.1,0,0.1-0.1,0.1-0.2c-0.1-0.1-0.1-0.2-0.2-0.3l0.1-0.1l0.7,0.5v0.1
		c-0.1,0.1-0.2,0.1-0.2,0.1s-0.1,0-0.2,0.1c-0.1,0.1-0.1,0.1-0.2,0.2l0.4,0.3c0.1,0.1,0.1,0.1,0.2,0.1c0.1,0,0.1,0,0.1,0
		c0.1-0.1,0.1-0.1,0.1-0.1l0.1-0.1c0.2-0.2,0.2-0.5,0-0.8l0.1-0.1l0.4,0.4l-0.9,1.2l-0.1-0.1l0.1-0.1c0.1-0.1,0.1-0.1,0.1-0.1
		s0-0.1-0.1-0.1C28.1,22,28.1,22,28,21.9l-1-0.7c-0.1-0.1-0.1-0.1-0.1-0.1c-0.1,0-0.1,0-0.1,0c-0.1,0-0.1,0.1-0.1,0.1l-0.1,0.1
		l-0.1-0.1l0.8-1.2l0.4,0.3l-0.1,0.1c0.1-0.1-0.1-0.1-0.1-0.1s-0.2,0.1-0.2,0.1c-0.1,0.1-0.1,0.2-0.2,0.2V20.8z M27,20.5l0.2-0.2
		l0.3-0.1l-0.1,0.1l-0.2,0.2L27,20.8L27,20.9V20.5z M28.7,21.8c0.1-0.1,0.2-0.1,0.3-0.1l0,0c0.1,0.1,0.1,0.1,0.1,0.2s0,0.1-0.1,0.2
		c-0.1,0.1-0.2,0.2-0.3,0.1C28.7,22,28.7,21.9,28.7,21.8L28.7,21.8z"/>
	<path class="st3" d="M28.4,19.1l1.4,0.1l-0.5-0.5c-0.1-0.1-0.1-0.1-0.2-0.1c-0.1,0-0.2,0.1-0.2,0.1l-0.1-0.1l0.4-0.4l0.1,0.1
		c-0.1,0.1-0.1,0.1-0.1,0.2c0,0.1,0,0.1,0,0.1c0.1,0.1,0.1,0.1,0.1,0.2l1.2,1l-0.1,0.1l-1.9-0.1l0.8,0.7c0.1,0.1,0.1,0.1,0.2,0.1
		c0.1,0,0.1-0.1,0.2-0.1l0.1-0.1l0.1,0.1l-0.4,0.5l-0.1-0.1c0.1-0.1,0.1-0.1,0.1-0.2s-0.1-0.2-0.1-0.2l-0.9-0.8h-0.1
		c-0.1,0-0.1,0-0.2,0c0.1,0.1,0,0.1-0.1,0.1l-0.1-0.1L28.4,19.1z"/>
	<path class="st3" d="M31.5,17.3c0.1-0.1,0.2-0.1,0.4-0.1s0.2,0.1,0.3,0.2s0.1,0.3,0.1,0.4c-0.1,0.2-0.2,0.4-0.4,0.5l-0.7,0.5
		l-0.1-0.2c0.1-0.1,0.1-0.1,0.1-0.1c0-0.1,0-0.1,0-0.1c-0.1-0.1-0.1-0.1-0.1-0.2l-0.7-0.9c-0.1-0.1-0.1-0.1-0.1-0.2
		c-0.1,0-0.1,0-0.1,0c0,0.2-0.1,0.2-0.1,0.2l0,0l0.7-0.5c0.1-0.1,0.2-0.2,0.4-0.2c0.1-0.1,0.2-0.1,0.3,0c0.1,0.1,0.2,0.1,0.2,0.2
		c0.1,0.1,0.1,0.2,0.1,0.2C31.6,17.1,31.6,17.2,31.5,17.3z M31.2,17.6c0.1-0.1,0.2-0.1,0.2-0.2c0.1-0.1,0.1-0.1,0.1-0.2
		c-0.1-0.2-0.1-0.3-0.2-0.3c-0.1,0-0.1,0-0.2,0c-0.1,0.1-0.2,0.1-0.2,0.2L31.2,17.6z M31.2,17.6l0.4,0.4l0.1,0.1
		c0.1,0.1,0.1,0.1,0.1,0.1s0.1,0,0.1-0.1c0.1-0.1,0.1-0.1,0.1-0.2s0.1-0.1,0.1-0.2c0-0.1-0.1-0.1-0.1-0.2c-0.1-0.1-0.1-0.1-0.2-0.2
		c-0.1-0.1-0.2-0.1-0.2,0C31.4,17.6,31.3,17.6,31.2,17.6z"/>
	<path class="st3" d="M32.6,14.8l-0.1,0.5l-0.1,0.1l-0.1-0.4L32.6,14.8z M33.3,16.5l-0.5,0.4l0.1,0.2c0,0.1,0.1,0.1,0.1,0.2
		c0.1,0.1,0.1,0.1,0.1,0.1s0.1-0.1,0.2-0.1l0.1,0.1l-0.5,0.4l-0.1-0.1c0.1-0.1,0.1-0.1,0.1-0.2s0-0.2,0-0.3l-0.2-1.5h0.1l1.3,0.9
		c0.1,0.1,0.2,0.1,0.3,0.2c0.1,0,0.1,0,0.1-0.1l0.1,0.1l-0.7,0.4L33.5,17h0.1c0.1-0.1,0.1-0.1,0.1-0.1c0-0.1,0-0.1,0-0.1l-0.1-0.1
		h-0.1L33.3,16.5z M33.2,16.5l-0.5-0.4l0.1,0.7L33.2,16.5z"/>
	<path class="st3" d="M34.6,14.5c0.4-0.3,1-0.1,1.2,0.3c0,0.1,0.1,0.1,0.1,0.1c0.1,0.2,0.1,0.4,0.1,0.6c-0.1,0.3-0.3,0.5-0.5,0.6
		c-0.3,0.2-0.5,0.2-0.8,0.1c-0.2-0.1-0.4-0.3-0.4-0.4c-0.1-0.2-0.1-0.5-0.1-0.7C34.1,14.7,34.3,14.5,34.6,14.5z M34.6,14.5
		c-0.2,0.1-0.2,0.2-0.2,0.4s0.1,0.4,0.2,0.5c0.1,0.2,0.2,0.4,0.4,0.5c0.1,0.1,0.2,0.1,0.4,0c0.1-0.1,0.2-0.1,0.2-0.2
		c0.1-0.1,0.1-0.2,0.1-0.4c-0.1-0.2-0.1-0.4-0.2-0.4c-0.1-0.2-0.2-0.3-0.3-0.4c-0.1-0.1-0.2-0.1-0.3-0.2
		C34.7,14.5,34.6,14.5,34.6,14.5L34.6,14.5z"/>
	<path class="st3" d="M38.3,13.2l0.2,0.5h-0.1c-0.1-0.2-0.2-0.2-0.3-0.3c-0.1-0.1-0.3-0.1-0.4-0.1c-0.1,0.1-0.2,0.1-0.3,0.2
		c-0.1,0.1-0.1,0.2-0.1,0.4c0,0.2,0,0.3,0.1,0.4c0.1,0.2,0.1,0.3,0.2,0.4c0.1,0.1,0.2,0.2,0.3,0.2c0.1,0.1,0.2,0.1,0.4,0
		c0.1-0.1,0.2-0.1,0.3-0.2c0.1-0.1,0.2-0.2,0.2-0.4l0.1,0.2c-0.1,0.1-0.2,0.2-0.2,0.3c-0.1,0.1-0.2,0.2-0.4,0.2
		c-0.2,0.1-0.4,0.1-0.5,0.1c-0.2-0.1-0.3-0.1-0.4-0.2c-0.1-0.1-0.2-0.3-0.2-0.4c-0.1-0.4,0-0.7,0.3-0.9c0.1-0.1,0.3-0.2,0.4-0.2
		c0-0.1,0.1-0.1,0.3-0.1c0.1,0,0.1,0,0.2,0c0.1,0,0,0,0.1,0C38.3,13.2,38.3,13.2,38.3,13.2L38.3,13.2z"/>
	<path class="st3" d="M39.6,13.9l0.1,0.5c0,0.1,0.1,0.1,0.1,0.2c0,0.1,0.1,0.1,0.1,0.1c0.1,0,0.1,0,0.1,0H40v0.1l-0.9,0.1v-0.1h0.1
		c0.1,0,0.1-0.1,0.1-0.1s0.1-0.1,0.1-0.1c0-0.1,0-0.1,0-0.2l-0.2-1.2c0-0.1,0-0.1-0.1-0.2c0-0.1-0.1-0.1-0.1-0.1s-0.1,0-0.1,0h-0.1
		l0,0l0.9-0.2V13h-0.1c-0.1,0-0.1,0.1-0.1,0.1s-0.1,0.1-0.1,0.1s0,0.1,0,0.2l0.1,0.5l0.7-0.1l-0.1-0.5c0-0.1-0.1-0.1-0.1-0.2
		c0-0.1-0.1-0.1-0.1-0.1s-0.1,0-0.1,0h-0.1V13l0.9-0.2v0.1h-0.1c-0.1,0-0.1,0.1-0.1,0.1c-0.1,0-0.1,0.1-0.1,0.1c0,0.1,0,0.1,0,0.2
		l0.2,1.2c0,0.1,0.1,0.1,0.1,0.2c0,0.1,0.1,0.1,0.1,0.1c0.1,0.1,0.1,0.1,0.1,0.1H41v0.1l-0.9,0.2v-0.1h0.1c0.1,0,0.1-0.1,0.1-0.1
		c0.1-0.1,0.1-0.1,0.1-0.1c0-0.1,0-0.1,0-0.2l-0.1-0.5L39.6,13.9z"/>
	<path class="st3" d="M42.1,14.4L42.1,14.4l-0.9,0.1v-0.1h0.1c0.1,0,0.1,0,0.1-0.1c0.1,0,0.1-0.1,0.1-0.1c0-0.1,0-0.1,0-0.2
		l-0.1-1.1c0-0.1,0-0.1-0.1-0.2c0-0.1-0.1-0.1-0.1-0.1c-0.1,0-0.1-0.1-0.1-0.1h-0.1l0,0l0.8-0.1l0,0h-0.1c-0.1,0-0.1,0-0.1,0.1
		c-0.1,0-0.1,0.1-0.1,0.1c0,0.1,0,0.1,0,0.2l0.1,1.2c0,0.1,0,0.1,0.1,0.2c0,0.1,0.1,0.1,0.1,0.1c0.1,0,0.1,0.1,0.1,0H42.1z
		 M41.9,12.1l-0.4,0.5h-0.1l0.1-0.4L41.9,12.1z"/>
	<path class="st3" d="M45,12.8L45,12.8c-0.1,0.1-0.2,0.1-0.2,0.1c-0.1,0.1-0.2,0.2-0.2,0.3l-0.7,1.3h-0.1l-0.4-1.5
		c-0.1-0.1-0.1-0.2-0.1-0.3c0,0-0.1-0.1-0.1-0.1l0,0l0.8,0.1v0.1H44c-0.1,0-0.1,0-0.2,0c-0.1,0-0.1,0.1-0.1,0.1V13
		c0,0.1,0.1,0.1,0.1,0.2l0.3,0.9l0.5-0.7c0-0.1,0.1-0.2,0.1-0.2c0-0.1,0.1-0.1,0.1-0.1c0-0.1,0-0.1,0-0.1c0-0.1-0.1-0.1-0.1-0.1
		c-0.1-0.1-0.1-0.1-0.2-0.1l0,0H45z"/>
	<path class="st3" d="M46.2,14.4l-0.6-0.2l-0.1,0.2c-0.1,0.1-0.1,0.1-0.1,0.2c0,0.1,0,0.1,0.1,0.1c0.1,0.1,0.1,0.1,0.2,0.1v0.1
		l-0.5-0.1v-0.1c0.1,0,0.1,0,0.2-0.1c0.1-0.1,0.2-0.2,0.2-0.2l0.8-1.2h0.1l0.3,1.5c0,0.1,0.1,0.2,0.1,0.3C46.9,15,46.9,15,47,15V15
		l-0.9-0.2v-0.1h0.1c0.1,0,0.1,0,0.2,0c0.1,0,0.1-0.1,0.1-0.1v-0.1c0,0,0-0.1,0-0.1L46.2,14.4z M46.2,14.3l-0.1-0.7l-0.4,0.5
		L46.2,14.3z M46.1,12.4l0.4,0.1l0.1,0.5l-0.1-0.1L46.1,12.4z"/>
	<path class="st3" d="M49.9,14.3l-0.2,0.4h-0.1c0-0.1,0-0.2,0-0.3c0-0.1-0.1-0.1-0.1-0.2c-0.1-0.1-0.1-0.1-0.2-0.1l-0.2-0.1
		l-0.5,1.2c-0.1,0.1-0.1,0.1-0.1,0.2c0,0.1,0,0.1,0.1,0.1c0.1,0.1,0.1,0.1,0.1,0.1l0.1,0.1v0.1l-0.8-0.4v-0.1l0.1,0.1
		c0.1,0.1,0.1,0.1,0.1,0.1s0.1,0,0.1-0.1c0.1-0.1,0.1-0.1,0.1-0.2l0.5-1.2l-0.1-0.1c-0.1-0.1-0.2-0.1-0.3-0.1
		c-0.1,0.1-0.2,0.1-0.3,0.2h-0.1l0.2-0.4L49.9,14.3z"/>
	<path class="st3" d="M50.3,14.4l0.8,0.4L51,14.8L51,14.8c-0.1-0.1-0.1-0.1-0.2-0.1c-0.1,0-0.1,0-0.1,0.1c0.1,0.1,0,0.2,0,0.2
		l-0.4,0.8c-0.1,0.1-0.1,0.2-0.1,0.3c0,0.1,0,0.1,0.1,0.2c0.1,0.1,0.1,0.1,0.2,0.2c0.1,0.1,0.2,0.1,0.3,0.1c0.1,0,0.2-0.1,0.2-0.1
		c0.1-0.1,0.2-0.2,0.2-0.4l0.4-0.6c0.1-0.1,0.1-0.1,0.1-0.2c0-0.1,0-0.1-0.1-0.1c-0.1-0.1-0.1-0.1-0.2-0.1l0.1-0.1l0.5,0.3l0,0h-0.1
		c-0.1-0.1-0.1-0.1-0.1-0.1s-0.1,0-0.1,0.1c-0.1,0.1-0.1,0.1-0.1,0.1L51.5,16c-0.1,0.2-0.2,0.3-0.3,0.4c-0.1,0.1-0.2,0.1-0.3,0.2
		c-0.2,0-0.3-0.1-0.4-0.1s-0.2-0.1-0.3-0.2C50.1,16.1,50,16,50,15.9c0-0.1,0.1-0.2,0.1-0.4l0.4-0.8c0.1-0.1,0.1-0.1,0.1-0.2
		c0-0.1,0-0.1,0-0.1C50.4,14.5,50.4,14.5,50.3,14.4L50.3,14.4z"/>
	<path class="st3" d="M53.8,16.5L53.8,16.5c-0.1,0-0.1,0-0.2,0c-0.1,0.1-0.2,0.1-0.4,0.1L52.6,17l-0.2,0.4c-0.1,0.1-0.1,0.1-0.1,0.2
		s0,0.1,0,0.1c0,0.1,0.1,0.1,0.1,0.1l0.1,0.1l-0.1,0.1l-0.8-0.5l0.1-0.1l0.1,0.1c0.1,0.1,0.1,0.1,0.1,0.1s0.1,0,0.1-0.1
		c0.1-0.1,0.1-0.1,0.1-0.1l0.2-0.3l0.1-0.8c0-0.1,0-0.2,0-0.4c0-0.1-0.1-0.1-0.1-0.1l0.1-0.1l0.7,0.5L53,15.9l-0.1-0.1
		c-0.1,0.1-0.1,0.1-0.1,0.1c-0.1,0-0.1,0-0.1,0.1c-0.1,0.1-0.1,0.2-0.1,0.3L52.6,17l0.5-0.3c0.1-0.1,0.2-0.1,0.3-0.2
		c0-0.1,0-0.1,0-0.1c-0.1,0-0.1-0.1-0.1-0.1l0.1-0.1L53.8,16.5z"/>
	<path class="st3" d="M54.5,17.3l-0.5,0.5l0.1,0.1c0.1,0.1,0.2,0.1,0.3,0.1s0.2-0.1,0.3-0.2l0.1,0.1l-0.7,0.7L54,18.5
		c0.1-0.1,0.1-0.2,0.1-0.2c0-0.1,0-0.1,0-0.2c-0.1-0.1-0.1-0.1-0.1-0.2l-0.4,0.4c-0.1,0.1-0.1,0.1-0.1,0.2c0,0.1,0,0.1,0,0.1
		c0,0.1,0.1,0.1,0.1,0.1l0.1,0.1c0.2,0.2,0.5,0.2,0.8,0.1l0.1,0.1l-0.4,0.4l-1.2-1l0.1-0.1l0.1,0.1c0.1,0.1,0.1,0.1,0.1,0.1
		s0.1,0,0.1,0c0.1-0.1,0.1-0.1,0.1-0.1l0.8-0.9c0.1-0.1,0.1-0.1,0.1-0.1c0-0.1,0-0.1,0-0.1c0-0.1-0.1-0.1-0.1-0.1l-0.1-0.1l0.1-0.1
		l1.2,1L55,18.1L54.9,18c0.1-0.1,0.1-0.2,0.1-0.3c0-0.1-0.1-0.2-0.1-0.2c-0.1-0.1-0.1-0.2-0.2-0.2L54.5,17.3z M55.2,17l-0.1,0.5
		L55,17.5L55,17.1h-0.4L54.5,17l0.5-0.2L55.2,17z"/>
	<path class="st3" d="M56.1,18.6l-0.2,1.3l0.5-0.5c0.1-0.1,0.1-0.1,0.1-0.2c0-0.1-0.1-0.2-0.1-0.2l0.1-0.1l0.4,0.4l-0.1,0.1
		c-0.1-0.1-0.1-0.1-0.1-0.1s-0.1,0-0.1,0c-0.1,0.1-0.1,0.1-0.2,0.1l-1.2,1v-0.1l0.3-1.9l-0.8,0.8c-0.1,0.1-0.1,0.1-0.1,0.2
		s0.1,0.1,0.1,0.2l0.1,0.1l-0.1,0.1l-0.4-0.5l0.1-0.1c0.1,0.1,0.2,0.2,0.3,0.1c0.1,0,0.1-0.1,0.1-0.1l1-0.8v-0.1c0-0.1,0-0.1,0-0.2
		c0-0.1-0.1-0.1-0.1-0.1l0.1-0.1L56.1,18.6z"/>
	<path class="st3" d="M58.5,21.9l-0.4,0.3l-0.1-0.1c0.1-0.1,0.1-0.2,0.2-0.2c0.1-0.1,0.1-0.1,0.1-0.2c0-0.1-0.1-0.1-0.1-0.2
		l-0.1-0.1L57,22.1c-0.1,0.1-0.1,0.1-0.2,0.1c0,0.1,0,0.1,0,0.1c0,0.1,0.1,0.1,0.1,0.1l0.1,0.1l-0.1,0.1l-0.5-0.8l0.1-0.1l0.1,0.1
		c0.1,0.1,0.1,0.1,0.1,0.1h0.1c0.1,0,0.1-0.1,0.1-0.1l1.2-0.7l-0.1-0.1c-0.1-0.1-0.1-0.2-0.2-0.2c-0.1-0.1-0.2,0-0.4,0.1l-0.1-0.1
		l0.4-0.3L58.5,21.9z"/>
	<path class="st3" d="M58.1,23.3l-0.4,0.2c-0.1,0.1-0.1,0.1-0.2,0.1c0,0.1-0.1,0.1-0.1,0.1c0,0.1,0.1,0.1,0.1,0.2l-0.1,0.1l-0.4-0.8
		l0.1-0.1c0.1,0.1,0.1,0.1,0.1,0.2c0.1,0.1,0.1,0.1,0.1,0.1c0.1,0,0.1-0.1,0.2-0.1l1-0.5c0.1-0.1,0.1-0.1,0.2-0.1
		c0-0.1,0.1-0.1,0.1-0.1c0-0.1-0.1-0.1-0.1-0.2l0.1-0.1l0.4,0.7c0.1,0.2,0.2,0.3,0.2,0.4c0,0.1,0,0.2-0.1,0.3
		c-0.1,0.1-0.1,0.2-0.2,0.2c-0.1,0.1-0.3,0.1-0.4,0c-0.1-0.1-0.2-0.1-0.2-0.2l-0.4,0.6C58,24.5,58,24.5,58,24.6c0,0.1,0,0.1,0,0.1
		l-0.1,0.1l-0.3-0.5l0.5-0.8C58.1,23.5,58.1,23.3,58.1,23.3z M58.9,22.9l-0.7,0.4l0.1,0.1c0.1,0.1,0.1,0.2,0.2,0.2
		c0.1,0.1,0.1,0.1,0.2,0.1s0.2,0,0.2-0.1c0.2-0.1,0.3-0.3,0.2-0.4c0-0.1-0.1-0.1-0.1-0.1L58.9,22.9z"/>
	<path class="st3" d="M59.6,24.3l0.3,0.8h-0.1v-0.1c0-0.1-0.1-0.1-0.1-0.1c-0.1-0.1-0.1-0.1-0.1-0.1c-0.1,0-0.1,0.1-0.2,0.1
		l-0.8,0.2c-0.1,0.1-0.2,0.1-0.3,0.2c-0.1,0.1-0.1,0.1-0.1,0.2c0,0.1,0,0.2,0.1,0.2c0.1,0.1,0.1,0.2,0.2,0.2
		c0.1,0.1,0.2,0.1,0.2,0.1c0.2,0,0.3-0.1,0.4-0.1l0.7-0.2c0.1,0,0.1-0.1,0.2-0.1c0.1-0.1,0.1-0.1,0.1-0.1c0-0.1,0-0.1-0.1-0.2h0.1
		l0.2,0.5h-0.1V26c0-0.1-0.1-0.1-0.1-0.1c-0.1-0.1-0.1-0.1-0.1-0.1c-0.1,0-0.1,0-0.2,0.1l-0.7,0.2c-0.2,0.1-0.3,0.1-0.4,0.1
		c-0.1,0-0.2-0.1-0.3-0.1c-0.1-0.1-0.2-0.2-0.3-0.4c-0.1-0.1-0.1-0.3-0.1-0.4c0-0.1,0.1-0.2,0.1-0.3c0.1-0.1,0.2-0.2,0.3-0.2
		l0.8-0.3c0.1,0,0.1-0.1,0.2-0.1c0.1-0.1,0.1-0.1,0.1-0.1S59.6,24.4,59.6,24.3L59.6,24.3z"/>
	<path class="st3" d="M60.8,28.2L60.8,28.2c-0.1-0.1-0.1-0.1-0.1-0.1c-0.1-0.1-0.2-0.1-0.4-0.2l-0.7-0.2l-0.4,0.1
		c-0.1,0-0.1,0.1-0.2,0.1c-0.1,0-0.1,0.1-0.1,0.1c0,0.1,0,0.1,0,0.1l0.1,0.1H59l-0.2-1h0.1l0.1,0.1c0,0.1,0.1,0.1,0.1,0.1
		c0.1,0.1,0.1,0.1,0.1,0.1s0.1,0,0.2-0.1l0.4-0.1l0.7-0.5c0.1-0.1,0.2-0.2,0.2-0.2c0-0.1,0-0.1,0-0.2h-0.1l0.2,0.8h-0.1V27
		c0-0.1-0.1-0.1-0.1-0.1c0,0-0.1-0.1-0.1,0c-0.1,0.1-0.2,0.1-0.2,0.2l-0.5,0.4l0.5,0.2c0.1,0.1,0.2,0.1,0.3,0.1
		c0.1,0,0.1-0.1,0.1-0.1c0-0.1,0-0.1,0-0.2l0,0L60.8,28.2z"/>
	<path class="st3" d="M60.8,29.2l-0.7,0.1v0.1c0,0.1,0.1,0.2,0.1,0.2c0.1,0.1,0.2,0.1,0.4,0.1v0.1l-0.9,0.1v-0.1
		c0.1,0,0.2-0.1,0.3-0.1c0.1-0.1,0.1-0.1,0.1-0.1c0-0.1,0-0.2,0-0.2l-0.5,0.1c-0.1,0-0.1,0-0.2,0.1c-0.1,0-0.1,0.1-0.1,0.1
		c0,0.1,0,0.1,0,0.1v0.1c0,0.3,0.2,0.5,0.5,0.5v0.1l-0.5-0.1l-0.2-1.5h0.1v0.1c0,0.1,0,0.1,0.1,0.1c0,0.1,0.1,0.1,0.1,0.1
		c0.1,0,0.1,0,0.2,0l1.2-0.1l0.2-0.1c0.1,0,0.1-0.1,0.1-0.1c0.1-0.1,0.1-0.1,0.1-0.2v-0.1H61l0.2,1.5l-0.7,0.1V30
		c0.1-0.1,0.2-0.1,0.3-0.2c0.1-0.1,0.1-0.1,0.1-0.2c0-0.1,0-0.2,0-0.3L60.8,29.2z M61.2,29.2l0.1,0.3l-0.2,0.2v-0.1l0.1-0.3L61,29.1
		V29L61.2,29.2z M61.5,29l0.1,0.4l-0.2,0.1v-0.1L61.5,29z"/>
	<path class="st3" d="M61,31.2l-1.2,0.8h0.8c0.1,0,0.2,0,0.2-0.1c0.1-0.1,0.1-0.2,0.1-0.2H61v0.5H61c0-0.1,0-0.1-0.1-0.2
		c0-0.1-0.1-0.1-0.1-0.1C60.8,32,60.7,32,60.7,32l-1.5-0.1l0,0l1.5-1.2h-1.2c-0.1,0-0.2,0-0.2,0.1c-0.1,0.1-0.1,0.2-0.1,0.2v0.1
		h-0.1v-0.6h0.1c-0.1,0.1,0.1,0.2,0.2,0.3c0.1,0,0.1,0,0.1,0h1.2l0.1-0.1c0.1-0.1,0.1-0.1,0.1-0.1c0-0.1,0.1-0.1,0.1-0.1h0.1
		L61,31.2z"/>
</g>
<g>
	<path class="st3" d="M68.9,29.5V20h2.2v3.6h1.3V20h2.2v9.5h-2.2v-4.1h-1.3v4.1H68.9z"/>
	<path class="st3" d="M75.5,22.6c0-0.9,0.3-1.6,0.8-2.1c0.5-0.5,1.2-0.7,2-0.7c0.8,0,1.5,0.2,2,0.7c0.5,0.5,0.8,1.2,0.8,2.1v4.3
		c0,0.8-0.3,1.5-0.8,2s-1.2,0.8-2.1,0.8c-0.9,0-1.5-0.2-2.1-0.7c-0.5-0.5-0.8-1.2-0.8-2V22.6z M77.4,30.5h2v1.4h-2V30.5z M77.7,27.1
		c0,0.3,0,0.5,0.1,0.7c0.1,0.1,0.3,0.2,0.5,0.2c0.3,0,0.4-0.1,0.5-0.3c0.1-0.2,0.1-0.3,0.1-0.5v-4.7c0-0.2,0-0.4-0.1-0.5
		c-0.1-0.2-0.3-0.3-0.6-0.3c-0.3,0-0.4,0.1-0.6,0.3c-0.1,0.2-0.1,0.4-0.1,0.6V27.1z"/>
	<path class="st3" d="M82.2,26.9v-4.3c0-0.9,0.3-1.6,0.8-2.1c0.5-0.5,1.2-0.7,2-0.7c0.8,0,1.5,0.2,2,0.7c0.5,0.5,0.8,1.1,0.8,2v0.9
		h-2.2v-1.1c0-0.2,0-0.4-0.1-0.5c-0.1-0.2-0.3-0.3-0.6-0.3c-0.3,0-0.4,0.1-0.6,0.3c-0.1,0.2-0.1,0.4-0.1,0.6v4.7
		c0,0.3,0,0.5,0.1,0.7c0.1,0.1,0.3,0.2,0.5,0.2c0.3,0,0.4-0.1,0.5-0.3c0.1-0.2,0.1-0.3,0.1-0.5v-1.4h2.2v1.2c0,0.8-0.3,1.5-0.8,2
		c-0.5,0.5-1.2,0.8-2.1,0.8c-0.9,0-1.5-0.2-2.1-0.7C82.4,28.5,82.2,27.8,82.2,26.9z"/>
	<path class="st3" d="M92.8,29.5L91.3,20h2.2l0.6,6.8l0.8-6.8h2.2l-1.6,9.5H92.8z"/>
	<path class="st3" d="M97.8,29.5V20h2.2v9.5H97.8z"/>
	<path class="st3" d="M101,20h4.9v1.8h-2.7v1.9h2.4v1.8h-2.4v2.1h2.8v1.8h-5V20z M101.8,19.4l1-1.6h1.7l0.9,1.6H104l-0.5-0.9
		l-0.6,0.9H101.8z M102.4,30.5h2v1.4h-2V30.5z"/>
	<path class="st3" d="M107,29.5V20h2.4l1.8,5.6l0-5.6h2.1v9.5h-2.4l-1.8-5.9l0,5.9H107z"/>
	<path class="st3" d="M68.9,43.8v-9.5h3c0.8,0,1.4,0.2,1.8,0.5c0.4,0.3,0.6,0.9,0.6,1.7c0,0.6-0.1,1.1-0.2,1.4
		c-0.2,0.4-0.5,0.7-1,0.9c0.5,0.1,0.9,0.3,1.1,0.7c0.2,0.4,0.3,0.9,0.3,1.5c0,0.9-0.2,1.5-0.5,2c-0.4,0.5-1.1,0.8-2,0.8H68.9z
		 M71.1,35.9v2.1h0.4c0.3,0,0.5-0.1,0.6-0.3c0.1-0.2,0.1-0.4,0.1-0.8c0-0.4,0-0.6-0.1-0.8c-0.1-0.2-0.3-0.3-0.5-0.3H71.1z
		 M71.1,39.6v2.6h0.5c0.3,0,0.5-0.1,0.7-0.3c0.1-0.2,0.2-0.5,0.2-1c0-0.4,0-0.7-0.1-0.9c-0.1-0.3-0.3-0.4-0.6-0.4H71.1z"/>
	<path class="st3" d="M76.9,34.3h2.9l1.8,9.5h-2.3l-0.2-1.7h-1.5l-0.2,1.7h-2.2L76.9,34.3z M78.1,32.1H80l-1.3,1.6h-1.1L78.1,32.1z
		 M77.8,40.5h1.1l-0.5-4.7L77.8,40.5z"/>
	<path class="st3" d="M82.2,41.2v-4.3c0-0.9,0.3-1.6,0.8-2.1c0.5-0.5,1.2-0.7,2-0.7c0.8,0,1.5,0.2,2,0.7c0.5,0.5,0.8,1.1,0.8,2v4.3
		c0,0.8-0.3,1.5-0.8,2C86.6,43.7,85.9,44,85,44c-0.9,0-1.5-0.2-2.1-0.7C82.4,42.8,82.2,42.1,82.2,41.2z M84.4,36.7v4.7
		c0,0.3,0,0.5,0.1,0.7c0.1,0.1,0.3,0.2,0.5,0.2c0.3,0,0.4-0.1,0.5-0.3c0.1-0.2,0.1-0.3,0.1-0.5v-4.7c0-0.2,0-0.4-0.1-0.5
		c-0.1-0.2-0.3-0.3-0.6-0.3c-0.3,0-0.4,0.1-0.6,0.3C84.4,36.3,84.4,36.5,84.4,36.7z"/>
	<path class="st3" d="M91.8,41.2v-4.3c0-0.9,0.3-1.6,0.8-2.1c0.5-0.5,1.2-0.7,2-0.7c0.8,0,1.5,0.2,2,0.7c0.5,0.5,0.8,1.1,0.8,2v0.9
		h-2.2v-1.1c0-0.2,0-0.4-0.1-0.5c-0.1-0.2-0.3-0.3-0.6-0.3c-0.3,0-0.4,0.1-0.6,0.3C94,36.3,94,36.5,94,36.7v4.7c0,0.3,0,0.5,0.1,0.7
		c0.1,0.1,0.3,0.2,0.5,0.2c0.3,0,0.4-0.1,0.5-0.3c0.1-0.2,0.1-0.3,0.1-0.5V40h2.2v1.2c0,0.8-0.3,1.5-0.8,2c-0.5,0.5-1.2,0.8-2.1,0.8
		c-0.9,0-1.5-0.2-2.1-0.7C92,42.8,91.8,42.1,91.8,41.2z"/>
	<path class="st3" d="M98.4,43.8v-9.5h2.2v3.6h1.3v-3.6h2.2v9.5h-2.2v-4.1h-1.3v4.1H98.4z"/>
	<path class="st3" d="M105.1,34.3h2.2v9.5h-2.2V34.3z M106,32.1h1.8l-1.3,1.6h-1.1L106,32.1z"/>
	<path class="st3" d="M112.3,43.8l-1.5-9.5h2.2l0.6,6.8l0.8-6.8h2.2l-1.6,9.5H112.3z"/>
	<path class="st3" d="M118.6,34.3h2.9l1.8,9.5H121l-0.2-1.7h-1.5l-0.2,1.7h-2.2L118.6,34.3z M120.3,32.1l0.5,1.6h-1.1l-1.3-1.6
		H120.3z M119.5,40.5h1.1l-0.5-4.7L119.5,40.5z"/>
	<path class="st3" d="M126.5,36.2v-1.8h5v1.8h-1.4v7.7h-2.2v-7.7H126.5z"/>
	<path class="st3" d="M132.1,41.2v-6.9h2.2v7c0,0.3,0,0.6,0.1,0.7c0.1,0.2,0.2,0.2,0.5,0.2c0.2,0,0.4-0.1,0.5-0.2
		c0.1-0.1,0.2-0.4,0.2-0.8v-7h2.2v6.9c0,0.8-0.3,1.5-0.8,2c-0.5,0.5-1.2,0.8-2.1,0.8c-0.9,0-1.5-0.2-2.1-0.7
		C132.4,42.8,132.1,42.1,132.1,41.2z"/>
	<path class="st3" d="M140.1,40.1l-1.8-5.8h2.3l0.6,3.2l0.7-3.2h2.2l-1.8,5.6v3.9h-2.2V40.1z"/>
	<path class="st3" d="M144.7,34.3h4.9v1.8h-2.7V38h2.4v1.8h-2.4V42h2.8v1.8h-5V34.3z M145.4,33.7l1-1.6h1.7l0.9,1.6h-1.2l-0.5-0.9
		l-0.6,0.9H145.4z"/>
	<path class="st3" d="M150.7,43.8v-9.5h2.4l1.8,5.6l0-5.6h2.1v9.5h-2.4l-1.8-5.9l0,5.9H150.7z"/>
	<path class="st3" d="M160.5,36.2v-1.8h5v1.8h-1.4v7.7H162v-7.7H160.5z"/>
	<path class="st3" d="M166.2,43.8v-9.5h2.9c1,0,1.7,0.2,2.1,0.5c0.4,0.3,0.7,0.9,0.7,1.8c0,0.6-0.1,1.1-0.2,1.4
		c-0.2,0.4-0.6,0.7-1.1,0.8c0.4,0.1,0.7,0.2,0.9,0.5c0.2,0.3,0.3,0.6,0.3,1V42v0.7c0,0.1,0,0.2,0,0.3c0,0.1,0,0.2,0,0.3
		c0,0.2,0.1,0.4,0.2,0.6h-2.2c-0.1-0.1-0.1-0.3-0.2-0.6c0-0.3,0-0.5,0-0.7c0-0.2,0-0.4,0-0.5v-1.5c0-0.3-0.1-0.5-0.2-0.6
		c-0.1-0.1-0.3-0.2-0.6-0.2h-0.4v4.1H166.2z M168.4,35.9v2.2h0.5c0.3,0,0.5-0.1,0.7-0.3l0.1-0.3l0-0.5c0-0.4,0-0.6-0.1-0.8
		c-0.1-0.2-0.4-0.3-0.8-0.3H168.4z"/>
	<path class="st3" d="M172.8,41.2v-6.9h2.2v7c0,0.3,0,0.6,0.1,0.7c0.1,0.2,0.2,0.2,0.5,0.2c0.2,0,0.4-0.1,0.5-0.2
		c0.1-0.1,0.2-0.4,0.2-0.8v-7h2.2v6.9c0,0.8-0.3,1.5-0.8,2c-0.5,0.5-1.2,0.8-2.1,0.8c-0.9,0-1.5-0.2-2.1-0.7
		C173.1,42.8,172.8,42.1,172.8,41.2z"/>
	<path class="st3" d="M180.8,40.1l-1.8-5.8h2.3l0.6,3.2l0.7-3.2h2.2l-1.8,5.6v3.9h-2.2V40.1z"/>
	<path class="st3" d="M185.4,34.3h4.9v1.8h-2.7V38h2.4v1.8h-2.4V42h2.8v1.8h-5V34.3z M186.1,33.7l1-1.6h1.7l0.9,1.6h-1.2l-0.5-0.9
		l-0.6,0.9H186.1z M190,30.9l0.5,1.4h-1l-1.2-1.4H190z"/>
	<path class="st3" d="M191.4,43.8v-9.5h2.4l1.8,5.6l0-5.6h2.1v9.5h-2.4l-1.8-5.9l0,5.9H191.4z"/>
</g>
</svg>
