<svg width="14" height="10" viewBox="0 0 14 10" fill="none" xmlns="http://www.w3.org/2000/svg">
<path fill-rule="evenodd" clip-rule="evenodd" d="M1 0C0.723858 0 0.5 0.223858 0.5 0.5V1.5C0.5 1.77614 0.723858 2 1 2H2C2.27614 2 2.5 1.77614 2.5 1.5V0.5C2.5 0.223858 2.27614 0 2 0H1ZM2 0.5H1V1.5H2V0.5Z" fill="#333333"/>
<path d="M4 1C4 0.723858 4.22386 0.5 4.5 0.5H13.5C13.7761 0.5 14 0.723858 14 1C14 1.27614 13.7761 1.5 13.5 1.5H4.5C4.22386 1.5 4 1.27614 4 1Z" fill="#333333"/>
<path d="M4.5 4.5C4.22386 4.5 4 4.72386 4 5C4 5.27614 4.22386 5.5 4.5 5.5H13.5C13.7761 5.5 14 5.27614 14 5C14 4.72386 13.7761 4.5 13.5 4.5H4.5Z" fill="#333333"/>
<path d="M4.5 8.5C4.22386 8.5 4 8.72386 4 9C4 9.27614 4.22386 9.5 4.5 9.5H13.5C13.7761 9.5 14 9.27614 14 9C14 8.72386 13.7761 8.5 13.5 8.5H4.5Z" fill="#333333"/>
<path fill-rule="evenodd" clip-rule="evenodd" d="M0.5 4.5C0.5 4.22386 0.723858 4 1 4H2C2.27614 4 2.5 4.22386 2.5 4.5V5.5C2.5 5.77614 2.27614 6 2 6H1C0.723858 6 0.5 5.77614 0.5 5.5V4.5ZM1 4.5H2V5.5H1V4.5Z" fill="#333333"/>
<path fill-rule="evenodd" clip-rule="evenodd" d="M1 8C0.723858 8 0.5 8.22386 0.5 8.5V9.5C0.5 9.77614 0.723858 10 1 10H2C2.27614 10 2.5 9.77614 2.5 9.5V8.5C2.5 8.22386 2.27614 8 2 8H1ZM2 8.5H1V9.5H2V8.5Z" fill="#333333"/>
</svg>
