<svg width="59" height="60" viewBox="0 0 59 60" fill="none" xmlns="http://www.w3.org/2000/svg">
	<rect x="0.5" y="1" width="58" height="58" rx="5.52381" fill="white" stroke="#E1D6BF"/>
	<g clip-path="url(#clip0_8075_241988)">
		<path d="M55.864 3.63672H3.13672V56.364H55.864V3.63672Z" fill="#EE0033"/>
		<path d="M28.9326 28.7351H29.3084C29.3801 28.7351 29.4489 28.7066 29.4997 28.6559C29.5504 28.6051 29.5789 28.5363 29.5789 28.4646V25.6831C29.5789 25.6114 29.5504 25.5426 29.4997 25.4918C29.4489 25.4411 29.3801 25.4126 29.3084 25.4126H28.9326C28.8609 25.4126 28.7921 25.4411 28.7413 25.4918C28.6906 25.5426 28.6621 25.6114 28.6621 25.6831V28.4646C28.6621 28.5363 28.6906 28.6051 28.7413 28.6559C28.7921 28.7066 28.8609 28.7351 28.9326 28.7351Z" fill="white"/>
		<path d="M26.3186 28.7737C26.5464 28.7737 26.8124 28.7616 26.9534 28.479L28.5368 25.4136H27.9575C27.8452 25.4144 27.7355 25.4473 27.6414 25.5085C27.5472 25.5696 27.4725 25.6565 27.4261 25.7587L26.4283 27.8774C26.4047 27.9271 26.3582 28.0088 26.3186 28.0088C26.2791 28.0088 26.2325 27.9271 26.2089 27.8774L25.2047 25.7587C25.1583 25.6565 25.0836 25.5696 24.9895 25.5085C24.8953 25.4473 24.7856 25.4144 24.6733 25.4136H24.0928L25.6762 28.479C25.8331 28.7801 26.154 28.7737 26.3186 28.7737Z" fill="white"/>
		<path d="M46.3619 28.7346C46.4336 28.7346 46.5024 28.7061 46.5532 28.6553C46.6039 28.6046 46.6324 28.5358 46.6324 28.4641V28.1706H46.4053C46.2407 28.1706 45.8949 28.1642 45.692 28.0264C45.426 27.851 45.4496 27.5371 45.4496 27.3113V24.903C45.4496 24.8311 45.421 24.7621 45.3702 24.7112C45.3193 24.6604 45.2504 24.6318 45.1785 24.6318H44.8034C44.7315 24.6318 44.6625 24.6604 44.6116 24.7112C44.5608 24.7621 44.5322 24.8311 44.5322 24.903V27.65C44.5322 28.0704 44.6815 28.3148 44.9475 28.4902C45.2136 28.6656 45.5045 28.7346 46.0608 28.7346H46.3619Z" fill="white"/>
		<path d="M34.8779 27.6497C34.8779 28.0701 35.0265 28.3144 35.2932 28.4899C35.5598 28.6653 35.8495 28.7342 36.4064 28.7342H36.7075C36.7793 28.7342 36.8481 28.7057 36.8988 28.655C36.9495 28.6043 36.978 28.5355 36.978 28.4637V28.1703H36.7509C36.5863 28.1703 36.2405 28.1639 36.0377 28.0261C35.7716 27.8507 35.7946 27.5368 35.7946 27.3109V25.9757H37.7085V27.6497C37.7085 28.0701 37.8571 28.3144 38.1238 28.4899C38.3905 28.6653 38.6801 28.7342 39.2364 28.7342H39.5375C39.5731 28.7343 39.6083 28.7274 39.6412 28.7138C39.6741 28.7003 39.704 28.6804 39.7292 28.6552C39.7544 28.6301 39.7744 28.6003 39.788 28.5674C39.8016 28.5345 39.8087 28.4993 39.8087 28.4637V28.1703H39.5815C39.4169 28.1703 39.0712 28.1639 38.8683 28.0261C38.6016 27.8507 38.6252 27.5368 38.6252 27.3109V25.9757H39.5146C39.5863 25.9757 39.6551 25.9472 39.7058 25.8965C39.7566 25.8457 39.785 25.7769 39.785 25.7052V25.4117H38.6252V24.9014C38.6252 24.8296 38.5967 24.7608 38.546 24.7101C38.4953 24.6594 38.4265 24.6309 38.3547 24.6309H37.979C37.9073 24.6309 37.8384 24.6594 37.7877 24.7101C37.737 24.7608 37.7085 24.8296 37.7085 24.9014V25.4117H35.7946V24.9014C35.7946 24.8296 35.7661 24.7608 35.7154 24.7101C35.6647 24.6594 35.5959 24.6309 35.5241 24.6309H35.1484C35.0766 24.6309 35.0078 24.6594 34.9571 24.7101C34.9064 24.7608 34.8779 24.8296 34.8779 24.9014V25.4117H34.3037V25.7052C34.3037 25.7408 34.3107 25.776 34.3244 25.8088C34.338 25.8417 34.358 25.8716 34.3832 25.8967C34.4083 25.9218 34.4382 25.9417 34.4711 25.9553C34.504 25.9688 34.5393 25.9758 34.5748 25.9757H34.876L34.8779 27.6497Z" fill="white"/>
		<path d="M33.9053 27.1927C34.0776 27.0549 34.1012 26.8603 34.1012 26.6906C34.1012 26.2709 33.9991 25.8568 33.5136 25.6125C33.1308 25.4211 32.6275 25.3994 32.142 25.3994C31.7503 25.3994 31.0447 25.3994 30.5898 25.7127C30.135 26.0259 30.0967 26.4839 30.0967 27.1047C30.0967 27.5436 30.1196 28.001 30.394 28.3168C30.7391 28.7053 31.2405 28.7366 31.6635 28.7366H33.6973C33.7691 28.7366 33.8379 28.7081 33.8886 28.6574C33.9393 28.6066 33.9679 28.5378 33.9679 28.4661V28.1726H31.9378C31.601 28.1726 31.2169 28.135 31.0996 27.7777C31.0632 27.6277 31.0448 27.474 31.0447 27.3197H33.4588C33.6227 27.3197 33.7777 27.2948 33.9053 27.1921V27.1927ZM32.9484 26.7532H31.6444C31.3126 26.7532 31.0441 26.9044 31.0441 27.0913V26.7532C31.0517 26.5337 31.0441 26.3519 31.2354 26.1822C31.4862 25.957 31.8626 25.9634 32.105 25.9634C32.364 25.9634 32.6613 25.9755 32.8891 26.1133C32.9676 26.159 33.0333 26.224 33.0798 26.3022C33.1264 26.3803 33.1523 26.469 33.1551 26.5599C33.1551 26.6479 33.1321 26.7512 32.9516 26.7512" fill="white"/>
		<path d="M41.5782 28.7348H43.6114C43.6832 28.7348 43.752 28.7063 43.8027 28.6555C43.8534 28.6048 43.8819 28.536 43.8819 28.4643V28.1708H41.8526C41.5157 28.1708 41.1317 28.1332 41.0136 27.7759C40.9776 27.6259 40.9594 27.4722 40.9594 27.3179H43.3747C43.5393 27.3179 43.6937 27.293 43.8213 27.1903C43.9936 27.0525 44.0172 26.8579 44.0172 26.6882C44.0172 26.2684 43.9157 25.8544 43.4296 25.6101C43.0468 25.4187 42.5441 25.397 42.058 25.397C41.6663 25.397 40.9613 25.397 40.5065 25.7102C40.0516 26.0234 40.0127 26.4815 40.0127 27.1022C40.0127 27.5411 40.0363 27.9986 40.3106 28.3144C40.6551 28.7029 41.1572 28.7341 41.5802 28.7341L41.5782 28.7348ZM40.9613 26.7533C40.969 26.5338 40.9613 26.352 41.1489 26.1823C41.3996 25.9571 41.776 25.9635 42.0191 25.9635C42.2743 25.9635 42.5754 25.9756 42.8025 26.1134C42.8813 26.159 42.9471 26.2239 42.9938 26.3021C43.0405 26.3802 43.0664 26.469 43.0691 26.56C43.0691 26.648 43.0455 26.7514 42.865 26.7514H41.561C41.2299 26.7514 40.9613 26.9026 40.9613 27.0895V26.7533Z" fill="white"/>
		<path d="M29.1208 25.0982H29.3084C29.344 25.0983 29.3792 25.0914 29.4121 25.0778C29.445 25.0643 29.4749 25.0444 29.5001 25.0192C29.5253 24.9941 29.5452 24.9643 29.5589 24.9314C29.5725 24.8985 29.5795 24.8633 29.5795 24.8277V24.7544C29.5795 24.7188 29.5725 24.6836 29.5589 24.6507C29.5452 24.6179 29.5253 24.588 29.5001 24.5629C29.4749 24.5378 29.445 24.5178 29.4121 24.5043C29.3792 24.4907 29.344 24.4838 29.3084 24.4839H28.9333C28.8615 24.4839 28.7926 24.5124 28.7417 24.5631C28.6909 24.6138 28.6623 24.6826 28.6621 24.7544V25.414H28.6666C28.6921 25.2603 28.8669 25.1001 29.1208 25.1001" fill="white"/>
		<path d="M24.0928 33.7964V31.0353C24.0928 30.6589 24.3237 30.4707 24.7856 30.4707H28.318C28.8207 30.4707 29.2105 30.5558 29.4873 30.7259C29.7642 30.896 29.9027 31.1888 29.9027 31.6044V33.2835C29.901 33.42 29.8454 33.5503 29.7479 33.6459C29.6505 33.7415 29.5192 33.7947 29.3827 33.7939H28.9999V31.8009C28.9999 31.5418 28.9334 31.3494 28.8003 31.2235C28.6672 31.0976 28.4492 31.0349 28.1464 31.0353H27.4446V33.3026C27.4441 33.3682 27.4307 33.4331 27.4051 33.4935C27.3796 33.5539 27.3423 33.6087 27.2956 33.6547C27.2489 33.7008 27.1935 33.7371 27.1327 33.7618C27.0719 33.7864 27.0069 33.7988 26.9413 33.7983H26.5444V31.0353H25.2239C25.0699 31.0353 24.9929 31.098 24.9929 31.2235V33.3026C24.9925 33.3684 24.9791 33.4334 24.9536 33.4939C24.928 33.5545 24.8908 33.6094 24.844 33.6556C24.7972 33.7017 24.7417 33.7382 24.6808 33.7629C24.6199 33.7876 24.5547 33.8001 24.4889 33.7996L24.0928 33.7964Z" fill="white"/>
		<path d="M35.043 33.7964V31.0353C35.043 30.6589 35.2737 30.4707 35.7352 30.4707H37.1655C37.6682 30.4707 38.058 30.5558 38.3348 30.7259C38.6117 30.896 38.7501 31.1888 38.7501 31.6044V33.7945H37.85V31.8008C37.85 31.5418 37.7834 31.3494 37.6503 31.2235C37.5172 31.0976 37.2986 31.0349 36.9945 31.0353H36.1715C36.0176 31.0353 35.9406 31.098 35.9406 31.2235V33.7964H35.043Z" fill="white"/>
		<path d="M47.7172 30.4717L45.2879 34.8704H44.3724L44.9951 33.7859L43.1826 30.4717H43.6292C43.7739 30.4706 43.916 30.5096 44.0399 30.5844C44.1638 30.6592 44.2645 30.7668 44.3309 30.8953L45.4218 33.0261L46.6021 30.8475C46.6647 30.7331 46.757 30.6378 46.8693 30.5717C46.9816 30.5055 47.1097 30.471 47.24 30.4717H47.7172Z" fill="white"/>
		<path d="M34.6408 32.1548C34.6408 32.7992 34.4707 33.2447 34.1305 33.4914C33.7902 33.738 33.2373 33.8614 32.4718 33.8614C31.7062 33.8614 31.1533 33.738 30.8131 33.4914C30.4729 33.2447 30.3027 32.7992 30.3027 32.1548C30.3027 31.5169 30.4746 31.0754 30.8182 30.8305C31.1618 30.5855 31.7128 30.4622 32.4711 30.4604C33.2303 30.4604 33.7817 30.5838 34.1253 30.8305C34.469 31.0771 34.6408 31.5186 34.6408 32.1548ZM31.2335 32.1548C31.2335 32.5691 31.326 32.863 31.511 33.0365C31.696 33.21 32.0163 33.2968 32.4718 33.2968C32.9285 33.2968 33.249 33.21 33.4332 33.0365C33.6173 32.863 33.7096 32.5691 33.71 32.1548C33.71 31.7444 33.6178 31.4535 33.4332 31.2821C33.2486 31.1107 32.9281 31.0257 32.4718 31.027C32.0159 31.027 31.6956 31.112 31.511 31.2821C31.3264 31.4523 31.2339 31.7432 31.2335 32.1548Z" fill="white"/>
		<path d="M40.7686 33.7705H42.7801C42.8512 33.7705 42.9193 33.7423 42.9696 33.692C43.0198 33.6418 43.048 33.5736 43.048 33.5026V33.2123H41.0397C40.7067 33.2123 40.3265 33.1753 40.2104 32.8219C40.1744 32.6736 40.1562 32.5215 40.1562 32.3689H42.5447C42.7074 32.3689 42.8637 32.344 42.9868 32.2413C43.1571 32.1048 43.1782 31.9128 43.1782 31.7456C43.1782 31.3297 43.0774 30.9207 42.5964 30.6783C42.2168 30.4869 41.7204 30.4678 41.2394 30.4678C40.8522 30.4678 40.1549 30.4678 39.7045 30.7778C39.2541 31.0879 39.2158 31.5434 39.2158 32.1546C39.2158 32.589 39.2394 33.042 39.5106 33.352C39.8519 33.7348 40.3482 33.7673 40.7667 33.7673L40.7686 33.7705ZM40.1543 31.8075C40.1619 31.59 40.1543 31.4107 40.3399 31.2429C40.5881 31.0196 40.9606 31.026 41.2005 31.026C41.4557 31.026 41.7511 31.0381 41.9763 31.1746C42.0539 31.2197 42.1188 31.2837 42.1649 31.3607C42.211 31.4377 42.2367 31.5252 42.2397 31.6148C42.2397 31.7022 42.2168 31.8062 42.0382 31.8062H40.7482C40.4203 31.8062 40.1543 31.9562 40.1543 32.1412V31.8075Z" fill="white"/>
		<path d="M14.8202 36.3864C18.5496 36.3864 21.573 33.3631 21.573 29.6337C21.573 25.9042 18.5496 22.8809 14.8202 22.8809C11.0907 22.8809 8.06738 25.9042 8.06738 29.6337C8.06738 33.3631 11.0907 36.3864 14.8202 36.3864Z" fill="white"/>
		<path d="M14.0838 25.4033H13.1709C13.0564 25.4033 12.943 25.4259 12.8372 25.4697C12.7314 25.5135 12.6352 25.5778 12.5543 25.6587C12.4733 25.7397 12.409 25.8359 12.3652 25.9417C12.3214 26.0475 12.2988 26.1609 12.2988 26.2754V32.9931C12.2988 33.1076 12.3214 33.221 12.3652 33.3268C12.409 33.4327 12.4733 33.5288 12.5543 33.6098C12.6352 33.6908 12.7314 33.755 12.8372 33.7988C12.943 33.8426 13.0564 33.8652 13.1709 33.8652H14.0838C14.1416 33.865 14.1969 33.842 14.2377 33.8011C14.2785 33.7602 14.3014 33.7048 14.3014 33.647V32.9957C14.3014 32.9671 14.2957 32.9388 14.2848 32.9124C14.2739 32.886 14.2579 32.862 14.2377 32.8418C14.2175 32.8216 14.1935 32.8056 14.1671 32.7947C14.1407 32.7837 14.1124 32.7781 14.0838 32.7781H12.6669V26.4904H14.0838C14.1416 26.4902 14.1969 26.4672 14.2377 26.4263C14.2785 26.3854 14.3014 26.33 14.3014 26.2722V25.6209C14.3014 25.5923 14.2957 25.564 14.2848 25.5376C14.2739 25.5112 14.2579 25.4872 14.2377 25.467C14.2175 25.4468 14.1935 25.4308 14.1671 25.4199C14.1407 25.4089 14.1124 25.4033 14.0838 25.4033Z" fill="#EE0033"/>
		<path d="M16.4691 25.4033H15.56C15.5022 25.4033 15.4468 25.4262 15.4059 25.467C15.365 25.5078 15.342 25.5631 15.3418 25.6209V26.2722C15.3418 26.3301 15.3648 26.3856 15.4057 26.4265C15.4466 26.4674 15.5021 26.4904 15.56 26.4904H16.9769V32.7781H15.56C15.5022 32.7781 15.4468 32.801 15.4059 32.8418C15.365 32.8826 15.342 32.9379 15.3418 32.9957V33.647C15.3418 33.7049 15.3648 33.7604 15.4057 33.8013C15.4466 33.8422 15.5021 33.8652 15.56 33.8652H16.4723C16.7036 33.8652 16.9254 33.7733 17.0889 33.6098C17.2525 33.4462 17.3444 33.2244 17.3444 32.9931V26.2754C17.3444 26.1606 17.3217 26.047 17.2777 25.9409C17.2337 25.8349 17.1691 25.7386 17.0878 25.6576C17.0065 25.5766 16.91 25.5124 16.8038 25.4688C16.6976 25.4252 16.5839 25.4029 16.4691 25.4033Z" fill="#EE0033"/>
	</g>
	<defs>
		<clipPath id="clip0_8075_241988">
			<path d="M3.13672 5.63672C3.13672 4.53215 4.03215 3.63672 5.13672 3.63672H53.864C54.9686 3.63672 55.864 4.53215 55.864 5.63672V54.364C55.864 55.4686 54.9686 56.364 53.864 56.364H5.13672C4.03215 56.364 3.13672 55.4686 3.13672 54.364V5.63672Z" fill="white"/>
		</clipPath>
	</defs>
</svg>
