<svg width="50" height="50" viewBox="0 0 50 50" fill="none" xmlns="http://www.w3.org/2000/svg">
<g clip-path="url(#clip0_1905_82708)">
<path d="M38.0876 0.103516H11.9117C5.39023 0.103516 0.103516 5.36683 0.103516 11.8595V38.1407C0.103516 44.6334 5.39023 49.8967 11.9117 49.8967H38.0876C44.6091 49.8967 49.8958 44.6334 49.8958 38.1407V11.8595C49.8958 5.36683 44.6091 0.103516 38.0876 0.103516Z" fill="white" stroke="#EAEAEA" stroke-miterlimit="10"/>
<path d="M5.00009 13.4934C4.54513 10.6847 6.46261 8.0394 9.28379 7.58645L44.5796 1.9153C42.7577 0.769493 40.5992 0.103516 38.285 0.103516H12.1091C5.58593 0.103516 0.298828 5.36722 0.298828 11.8595V38.1407C0.298828 44.2255 4.94192 49.2286 10.8938 49.8346L5.00009 13.4934Z" fill="#0068FF"/>
<path d="M30.9361 15.7792C30.7117 15.5497 30.4251 15.4359 30.0781 15.4359C29.5671 15.4359 29.1931 15.68 28.9584 16.1681C28.4577 15.5828 27.7722 15.2891 26.9038 15.2891C25.8609 15.2891 24.9842 15.6903 24.2737 16.4907C23.5633 17.2911 23.208 18.2673 23.208 19.4194C23.208 20.5714 23.5633 21.5476 24.2737 22.348C24.9842 23.1484 25.8609 23.5497 26.9038 23.5497C27.7722 23.5497 28.4577 23.256 28.9584 22.6707C29.1931 23.1588 29.5671 23.4028 30.0781 23.4028C30.4251 23.4028 30.7117 23.2891 30.9361 23.0595C31.1605 22.8299 31.2727 22.5486 31.2727 22.2177V16.6231C31.2727 16.2922 31.1605 16.0109 30.9361 15.7813V15.7792ZM28.4453 20.8072C28.1544 21.1815 27.7514 21.3677 27.2424 21.3677C26.7334 21.3677 26.3304 21.1815 26.0396 20.8072C25.7487 20.4328 25.6033 19.9716 25.6033 19.4194C25.6033 18.8671 25.7487 18.4059 26.0396 18.0316C26.3304 17.6572 26.7314 17.4711 27.2424 17.4711C27.7535 17.4711 28.1544 17.6572 28.4453 18.0316C28.7361 18.4059 28.8815 18.8671 28.8815 19.4194C28.8815 19.9716 28.7361 20.4328 28.4453 20.8072Z" fill="#0068FF"/>
<path d="M33.9793 23.057C33.7549 23.2866 33.4682 23.4003 33.1213 23.4003C32.7744 23.4003 32.4877 23.2866 32.2633 23.057C32.0389 22.8274 31.9268 22.5461 31.9268 22.2152V12.2007C31.9268 11.8698 32.0389 11.5885 32.2633 11.359C32.4877 11.1294 32.7744 11.0156 33.1213 11.0156C33.4682 11.0156 33.7549 11.1294 33.9793 11.359C34.2036 11.5885 34.3158 11.8698 34.3158 12.2007V22.2152C34.3158 22.5482 34.2036 22.8274 33.9793 23.057Z" fill="#0068FF"/>
<path d="M41.9029 16.4878C41.1364 15.6874 40.16 15.2861 38.9737 15.2861C37.7875 15.2861 36.8194 15.6812 36.0695 16.4733C35.3174 17.2634 34.9414 18.2458 34.9414 19.4164C34.9414 20.5871 35.3174 21.5695 36.0695 22.3596C36.8215 23.1496 37.7896 23.5467 38.9737 23.5467C40.1579 23.5467 41.1364 23.1476 41.9029 22.3451C42.6383 21.5633 43.0061 20.5871 43.0061 19.4164C43.0061 18.2458 42.6383 17.2696 41.9029 16.4878ZM40.1786 20.8042C39.8878 21.1786 39.4869 21.3647 38.9758 21.3647C38.4648 21.3647 38.0638 21.1786 37.773 20.8042C37.4821 20.4299 37.3367 19.9687 37.3367 19.4164C37.3367 18.8642 37.4821 18.403 37.773 18.0286C38.0638 17.6543 38.4648 17.4681 38.9758 17.4681C39.4869 17.4681 39.8878 17.6543 40.1786 18.0286C40.4695 18.403 40.6149 18.8642 40.6149 19.4164C40.6149 19.9687 40.4695 20.4299 40.1786 20.8042Z" fill="#0068FF"/>
<path d="M21.8842 15.5638C22.7297 14.478 23.1514 13.7479 23.1514 13.3715C23.1514 12.5007 22.6009 12.0664 21.4999 12.0664H15.6955C15.2384 12.0664 14.8874 12.174 14.636 12.3891C14.3867 12.6042 14.26 12.8834 14.26 13.2267C14.26 13.57 14.3846 13.8492 14.636 14.0643C14.8874 14.2794 15.2384 14.387 15.6955 14.387H19.6821L14.5778 20.9516C14.2433 21.3818 14.0771 21.7624 14.0771 22.0954C14.0771 23.0509 14.7108 23.5266 15.978 23.5266H21.9673C22.925 23.5266 23.4028 23.1274 23.4028 22.327C23.4028 21.5266 22.925 21.1274 21.9673 21.1274H17.5631L21.8842 15.5659V15.5638Z" fill="#0068FF"/>
<path d="M18.8305 29.7081H17.3389V32.7919H18.8305C19.2792 32.7919 19.6407 32.6471 19.9191 32.3555C20.1974 32.0639 20.3345 31.6957 20.3345 31.249C20.3345 30.8022 20.1954 30.4341 19.9191 30.1425C19.6407 29.8508 19.2792 29.7061 18.8305 29.7061V29.7081Z" fill="#03CA77"/>
<path d="M26.2696 32.6084C25.7959 32.6084 25.4261 32.7821 25.1561 33.1275C24.886 33.4729 24.751 33.9011 24.751 34.4119C24.751 34.9228 24.886 35.3488 25.1561 35.6963C25.4261 36.0417 25.7959 36.2154 26.2696 36.2154C26.7432 36.2154 27.113 36.0417 27.3831 35.6963C27.6532 35.3509 27.7882 34.9228 27.7882 34.4119C27.7882 33.9011 27.6532 33.475 27.3831 33.1275C27.113 32.7821 26.7412 32.6084 26.2696 32.6084Z" fill="#03CA77"/>
<path d="M36.8004 25.2988H15.1866C14.4657 25.2988 13.8799 25.88 13.8799 26.5977V39.2058C13.8799 39.9234 14.4636 40.5046 15.1866 40.5046H32.2487C32.0679 40.335 31.9786 40.1365 31.9786 39.909C31.9786 39.7228 32.0202 39.5284 32.1053 39.3236L32.9093 37.5429L30.6844 32.0124C30.62 31.8552 30.5867 31.6835 30.5867 31.4974C30.5867 31.2554 30.6885 31.0506 30.8942 30.8852C31.0998 30.7176 31.3138 30.6349 31.5382 30.6349C32.0326 30.6349 32.3692 30.8707 32.5457 31.3464L33.9314 35.121L35.4147 31.3464C35.6017 30.8728 35.9361 30.6349 36.4223 30.6349C36.6466 30.6349 36.8606 30.7176 37.0663 30.8852C37.2719 31.0527 37.3737 31.2575 37.3737 31.4974C37.3737 31.6835 37.3405 31.8552 37.2761 32.0124L33.9792 39.9793C33.8899 40.2027 33.7798 40.3764 33.653 40.5067H36.7983C37.5192 40.5067 38.105 39.9255 38.105 39.2078V26.5998C38.105 25.8821 37.5212 25.3009 36.7983 25.3009L36.8004 25.2988ZM21.5353 33.7807C20.8539 34.4012 19.9959 34.7114 18.9634 34.7114H17.3409V37.0982C17.3409 37.4581 17.2391 37.7352 17.0334 37.9338C16.8278 38.1323 16.566 38.2316 16.244 38.2316C15.922 38.2316 15.6603 38.1323 15.4546 37.9338C15.2489 37.7352 15.1471 37.456 15.1471 37.0982V28.9224C15.1471 28.1654 15.5273 27.7869 16.2876 27.7869H18.8741C19.9564 27.7869 20.8497 28.1096 21.5561 28.7549C22.2624 29.4002 22.6155 30.2357 22.6155 31.2657C22.6155 32.2957 22.2541 33.1416 21.5332 33.7828L21.5353 33.7807ZM30.0009 36.9989C30.0009 37.3071 29.897 37.5656 29.6893 37.7787C29.4815 37.9917 29.2156 38.0972 28.8936 38.0972C28.4199 38.0972 28.0751 37.8717 27.859 37.4188C27.3958 37.9607 26.7621 38.2316 25.9582 38.2316C24.9942 38.2316 24.1819 37.8614 23.5255 37.121C22.869 36.3805 22.5408 35.4767 22.5408 34.4095C22.5408 33.3423 22.869 32.4384 23.5255 31.698C24.1819 30.9576 24.9942 30.5873 25.9582 30.5873C26.7621 30.5873 27.3958 30.8583 27.859 31.4002C28.0751 30.9493 28.422 30.7218 28.8936 30.7218C29.2156 30.7218 29.4794 30.8273 29.6893 31.0403C29.897 31.2533 30.0009 31.5119 30.0009 31.82V36.9989Z" fill="#03CA77"/>
</g>
<defs>
<clipPath id="clip0_1905_82708">
<rect width="50" height="50" fill="white"/>
</clipPath>
</defs>
</svg>
