<svg width="59" height="60" viewBox="0 0 59 60" fill="none" xmlns="http://www.w3.org/2000/svg">
<rect x="0.5" y="1" width="58" height="58" rx="5.52381" fill="white" stroke="#E1D6BF"/>
<path d="M11 20.4995C11 17.8762 13.1266 15.7495 15.75 15.7495H44.25C46.8734 15.7495 49 17.8762 49 20.4995V22.8745H11V20.4995Z" fill="#007bff"/>
<path fill-rule="evenodd" clip-rule="evenodd" d="M11 27.6245V39.4995C11 42.1229 13.1266 44.2495 15.75 44.2495H44.25C46.8734 44.2495 49 42.1229 49 39.4995V27.6245H11ZM18.125 32.3745C16.8133 32.3745 15.75 33.4378 15.75 34.7495V37.1245C15.75 38.4362 16.8133 39.4995 18.125 39.4995H20.5C21.8117 39.4995 22.875 38.4362 22.875 37.1245V34.7495C22.875 33.4378 21.8117 32.3745 20.5 32.3745H18.125Z" fill="#007bff"/>
</svg>
